M48
; DRILL file {KiCad (5.1.9)-1} date 07/21/21 07:35:45
; FORMAT={-:-/ absolute / metric / decimal}
; #@! TF.CreationDate,2021-07-21T07:35:45-05:00
; #@! TF.GenerationSoftware,Kicad,Pcbnew,(5.1.9)-1
; #@! TF.FileFunction,Plated,1,2,PTH
FMAT,2
METRIC
T1C0.400
T2C1.000
T3C1.400
T4C2.500
%
G90
G05
T1
X111.252Y-60.452
X111.252Y-62.23
X111.252Y-63.754
X111.252Y-65.024
X112.776Y-60.452
X112.776Y-62.23
X112.776Y-63.754
X112.776Y-65.024
X114.554Y-60.452
X114.554Y-62.23
X114.554Y-63.754
X114.554Y-65.024
X116.04Y-60.465
X116.078Y-62.23
X116.078Y-63.754
X116.078Y-65.024
X121.412Y-22.352
X121.412Y-23.876
X121.412Y-25.4
X121.615Y-62.865
X122.936Y-22.352
X122.936Y-23.876
X122.936Y-25.4
X124.46Y-22.352
X124.46Y-23.876
X124.46Y-25.4
X125.984Y-22.352
X125.984Y-23.876
X125.984Y-25.4
X126.975Y-61.519
X127.508Y-22.352
X127.508Y-23.876
X127.508Y-25.4
X129.032Y-22.352
X129.032Y-23.876
X129.032Y-25.4
X130.556Y-22.352
X130.556Y-23.876
X130.556Y-25.4
X136.652Y-30.861
X136.652Y-35.535
X143.51Y-56.134
X143.51Y-57.404
X143.51Y-58.674
X143.51Y-59.944
X143.51Y-61.468
X143.51Y-62.738
X143.51Y-64.262
X143.51Y-65.532
X145.034Y-56.134
X145.034Y-57.404
X145.034Y-58.674
X145.034Y-59.944
X145.034Y-61.468
X145.034Y-62.738
X145.034Y-64.262
X145.034Y-65.532
X145.288Y-31.75
X145.288Y-32.766
X145.288Y-33.782
X145.288Y-35.052
X146.304Y-56.134
X146.304Y-57.404
X146.304Y-58.674
X146.304Y-59.944
X146.304Y-61.468
X146.304Y-62.738
X146.304Y-64.262
X146.304Y-65.532
X146.812Y-31.75
X146.812Y-32.766
X146.812Y-33.782
X146.812Y-35.052
X147.574Y-56.134
X147.574Y-57.404
X147.574Y-58.674
X148.5Y-73.0
X148.5Y-74.5
X149.098Y-56.134
X149.098Y-57.404
X149.098Y-58.674
X149.86Y-54.102
X150.0Y-71.5
X150.0Y-73.0
X150.0Y-74.5
X151.5Y-71.5
X151.5Y-73.0
X151.5Y-74.5
X153.0Y-71.5
X153.0Y-73.0
X153.0Y-74.5
X154.5Y-71.5
X154.5Y-73.0
X154.5Y-74.5
X154.686Y-55.245
X157.602Y-45.08
X158.137Y-56.657
X163.576Y-48.514
X163.83Y-56.388
X172.212Y-56.388
X172.212Y-57.912
X172.212Y-59.436
X172.212Y-60.96
X172.212Y-62.484
X172.212Y-64.008
X172.212Y-65.532
X172.212Y-67.056
X173.736Y-56.388
X173.736Y-57.912
X173.736Y-59.436
X173.736Y-60.96
X173.736Y-62.484
X173.736Y-64.008
X173.736Y-65.532
X173.736Y-67.056
X174.752Y-21.336
X174.752Y-22.86
X174.752Y-24.384
X174.752Y-25.908
X174.752Y-35.052
X175.26Y-56.388
X175.26Y-57.912
X175.26Y-59.436
X175.26Y-60.96
X175.26Y-62.484
X175.26Y-64.008
X175.26Y-65.532
X175.26Y-67.056
X175.514Y-31.496
X175.514Y-53.657
X176.276Y-21.336
X176.276Y-22.86
X176.276Y-24.384
X176.276Y-25.908
X176.594Y-33.65
X177.292Y-29.845
X177.673Y-32.385
X177.8Y-21.336
X177.8Y-22.86
X177.8Y-24.384
X177.8Y-25.908
X178.46Y-45.847
X178.486Y-44.704
X179.324Y-21.336
X179.324Y-22.86
X179.324Y-24.384
X179.324Y-25.908
X179.908Y-44.704
X179.934Y-45.898
X180.848Y-21.336
X180.848Y-22.86
X180.848Y-24.384
X180.848Y-25.908
X181.102Y-44.704
X181.102Y-45.898
X182.245Y-56.642
X182.372Y-21.336
X182.372Y-24.384
X182.88Y-22.86
X183.42Y-58.642
X184.15Y-28.702
X184.15Y-29.718
X184.404Y-21.336
X185.674Y-27.686
X185.674Y-28.702
X185.674Y-29.718
X185.801Y-68.834
X187.198Y-28.702
X187.198Y-27.686
X187.198Y-29.718
X187.261Y-32.829
X188.722Y-27.686
X188.722Y-29.718
X188.722Y-28.702
X189.103Y-54.673
X192.135Y-68.691
X197.993Y-46.736
X209.804Y-34.036
X210.82Y-58.42
X210.82Y-59.944
X210.82Y-61.468
X210.82Y-62.992
X210.82Y-64.516
X210.82Y-66.04
X212.344Y-58.42
X212.344Y-59.944
X212.344Y-61.468
X212.344Y-62.992
X212.344Y-64.516
X212.344Y-66.04
X213.868Y-58.42
X213.868Y-59.944
X213.868Y-61.468
X213.868Y-62.992
X213.868Y-64.516
X213.868Y-66.04
X215.392Y-58.42
X215.392Y-59.944
X215.392Y-61.468
X215.392Y-62.992
X215.392Y-64.516
X215.392Y-66.04
X216.916Y-58.42
X216.916Y-59.944
X216.916Y-61.468
X216.916Y-62.992
X216.916Y-64.516
X216.916Y-66.04
X217.17Y-50.8
X217.17Y-52.07
X217.297Y-49.53
X218.44Y-49.53
X218.44Y-50.8
X218.44Y-52.07
X218.44Y-58.42
X218.44Y-59.944
X218.44Y-61.468
X218.44Y-62.992
X218.44Y-64.516
X218.44Y-66.04
X219.71Y-49.53
X219.71Y-50.8
X219.71Y-52.07
X219.964Y-58.42
X219.964Y-59.944
X219.964Y-61.468
X219.964Y-62.992
X219.964Y-64.516
X219.964Y-66.04
X220.726Y-49.53
X220.726Y-50.8
X220.726Y-52.07
X221.488Y-58.42
X221.488Y-59.944
X221.488Y-61.468
X221.488Y-62.992
X221.488Y-64.516
X221.488Y-66.04
T2
X113.03Y-43.815
X113.03Y-51.435
X115.57Y-43.815
X115.57Y-51.435
X125.095Y-69.85
X125.095Y-72.39
X127.635Y-69.85
X127.635Y-72.39
X130.175Y-69.85
X130.175Y-72.39
X132.715Y-69.85
X132.715Y-72.39
X135.255Y-69.85
X135.255Y-72.39
X137.795Y-69.85
X137.795Y-72.39
X140.335Y-69.85
X140.335Y-72.39
X198.12Y-66.675
X198.12Y-71.755
X200.66Y-21.844
X200.66Y-24.384
X200.66Y-66.675
X200.66Y-71.755
X203.2Y-21.844
X203.2Y-24.384
X203.2Y-66.675
X203.2Y-71.755
X205.74Y-21.844
X205.74Y-24.384
X205.74Y-66.675
X205.74Y-71.755
X207.01Y-54.61
X209.55Y-54.61
X212.09Y-54.61
X214.63Y-54.61
T3
X121.488Y-28.296
X130.251Y-33.122
X131.343Y-49.759
X158.115Y-29.845
X182.372Y-27.178
T4
X115.57Y-23.495
X115.57Y-71.374
X215.9Y-23.622
X215.9Y-71.12
T0
M30
