%TF.GenerationSoftware,KiCad,Pcbnew,(5.1.9)-1*%
%TF.CreationDate,2021-07-21T07:35:28-05:00*%
%TF.ProjectId,SE_placa,53455f70-6c61-4636-912e-6b696361645f,A*%
%TF.SameCoordinates,Original*%
%TF.FileFunction,Copper,L2,Bot*%
%TF.FilePolarity,Positive*%
%FSLAX46Y46*%
G04 Gerber Fmt 4.6, Leading zero omitted, Abs format (unit mm)*
G04 Created by KiCad (PCBNEW (5.1.9)-1) date 2021-07-21 07:35:28*
%MOMM*%
%LPD*%
G01*
G04 APERTURE LIST*
%TA.AperFunction,ComponentPad*%
%ADD10O,1.700000X1.700000*%
%TD*%
%TA.AperFunction,ComponentPad*%
%ADD11R,1.700000X1.700000*%
%TD*%
%TA.AperFunction,ComponentPad*%
%ADD12C,5.000000*%
%TD*%
%TA.AperFunction,ViaPad*%
%ADD13C,0.800000*%
%TD*%
%TA.AperFunction,ViaPad*%
%ADD14C,1.800000*%
%TD*%
%TA.AperFunction,Conductor*%
%ADD15C,0.300000*%
%TD*%
%TA.AperFunction,Conductor*%
%ADD16C,0.250000*%
%TD*%
%TA.AperFunction,Conductor*%
%ADD17C,1.000000*%
%TD*%
%TA.AperFunction,Conductor*%
%ADD18C,0.400000*%
%TD*%
%TA.AperFunction,Conductor*%
%ADD19C,0.200000*%
%TD*%
%TA.AperFunction,Conductor*%
%ADD20C,0.100000*%
%TD*%
G04 APERTURE END LIST*
D10*
%TO.P,J3,14*%
%TO.N,/IO12*%
X140335000Y-72390000D03*
%TO.P,J3,13*%
%TO.N,/IO25*%
X140335000Y-69850000D03*
%TO.P,J3,12*%
%TO.N,/IO33*%
X137795000Y-72390000D03*
%TO.P,J3,11*%
%TO.N,/IO32*%
X137795000Y-69850000D03*
%TO.P,J3,10*%
%TO.N,GND*%
X135255000Y-72390000D03*
%TO.P,J3,9*%
%TO.N,/I35*%
X135255000Y-69850000D03*
%TO.P,J3,8*%
%TO.N,GND*%
X132715000Y-72390000D03*
%TO.P,J3,7*%
%TO.N,/I34*%
X132715000Y-69850000D03*
%TO.P,J3,6*%
%TO.N,GND*%
X130175000Y-72390000D03*
%TO.P,J3,5*%
%TO.N,/I39*%
X130175000Y-69850000D03*
%TO.P,J3,4*%
%TO.N,+3V3*%
X127635000Y-72390000D03*
%TO.P,J3,3*%
%TO.N,/I36*%
X127635000Y-69850000D03*
%TO.P,J3,2*%
%TO.N,+3V3*%
X125095000Y-72390000D03*
D11*
%TO.P,J3,1*%
X125095000Y-69850000D03*
%TD*%
D10*
%TO.P,J6,6*%
%TO.N,GND*%
X200660000Y-21844000D03*
%TO.P,J6,5*%
%TO.N,/L-DIO2*%
X200660000Y-24384000D03*
%TO.P,J6,4*%
%TO.N,GND*%
X203200000Y-21844000D03*
%TO.P,J6,3*%
%TO.N,/L-DIO1*%
X203200000Y-24384000D03*
%TO.P,J6,2*%
%TO.N,+3V3*%
X205740000Y-21844000D03*
D11*
%TO.P,J6,1*%
X205740000Y-24384000D03*
%TD*%
D10*
%TO.P,J4,4*%
%TO.N,+3V3*%
X205740000Y-66675000D03*
%TO.P,J4,3*%
%TO.N,GND*%
X203200000Y-66675000D03*
%TO.P,J4,2*%
%TO.N,/I2C-SCL*%
X200660000Y-66675000D03*
D11*
%TO.P,J4,1*%
%TO.N,/I2C-SDA*%
X198120000Y-66675000D03*
%TD*%
D10*
%TO.P,J8,4*%
%TO.N,GND*%
X214630000Y-54610000D03*
%TO.P,J8,3*%
%TO.N,/RXD0*%
X212090000Y-54610000D03*
%TO.P,J8,2*%
%TO.N,/TXD0*%
X209550000Y-54610000D03*
D11*
%TO.P,J8,1*%
%TO.N,+3V3*%
X207010000Y-54610000D03*
%TD*%
%TO.P,J1,1*%
%TO.N,+5V*%
X113030000Y-51435000D03*
D10*
%TO.P,J1,2*%
%TO.N,GND*%
X115570000Y-51435000D03*
%TD*%
D11*
%TO.P,J5,1*%
%TO.N,/I2C-SDA*%
X198120000Y-71755000D03*
D10*
%TO.P,J5,2*%
%TO.N,/I2C-SCL*%
X200660000Y-71755000D03*
%TO.P,J5,3*%
%TO.N,GND*%
X203200000Y-71755000D03*
%TO.P,J5,4*%
%TO.N,+3V3*%
X205740000Y-71755000D03*
%TD*%
%TO.P,J9,2*%
%TO.N,/cargador_regulador/BAT+*%
X113030000Y-43815000D03*
D11*
%TO.P,J9,1*%
%TO.N,GND*%
X115570000Y-43815000D03*
%TD*%
D12*
%TO.P,H1,1*%
%TO.N,N/C*%
X115570000Y-23495000D03*
%TD*%
%TO.P,H2,1*%
%TO.N,N/C*%
X215900000Y-23622000D03*
%TD*%
%TO.P,H3,1*%
%TO.N,N/C*%
X115570000Y-71374000D03*
%TD*%
%TO.P,H4,1*%
%TO.N,N/C*%
X215900000Y-71120000D03*
%TD*%
D13*
%TO.N,GND*%
X146812000Y-31750000D03*
X146812000Y-32766000D03*
X146812000Y-33782000D03*
X146812000Y-35052000D03*
X145288000Y-35052000D03*
X145288000Y-33782000D03*
X145288000Y-32766000D03*
X145288000Y-31750000D03*
X188722000Y-29718000D03*
X188722004Y-28702000D03*
X188722000Y-27686000D03*
X187197994Y-28702000D03*
X187198008Y-29718000D03*
X185674000Y-28702000D03*
X185674000Y-29718000D03*
X184150000Y-28702000D03*
X184150000Y-29718006D03*
X185674000Y-27686000D03*
X187198000Y-27686000D03*
X218440000Y-49530000D03*
X219710000Y-49530000D03*
X220726000Y-49530000D03*
X220726000Y-50800000D03*
X219710000Y-50800000D03*
X218440000Y-50800000D03*
X217170000Y-50800000D03*
X217170000Y-52070000D03*
X218440000Y-52070000D03*
X219710000Y-52070000D03*
X220726000Y-52070000D03*
X217297000Y-49530000D03*
X146304000Y-65532000D03*
X145034000Y-65532000D03*
X143510000Y-65532000D03*
X143510000Y-64262000D03*
X145034000Y-64262000D03*
X146304000Y-64262000D03*
X146304000Y-62738000D03*
X145034000Y-62738000D03*
X143510000Y-62738000D03*
X143510000Y-61468000D03*
X145034000Y-61468000D03*
X146304000Y-61468000D03*
X116078000Y-65024000D03*
X114554000Y-65024000D03*
X112776000Y-65024000D03*
X111252000Y-65024000D03*
X111252000Y-63754000D03*
X112776000Y-63754000D03*
X114554000Y-63754000D03*
X116078000Y-63754000D03*
X116078000Y-62230000D03*
X114554000Y-62230000D03*
X112776000Y-62230000D03*
X111252000Y-62230000D03*
X111252000Y-60452000D03*
X112776000Y-60452000D03*
X114554000Y-60452000D03*
X181102000Y-44704000D03*
X116039900Y-60464700D03*
X178485802Y-44704000D03*
X179908199Y-44704000D03*
X178460400Y-45847000D03*
X179933600Y-45897800D03*
X181102000Y-45897800D03*
X154500000Y-74500000D03*
X153000000Y-74500000D03*
X151500000Y-74500000D03*
X150000000Y-74500000D03*
X148500000Y-74500000D03*
X148500000Y-73000000D03*
X150000000Y-73000000D03*
X151500000Y-73000000D03*
X153000000Y-73000000D03*
X154500000Y-73000000D03*
X154500000Y-71500000D03*
X153000000Y-71500000D03*
X151500000Y-71500000D03*
X150000000Y-71500000D03*
X146304000Y-59944000D03*
X145034000Y-59944000D03*
X143510000Y-59944000D03*
X143510000Y-58674000D03*
X145034000Y-58674000D03*
X146304000Y-58674000D03*
X147574000Y-58674000D03*
X149098000Y-58674000D03*
X149098000Y-57404000D03*
X147574000Y-57404000D03*
X146304000Y-57404000D03*
X145034000Y-57404000D03*
X143510000Y-57404000D03*
X143510000Y-56134000D03*
X145034000Y-56134000D03*
X146304000Y-56134000D03*
X149098000Y-56134000D03*
X147574000Y-56134000D03*
X210820000Y-58420000D03*
X212344000Y-58420000D03*
X213868000Y-58420000D03*
X215392000Y-58420000D03*
X216916000Y-58420000D03*
X218440000Y-58420000D03*
X219964000Y-58420000D03*
X221488000Y-58420000D03*
X221488000Y-59944000D03*
X219964000Y-59944000D03*
X218440000Y-59944000D03*
X216916000Y-59944000D03*
X215392000Y-59944000D03*
X213868000Y-59944000D03*
X212344000Y-59944000D03*
X210820000Y-59944000D03*
X210820000Y-61468000D03*
X212344000Y-61468000D03*
X213868000Y-61468000D03*
X215392000Y-61468000D03*
X216916000Y-61468000D03*
X218440000Y-61468000D03*
X219964000Y-61468000D03*
X221488000Y-61468000D03*
X221488000Y-62992000D03*
X219964000Y-62992000D03*
X218440000Y-62992000D03*
X216916000Y-62992000D03*
X215392000Y-62992000D03*
X213868000Y-62992000D03*
X212344000Y-62992000D03*
X210820000Y-62992000D03*
X210820000Y-64516000D03*
X212344000Y-64516000D03*
X213868000Y-64516000D03*
X215392000Y-64516000D03*
X216916000Y-64516000D03*
X218440000Y-64516000D03*
X219964000Y-64516000D03*
X221488000Y-64516000D03*
X221488000Y-66040000D03*
X219964000Y-66040000D03*
X218440000Y-66040000D03*
X216916000Y-66040000D03*
X215392000Y-66040000D03*
X213868000Y-66040000D03*
X212344000Y-66040000D03*
X210820000Y-66040000D03*
X174752000Y-25908000D03*
X176276000Y-25908000D03*
X177800000Y-25908000D03*
X179324000Y-25908000D03*
X180848000Y-25908000D03*
X182372000Y-24384000D03*
X180848000Y-24384000D03*
X179324000Y-24384000D03*
X177800000Y-24384000D03*
X176276000Y-24384000D03*
X174752000Y-24384000D03*
X174752000Y-22860000D03*
X176276000Y-22860000D03*
X177800000Y-22860000D03*
X179324000Y-22860000D03*
X180848000Y-22860000D03*
X182880000Y-22860000D03*
X184404000Y-21336000D03*
X182372000Y-21336000D03*
X180848000Y-21336000D03*
X179324000Y-21336000D03*
X177800000Y-21336000D03*
X176276000Y-21336000D03*
X174752000Y-21336000D03*
X172212000Y-57912000D03*
X173736000Y-57912000D03*
X175260000Y-57912000D03*
X175260000Y-56388000D03*
X173736000Y-56388000D03*
X172212000Y-56388000D03*
X175260000Y-67056000D03*
X172212000Y-60960000D03*
X173736000Y-60960000D03*
X173736000Y-67056000D03*
X172212000Y-65532000D03*
X175260000Y-65532000D03*
X173736000Y-65532000D03*
X172212000Y-67056000D03*
X175260000Y-64008000D03*
X175260000Y-59436000D03*
X172212000Y-59436000D03*
X173736000Y-62484000D03*
X175260000Y-62484000D03*
X173736000Y-64008000D03*
X172212000Y-62484000D03*
X172212000Y-64008000D03*
X175260000Y-60960000D03*
X173736000Y-59436000D03*
X130556000Y-22352000D03*
X129032000Y-22352000D03*
X127508000Y-22352000D03*
X125984000Y-22352000D03*
X124460000Y-22352000D03*
X122936000Y-22352000D03*
X121412000Y-22352000D03*
X121412000Y-23876000D03*
X122936000Y-23876000D03*
X124460000Y-23876000D03*
X125984000Y-23876000D03*
X127508000Y-23876000D03*
X129032000Y-23876000D03*
X130556000Y-23876000D03*
X130556000Y-25400000D03*
X129032000Y-25400000D03*
X127508000Y-25400000D03*
X125984000Y-25400000D03*
X124460000Y-25400000D03*
X122936000Y-25400000D03*
X121412000Y-25400000D03*
D14*
%TO.N,+3V3*%
X158115000Y-29845000D03*
X182372000Y-27178000D03*
X131343400Y-49758600D03*
D13*
%TO.N,/SPI2-MISO*%
X158136527Y-56657010D03*
X157601990Y-45080000D03*
%TO.N,/SPI2-SCK*%
X149860000Y-54102000D03*
X154686010Y-55245000D03*
%TO.N,/SPI2-MOSI*%
X163575994Y-48514000D03*
X163830006Y-56388000D03*
%TO.N,/RXD0*%
X176593500Y-33650000D03*
%TO.N,/TXD0*%
X177673000Y-32385000D03*
%TO.N,/I2C-SCL*%
X175514000Y-31496000D03*
%TO.N,/I2C-SDA*%
X174752002Y-35052000D03*
%TO.N,Net-(Q1-Pad3)*%
X185801000Y-68834000D03*
X183420005Y-58641987D03*
%TO.N,Net-(Q2-Pad3)*%
X192135000Y-68691000D03*
X182245000Y-56642000D03*
%TO.N,Net-(U1-Pad37)*%
X177292002Y-29845000D03*
X187261500Y-32829500D03*
%TO.N,Net-(U1-Pad23)*%
X189103000Y-54673500D03*
X175514000Y-53657500D03*
X197993000Y-46736000D03*
X209804004Y-34036000D03*
%TO.N,Net-(C9-Pad1)*%
X121615200Y-62865000D03*
X126974600Y-61518800D03*
D14*
%TO.N,/cargador_regulador/BAT+*%
X130251200Y-33121600D03*
X121488200Y-28295600D03*
D13*
%TO.N,/cargador_regulador/FB*%
X136652000Y-30861000D03*
X136652000Y-35534600D03*
%TD*%
D15*
%TO.N,GND*%
X146812000Y-31750000D02*
X146812000Y-32766000D01*
X146812000Y-34544000D02*
X146812000Y-35052000D01*
X146812000Y-33782000D02*
X146812000Y-34544000D01*
X145288000Y-35052000D02*
X145288000Y-33782000D01*
X145288000Y-32766000D02*
X145288000Y-31750000D01*
X186944000Y-27686000D02*
X186944000Y-27686000D01*
X188722004Y-28702000D02*
X187197994Y-28702000D01*
X188722000Y-29718000D02*
X187198008Y-29718000D01*
X185674000Y-28702000D02*
X184150000Y-28702000D01*
X185674000Y-29718000D02*
X184150006Y-29718000D01*
X184150006Y-29718000D02*
X184150000Y-29718006D01*
X188722000Y-27686000D02*
X187198000Y-27686000D01*
X219710000Y-49530000D02*
X220726000Y-49530000D01*
X220726000Y-50800000D02*
X219710000Y-50800000D01*
X218440000Y-50800000D02*
X217170000Y-50800000D01*
X217170000Y-52070000D02*
X218440000Y-52070000D01*
X219710000Y-52070000D02*
X220726000Y-52070000D01*
X218440000Y-49530000D02*
X217297000Y-49530000D01*
X146304000Y-65532000D02*
X145034000Y-65532000D01*
X143510000Y-65532000D02*
X143510000Y-64262000D01*
X145034000Y-64262000D02*
X146304000Y-64262000D01*
X146304000Y-62738000D02*
X145034000Y-62738000D01*
X143510000Y-62738000D02*
X143510000Y-61468000D01*
X145034000Y-61468000D02*
X146304000Y-61468000D01*
X116078000Y-65024000D02*
X114554000Y-65024000D01*
X112776000Y-65024000D02*
X111252000Y-65024000D01*
X111252000Y-63754000D02*
X112776000Y-63754000D01*
X114554000Y-63754000D02*
X116078000Y-63754000D01*
X116078000Y-62230000D02*
X114554000Y-62230000D01*
X112776000Y-62230000D02*
X111252000Y-62230000D01*
X111252000Y-60452000D02*
X112776000Y-60452000D01*
X114554000Y-60452000D02*
X116027200Y-60452000D01*
X116027200Y-60452000D02*
X116039900Y-60464700D01*
X181102000Y-44704000D02*
X179908199Y-44704000D01*
X178485802Y-45821598D02*
X178460400Y-45847000D01*
X178485802Y-44704000D02*
X178485802Y-45821598D01*
X179933600Y-45897800D02*
X181102000Y-45897800D01*
D16*
X153000000Y-74500000D02*
X151500000Y-74500000D01*
X150000000Y-74500000D02*
X148500000Y-74500000D01*
X148500000Y-73000000D02*
X150000000Y-73000000D01*
X151500000Y-73000000D02*
X153000000Y-73000000D01*
X154500000Y-73000000D02*
X154500000Y-71500000D01*
X153000000Y-71500000D02*
X151500000Y-71500000D01*
X146304000Y-59944000D02*
X145034000Y-59944000D01*
X143510000Y-59944000D02*
X143510000Y-58674000D01*
X145034000Y-58674000D02*
X146304000Y-58674000D01*
X147574000Y-58674000D02*
X149098000Y-58674000D01*
X149098000Y-57404000D02*
X147574000Y-57404000D01*
X146304000Y-57404000D02*
X145034000Y-57404000D01*
X143510000Y-57404000D02*
X143510000Y-56134000D01*
X145034000Y-56134000D02*
X146304000Y-56134000D01*
X149098000Y-56134000D02*
X147574000Y-56134000D01*
D15*
X214630000Y-54610000D02*
X210820000Y-58420000D01*
X212344000Y-58420000D02*
X213868000Y-58420000D01*
X215392000Y-58420000D02*
X216916000Y-58420000D01*
X218440000Y-58420000D02*
X219964000Y-58420000D01*
X221488000Y-58420000D02*
X221488000Y-59944000D01*
X219964000Y-59944000D02*
X218440000Y-59944000D01*
X216916000Y-59944000D02*
X215392000Y-59944000D01*
X213868000Y-59944000D02*
X212344000Y-59944000D01*
X210820000Y-59944000D02*
X210820000Y-61468000D01*
X212344000Y-61468000D02*
X213868000Y-61468000D01*
X215392000Y-61468000D02*
X216916000Y-61468000D01*
X218440000Y-61468000D02*
X219964000Y-61468000D01*
X221488000Y-61468000D02*
X221488000Y-62992000D01*
X219964000Y-62992000D02*
X218440000Y-62992000D01*
X216916000Y-62992000D02*
X215392000Y-62992000D01*
X213868000Y-62992000D02*
X212344000Y-62992000D01*
X210820000Y-62992000D02*
X210820000Y-64516000D01*
X212344000Y-64516000D02*
X213868000Y-64516000D01*
X215392000Y-64516000D02*
X216916000Y-64516000D01*
X218440000Y-64516000D02*
X219964000Y-64516000D01*
X221488000Y-64516000D02*
X221488000Y-66040000D01*
X219964000Y-66040000D02*
X218440000Y-66040000D01*
X216916000Y-66040000D02*
X215392000Y-66040000D01*
X213868000Y-66040000D02*
X212344000Y-66040000D01*
X174752000Y-25908000D02*
X176276000Y-25908000D01*
X177800000Y-25908000D02*
X179324000Y-25908000D01*
X180848000Y-25908000D02*
X182372000Y-24384000D01*
X180848000Y-24384000D02*
X179324000Y-24384000D01*
X177800000Y-24384000D02*
X176276000Y-24384000D01*
X174752000Y-24384000D02*
X174752000Y-22860000D01*
X176276000Y-22860000D02*
X177800000Y-22860000D01*
X179324000Y-22860000D02*
X180848000Y-22860000D01*
X182880000Y-22860000D02*
X184404000Y-21336000D01*
X182372000Y-21336000D02*
X180848000Y-21336000D01*
X179324000Y-21336000D02*
X177800000Y-21336000D01*
X176276000Y-21336000D02*
X174752000Y-21336000D01*
X175260000Y-67056000D02*
X173736000Y-67056000D01*
X172212000Y-67056000D02*
X172212000Y-65532000D01*
X173736000Y-65532000D02*
X175260000Y-65532000D01*
X175260000Y-64008000D02*
X173736000Y-64008000D01*
X173736000Y-62484000D02*
X175260000Y-62484000D01*
X172212000Y-64008000D02*
X172212000Y-62484000D01*
X175260000Y-60960000D02*
X173736000Y-60960000D01*
X172212000Y-60960000D02*
X172212000Y-59436000D01*
X173736000Y-59436000D02*
X175260000Y-59436000D01*
X175260000Y-57912000D02*
X173736000Y-57912000D01*
X172212000Y-57912000D02*
X172212000Y-56388000D01*
X173736000Y-56388000D02*
X175260000Y-56388000D01*
X130556000Y-22352000D02*
X129032000Y-22352000D01*
X127508000Y-22352000D02*
X125984000Y-22352000D01*
X124460000Y-22352000D02*
X122936000Y-22352000D01*
X121412000Y-22352000D02*
X121412000Y-23876000D01*
X122936000Y-23876000D02*
X124460000Y-23876000D01*
X125984000Y-23876000D02*
X127508000Y-23876000D01*
X129032000Y-23876000D02*
X130556000Y-23876000D01*
X130556000Y-25400000D02*
X129032000Y-25400000D01*
X127508000Y-25400000D02*
X125984000Y-25400000D01*
X124460000Y-25400000D02*
X122936000Y-25400000D01*
D17*
%TO.N,+3V3*%
X158115000Y-29845000D02*
X158115000Y-29845000D01*
X158115000Y-29845000D02*
X159327850Y-28632150D01*
X181102000Y-28448000D02*
X182372000Y-27178000D01*
X159575500Y-28448000D02*
X181102000Y-28448000D01*
X159448500Y-28575000D02*
X159575500Y-28448000D01*
X125095000Y-68707000D02*
X125095000Y-69850000D01*
X129540000Y-64262000D02*
X125095000Y-68707000D01*
X129540000Y-51562000D02*
X129540000Y-64262000D01*
X131343400Y-49758600D02*
X129540000Y-51562000D01*
D18*
%TO.N,/SPI2-MISO*%
X158115000Y-56635483D02*
X158136527Y-56657010D01*
D15*
X158115000Y-45593000D02*
X158115000Y-56635483D01*
X157601995Y-45079995D02*
X158115000Y-45593000D01*
%TO.N,/SPI2-SCK*%
X151003000Y-55245000D02*
X149860000Y-54102000D01*
X154686010Y-55245000D02*
X151003000Y-55245000D01*
%TO.N,/SPI2-MOSI*%
X163576000Y-48514000D02*
X163575994Y-48514000D01*
X163575994Y-48514000D02*
X163575994Y-56133988D01*
D18*
X163575994Y-56133988D02*
X163830006Y-56388000D01*
D15*
%TO.N,/RXD0*%
X177194250Y-33650000D02*
X176593500Y-33650000D01*
X201075250Y-57531000D02*
X177194250Y-33650000D01*
X209169000Y-57531000D02*
X201075250Y-57531000D01*
X212090000Y-54610000D02*
X209169000Y-57531000D01*
%TO.N,/TXD0*%
X208299999Y-55860001D02*
X201148001Y-55860001D01*
X209550000Y-54610000D02*
X208299999Y-55860001D01*
X201148001Y-55860001D02*
X177673000Y-32385000D01*
%TO.N,/I2C-SCL*%
X200660000Y-59182000D02*
X175514000Y-34036000D01*
X200660000Y-66675000D02*
X200660000Y-59182000D01*
X175514000Y-34036000D02*
X175514000Y-31496000D01*
%TO.N,/I2C-SDA*%
X198120000Y-66675000D02*
X198120000Y-58419998D01*
X198120000Y-58419998D02*
X174752002Y-35052000D01*
%TO.N,Net-(Q1-Pad3)*%
X185801000Y-68834000D02*
X183420005Y-66453005D01*
X183420005Y-66453005D02*
X183420005Y-58641987D01*
%TO.N,Net-(Q2-Pad3)*%
X192135000Y-68691000D02*
X192135000Y-58912000D01*
X192135000Y-58912000D02*
X189865000Y-56642000D01*
X189865000Y-56642000D02*
X182245000Y-56642000D01*
%TO.N,Net-(U1-Pad37)*%
X180276502Y-32829500D02*
X187261500Y-32829500D01*
X177292002Y-29845000D02*
X180276502Y-32829500D01*
%TO.N,Net-(U1-Pad23)*%
X189103000Y-54673500D02*
X176530000Y-54673500D01*
X176530000Y-54673500D02*
X175514000Y-53657500D01*
D18*
X197993000Y-46735987D02*
X197993000Y-46736000D01*
D15*
X209804004Y-34924983D02*
X209804004Y-34036000D01*
X197993000Y-46735987D02*
X209804004Y-34924983D01*
%TO.N,Net-(C9-Pad1)*%
X122402600Y-62077600D02*
X121615200Y-62865000D01*
X126415800Y-62077600D02*
X122402600Y-62077600D01*
X126974600Y-61518800D02*
X126415800Y-62077600D01*
D17*
%TO.N,/cargador_regulador/BAT+*%
X130149785Y-33020185D02*
X130251200Y-33121600D01*
X118617815Y-33020185D02*
X130149785Y-33020185D01*
X113030000Y-38608000D02*
X118617815Y-33020185D01*
X113030000Y-43815000D02*
X113030000Y-38608000D01*
X125425200Y-28295600D02*
X121488200Y-28295600D01*
X130251200Y-33121600D02*
X125425200Y-28295600D01*
D15*
%TO.N,/cargador_regulador/FB*%
X136652000Y-30861000D02*
X136652000Y-35534600D01*
%TD*%
D19*
%TO.N,GND*%
X222560000Y-75875000D02*
X108910000Y-75875000D01*
X108910000Y-71098224D01*
X112770000Y-71098224D01*
X112770000Y-71649776D01*
X112877602Y-72190730D01*
X113088672Y-72700297D01*
X113395098Y-73158896D01*
X113785104Y-73548902D01*
X114243703Y-73855328D01*
X114753270Y-74066398D01*
X115294224Y-74174000D01*
X115845776Y-74174000D01*
X116386730Y-74066398D01*
X116896297Y-73855328D01*
X117354896Y-73548902D01*
X117744902Y-73158896D01*
X118051328Y-72700297D01*
X118226773Y-72276735D01*
X123945000Y-72276735D01*
X123945000Y-72503265D01*
X123989194Y-72725443D01*
X124075884Y-72934729D01*
X124201737Y-73123082D01*
X124361918Y-73283263D01*
X124550271Y-73409116D01*
X124759557Y-73495806D01*
X124981735Y-73540000D01*
X125208265Y-73540000D01*
X125430443Y-73495806D01*
X125639729Y-73409116D01*
X125828082Y-73283263D01*
X125988263Y-73123082D01*
X126114116Y-72934729D01*
X126200806Y-72725443D01*
X126245000Y-72503265D01*
X126245000Y-72276735D01*
X126485000Y-72276735D01*
X126485000Y-72503265D01*
X126529194Y-72725443D01*
X126615884Y-72934729D01*
X126741737Y-73123082D01*
X126901918Y-73283263D01*
X127090271Y-73409116D01*
X127299557Y-73495806D01*
X127521735Y-73540000D01*
X127748265Y-73540000D01*
X127970443Y-73495806D01*
X128179729Y-73409116D01*
X128368082Y-73283263D01*
X128528263Y-73123082D01*
X128654116Y-72934729D01*
X128740806Y-72725443D01*
X128785000Y-72503265D01*
X128785000Y-72276735D01*
X136645000Y-72276735D01*
X136645000Y-72503265D01*
X136689194Y-72725443D01*
X136775884Y-72934729D01*
X136901737Y-73123082D01*
X137061918Y-73283263D01*
X137250271Y-73409116D01*
X137459557Y-73495806D01*
X137681735Y-73540000D01*
X137908265Y-73540000D01*
X138130443Y-73495806D01*
X138339729Y-73409116D01*
X138528082Y-73283263D01*
X138688263Y-73123082D01*
X138814116Y-72934729D01*
X138900806Y-72725443D01*
X138945000Y-72503265D01*
X138945000Y-72276735D01*
X139185000Y-72276735D01*
X139185000Y-72503265D01*
X139229194Y-72725443D01*
X139315884Y-72934729D01*
X139441737Y-73123082D01*
X139601918Y-73283263D01*
X139790271Y-73409116D01*
X139999557Y-73495806D01*
X140221735Y-73540000D01*
X140448265Y-73540000D01*
X140670443Y-73495806D01*
X140879729Y-73409116D01*
X141068082Y-73283263D01*
X141228263Y-73123082D01*
X141354116Y-72934729D01*
X141440806Y-72725443D01*
X141485000Y-72503265D01*
X141485000Y-72276735D01*
X141440806Y-72054557D01*
X141354116Y-71845271D01*
X141228263Y-71656918D01*
X141068082Y-71496737D01*
X140879729Y-71370884D01*
X140670443Y-71284194D01*
X140448265Y-71240000D01*
X140221735Y-71240000D01*
X139999557Y-71284194D01*
X139790271Y-71370884D01*
X139601918Y-71496737D01*
X139441737Y-71656918D01*
X139315884Y-71845271D01*
X139229194Y-72054557D01*
X139185000Y-72276735D01*
X138945000Y-72276735D01*
X138900806Y-72054557D01*
X138814116Y-71845271D01*
X138688263Y-71656918D01*
X138528082Y-71496737D01*
X138339729Y-71370884D01*
X138130443Y-71284194D01*
X137908265Y-71240000D01*
X137681735Y-71240000D01*
X137459557Y-71284194D01*
X137250271Y-71370884D01*
X137061918Y-71496737D01*
X136901737Y-71656918D01*
X136775884Y-71845271D01*
X136689194Y-72054557D01*
X136645000Y-72276735D01*
X128785000Y-72276735D01*
X128740806Y-72054557D01*
X128654116Y-71845271D01*
X128528263Y-71656918D01*
X128368082Y-71496737D01*
X128179729Y-71370884D01*
X127970443Y-71284194D01*
X127748265Y-71240000D01*
X127521735Y-71240000D01*
X127299557Y-71284194D01*
X127090271Y-71370884D01*
X126901918Y-71496737D01*
X126741737Y-71656918D01*
X126615884Y-71845271D01*
X126529194Y-72054557D01*
X126485000Y-72276735D01*
X126245000Y-72276735D01*
X126200806Y-72054557D01*
X126114116Y-71845271D01*
X125988263Y-71656918D01*
X125828082Y-71496737D01*
X125639729Y-71370884D01*
X125430443Y-71284194D01*
X125208265Y-71240000D01*
X124981735Y-71240000D01*
X124759557Y-71284194D01*
X124550271Y-71370884D01*
X124361918Y-71496737D01*
X124201737Y-71656918D01*
X124075884Y-71845271D01*
X123989194Y-72054557D01*
X123945000Y-72276735D01*
X118226773Y-72276735D01*
X118262398Y-72190730D01*
X118370000Y-71649776D01*
X118370000Y-71098224D01*
X118262398Y-70557270D01*
X118051328Y-70047703D01*
X117744902Y-69589104D01*
X117354896Y-69199098D01*
X117056925Y-69000000D01*
X123943549Y-69000000D01*
X123943549Y-70700000D01*
X123949341Y-70758810D01*
X123966496Y-70815360D01*
X123994353Y-70867477D01*
X124031842Y-70913158D01*
X124077523Y-70950647D01*
X124129640Y-70978504D01*
X124186190Y-70995659D01*
X124245000Y-71001451D01*
X125945000Y-71001451D01*
X126003810Y-70995659D01*
X126060360Y-70978504D01*
X126112477Y-70950647D01*
X126158158Y-70913158D01*
X126195647Y-70867477D01*
X126223504Y-70815360D01*
X126240659Y-70758810D01*
X126246451Y-70700000D01*
X126246451Y-69736735D01*
X126485000Y-69736735D01*
X126485000Y-69963265D01*
X126529194Y-70185443D01*
X126615884Y-70394729D01*
X126741737Y-70583082D01*
X126901918Y-70743263D01*
X127090271Y-70869116D01*
X127299557Y-70955806D01*
X127521735Y-71000000D01*
X127748265Y-71000000D01*
X127970443Y-70955806D01*
X128179729Y-70869116D01*
X128368082Y-70743263D01*
X128528263Y-70583082D01*
X128654116Y-70394729D01*
X128740806Y-70185443D01*
X128785000Y-69963265D01*
X128785000Y-69736735D01*
X129025000Y-69736735D01*
X129025000Y-69963265D01*
X129069194Y-70185443D01*
X129155884Y-70394729D01*
X129281737Y-70583082D01*
X129441918Y-70743263D01*
X129630271Y-70869116D01*
X129839557Y-70955806D01*
X130061735Y-71000000D01*
X130288265Y-71000000D01*
X130510443Y-70955806D01*
X130719729Y-70869116D01*
X130908082Y-70743263D01*
X131068263Y-70583082D01*
X131194116Y-70394729D01*
X131280806Y-70185443D01*
X131325000Y-69963265D01*
X131325000Y-69736735D01*
X131565000Y-69736735D01*
X131565000Y-69963265D01*
X131609194Y-70185443D01*
X131695884Y-70394729D01*
X131821737Y-70583082D01*
X131981918Y-70743263D01*
X132170271Y-70869116D01*
X132379557Y-70955806D01*
X132601735Y-71000000D01*
X132828265Y-71000000D01*
X133050443Y-70955806D01*
X133259729Y-70869116D01*
X133448082Y-70743263D01*
X133608263Y-70583082D01*
X133734116Y-70394729D01*
X133820806Y-70185443D01*
X133865000Y-69963265D01*
X133865000Y-69736735D01*
X134105000Y-69736735D01*
X134105000Y-69963265D01*
X134149194Y-70185443D01*
X134235884Y-70394729D01*
X134361737Y-70583082D01*
X134521918Y-70743263D01*
X134710271Y-70869116D01*
X134919557Y-70955806D01*
X135141735Y-71000000D01*
X135368265Y-71000000D01*
X135590443Y-70955806D01*
X135799729Y-70869116D01*
X135988082Y-70743263D01*
X136148263Y-70583082D01*
X136274116Y-70394729D01*
X136360806Y-70185443D01*
X136405000Y-69963265D01*
X136405000Y-69736735D01*
X136645000Y-69736735D01*
X136645000Y-69963265D01*
X136689194Y-70185443D01*
X136775884Y-70394729D01*
X136901737Y-70583082D01*
X137061918Y-70743263D01*
X137250271Y-70869116D01*
X137459557Y-70955806D01*
X137681735Y-71000000D01*
X137908265Y-71000000D01*
X138130443Y-70955806D01*
X138339729Y-70869116D01*
X138528082Y-70743263D01*
X138688263Y-70583082D01*
X138814116Y-70394729D01*
X138900806Y-70185443D01*
X138945000Y-69963265D01*
X138945000Y-69736735D01*
X139185000Y-69736735D01*
X139185000Y-69963265D01*
X139229194Y-70185443D01*
X139315884Y-70394729D01*
X139441737Y-70583082D01*
X139601918Y-70743263D01*
X139790271Y-70869116D01*
X139999557Y-70955806D01*
X140221735Y-71000000D01*
X140448265Y-71000000D01*
X140670443Y-70955806D01*
X140793098Y-70905000D01*
X196968549Y-70905000D01*
X196968549Y-72605000D01*
X196974341Y-72663810D01*
X196991496Y-72720360D01*
X197019353Y-72772477D01*
X197056842Y-72818158D01*
X197102523Y-72855647D01*
X197154640Y-72883504D01*
X197211190Y-72900659D01*
X197270000Y-72906451D01*
X198970000Y-72906451D01*
X199028810Y-72900659D01*
X199085360Y-72883504D01*
X199137477Y-72855647D01*
X199183158Y-72818158D01*
X199220647Y-72772477D01*
X199248504Y-72720360D01*
X199265659Y-72663810D01*
X199271451Y-72605000D01*
X199271451Y-71641735D01*
X199510000Y-71641735D01*
X199510000Y-71868265D01*
X199554194Y-72090443D01*
X199640884Y-72299729D01*
X199766737Y-72488082D01*
X199926918Y-72648263D01*
X200115271Y-72774116D01*
X200324557Y-72860806D01*
X200546735Y-72905000D01*
X200773265Y-72905000D01*
X200995443Y-72860806D01*
X201204729Y-72774116D01*
X201393082Y-72648263D01*
X201553263Y-72488082D01*
X201679116Y-72299729D01*
X201765806Y-72090443D01*
X201810000Y-71868265D01*
X201810000Y-71641735D01*
X204590000Y-71641735D01*
X204590000Y-71868265D01*
X204634194Y-72090443D01*
X204720884Y-72299729D01*
X204846737Y-72488082D01*
X205006918Y-72648263D01*
X205195271Y-72774116D01*
X205404557Y-72860806D01*
X205626735Y-72905000D01*
X205853265Y-72905000D01*
X206075443Y-72860806D01*
X206284729Y-72774116D01*
X206473082Y-72648263D01*
X206633263Y-72488082D01*
X206759116Y-72299729D01*
X206845806Y-72090443D01*
X206890000Y-71868265D01*
X206890000Y-71641735D01*
X206845806Y-71419557D01*
X206759116Y-71210271D01*
X206633263Y-71021918D01*
X206473082Y-70861737D01*
X206446872Y-70844224D01*
X213100000Y-70844224D01*
X213100000Y-71395776D01*
X213207602Y-71936730D01*
X213418672Y-72446297D01*
X213725098Y-72904896D01*
X214115104Y-73294902D01*
X214573703Y-73601328D01*
X215083270Y-73812398D01*
X215624224Y-73920000D01*
X216175776Y-73920000D01*
X216716730Y-73812398D01*
X217226297Y-73601328D01*
X217684896Y-73294902D01*
X218074902Y-72904896D01*
X218381328Y-72446297D01*
X218592398Y-71936730D01*
X218700000Y-71395776D01*
X218700000Y-70844224D01*
X218592398Y-70303270D01*
X218381328Y-69793703D01*
X218074902Y-69335104D01*
X217684896Y-68945098D01*
X217226297Y-68638672D01*
X216716730Y-68427602D01*
X216175776Y-68320000D01*
X215624224Y-68320000D01*
X215083270Y-68427602D01*
X214573703Y-68638672D01*
X214115104Y-68945098D01*
X213725098Y-69335104D01*
X213418672Y-69793703D01*
X213207602Y-70303270D01*
X213100000Y-70844224D01*
X206446872Y-70844224D01*
X206284729Y-70735884D01*
X206075443Y-70649194D01*
X205853265Y-70605000D01*
X205626735Y-70605000D01*
X205404557Y-70649194D01*
X205195271Y-70735884D01*
X205006918Y-70861737D01*
X204846737Y-71021918D01*
X204720884Y-71210271D01*
X204634194Y-71419557D01*
X204590000Y-71641735D01*
X201810000Y-71641735D01*
X201765806Y-71419557D01*
X201679116Y-71210271D01*
X201553263Y-71021918D01*
X201393082Y-70861737D01*
X201204729Y-70735884D01*
X200995443Y-70649194D01*
X200773265Y-70605000D01*
X200546735Y-70605000D01*
X200324557Y-70649194D01*
X200115271Y-70735884D01*
X199926918Y-70861737D01*
X199766737Y-71021918D01*
X199640884Y-71210271D01*
X199554194Y-71419557D01*
X199510000Y-71641735D01*
X199271451Y-71641735D01*
X199271451Y-70905000D01*
X199265659Y-70846190D01*
X199248504Y-70789640D01*
X199220647Y-70737523D01*
X199183158Y-70691842D01*
X199137477Y-70654353D01*
X199085360Y-70626496D01*
X199028810Y-70609341D01*
X198970000Y-70603549D01*
X197270000Y-70603549D01*
X197211190Y-70609341D01*
X197154640Y-70626496D01*
X197102523Y-70654353D01*
X197056842Y-70691842D01*
X197019353Y-70737523D01*
X196991496Y-70789640D01*
X196974341Y-70846190D01*
X196968549Y-70905000D01*
X140793098Y-70905000D01*
X140879729Y-70869116D01*
X141068082Y-70743263D01*
X141228263Y-70583082D01*
X141354116Y-70394729D01*
X141440806Y-70185443D01*
X141485000Y-69963265D01*
X141485000Y-69736735D01*
X141440806Y-69514557D01*
X141354116Y-69305271D01*
X141228263Y-69116918D01*
X141068082Y-68956737D01*
X140879729Y-68830884D01*
X140670443Y-68744194D01*
X140448265Y-68700000D01*
X140221735Y-68700000D01*
X139999557Y-68744194D01*
X139790271Y-68830884D01*
X139601918Y-68956737D01*
X139441737Y-69116918D01*
X139315884Y-69305271D01*
X139229194Y-69514557D01*
X139185000Y-69736735D01*
X138945000Y-69736735D01*
X138900806Y-69514557D01*
X138814116Y-69305271D01*
X138688263Y-69116918D01*
X138528082Y-68956737D01*
X138339729Y-68830884D01*
X138130443Y-68744194D01*
X137908265Y-68700000D01*
X137681735Y-68700000D01*
X137459557Y-68744194D01*
X137250271Y-68830884D01*
X137061918Y-68956737D01*
X136901737Y-69116918D01*
X136775884Y-69305271D01*
X136689194Y-69514557D01*
X136645000Y-69736735D01*
X136405000Y-69736735D01*
X136360806Y-69514557D01*
X136274116Y-69305271D01*
X136148263Y-69116918D01*
X135988082Y-68956737D01*
X135799729Y-68830884D01*
X135590443Y-68744194D01*
X135368265Y-68700000D01*
X135141735Y-68700000D01*
X134919557Y-68744194D01*
X134710271Y-68830884D01*
X134521918Y-68956737D01*
X134361737Y-69116918D01*
X134235884Y-69305271D01*
X134149194Y-69514557D01*
X134105000Y-69736735D01*
X133865000Y-69736735D01*
X133820806Y-69514557D01*
X133734116Y-69305271D01*
X133608263Y-69116918D01*
X133448082Y-68956737D01*
X133259729Y-68830884D01*
X133050443Y-68744194D01*
X132828265Y-68700000D01*
X132601735Y-68700000D01*
X132379557Y-68744194D01*
X132170271Y-68830884D01*
X131981918Y-68956737D01*
X131821737Y-69116918D01*
X131695884Y-69305271D01*
X131609194Y-69514557D01*
X131565000Y-69736735D01*
X131325000Y-69736735D01*
X131280806Y-69514557D01*
X131194116Y-69305271D01*
X131068263Y-69116918D01*
X130908082Y-68956737D01*
X130719729Y-68830884D01*
X130510443Y-68744194D01*
X130288265Y-68700000D01*
X130061735Y-68700000D01*
X129839557Y-68744194D01*
X129630271Y-68830884D01*
X129441918Y-68956737D01*
X129281737Y-69116918D01*
X129155884Y-69305271D01*
X129069194Y-69514557D01*
X129025000Y-69736735D01*
X128785000Y-69736735D01*
X128740806Y-69514557D01*
X128654116Y-69305271D01*
X128528263Y-69116918D01*
X128368082Y-68956737D01*
X128179729Y-68830884D01*
X127970443Y-68744194D01*
X127748265Y-68700000D01*
X127521735Y-68700000D01*
X127299557Y-68744194D01*
X127090271Y-68830884D01*
X126901918Y-68956737D01*
X126741737Y-69116918D01*
X126615884Y-69305271D01*
X126529194Y-69514557D01*
X126485000Y-69736735D01*
X126246451Y-69736735D01*
X126246451Y-69000000D01*
X126240659Y-68941190D01*
X126223504Y-68884640D01*
X126195647Y-68832523D01*
X126158158Y-68786842D01*
X126151770Y-68781600D01*
X130077902Y-64855469D01*
X130108422Y-64830422D01*
X130133469Y-64799902D01*
X130208393Y-64708607D01*
X130282679Y-64569628D01*
X130328424Y-64418827D01*
X130340000Y-64301293D01*
X130340000Y-64301284D01*
X130343869Y-64262001D01*
X130340000Y-64222718D01*
X130340000Y-58573043D01*
X182720005Y-58573043D01*
X182720005Y-58710931D01*
X182746906Y-58846169D01*
X182799673Y-58973561D01*
X182876279Y-59088211D01*
X182970006Y-59181938D01*
X182970005Y-66430911D01*
X182967829Y-66453005D01*
X182970005Y-66475099D01*
X182970005Y-66475109D01*
X182976516Y-66541219D01*
X182982740Y-66561735D01*
X183002248Y-66626045D01*
X183044034Y-66704221D01*
X183086177Y-66755572D01*
X183100268Y-66772742D01*
X183117439Y-66786834D01*
X185101000Y-68770396D01*
X185101000Y-68902944D01*
X185127901Y-69038182D01*
X185180668Y-69165574D01*
X185257274Y-69280224D01*
X185354776Y-69377726D01*
X185469426Y-69454332D01*
X185596818Y-69507099D01*
X185732056Y-69534000D01*
X185869944Y-69534000D01*
X186005182Y-69507099D01*
X186132574Y-69454332D01*
X186247224Y-69377726D01*
X186344726Y-69280224D01*
X186421332Y-69165574D01*
X186474099Y-69038182D01*
X186501000Y-68902944D01*
X186501000Y-68765056D01*
X186474099Y-68629818D01*
X186421332Y-68502426D01*
X186344726Y-68387776D01*
X186247224Y-68290274D01*
X186132574Y-68213668D01*
X186005182Y-68160901D01*
X185869944Y-68134000D01*
X185737396Y-68134000D01*
X183870005Y-66266610D01*
X183870005Y-59181937D01*
X183963731Y-59088211D01*
X184040337Y-58973561D01*
X184093104Y-58846169D01*
X184120005Y-58710931D01*
X184120005Y-58573043D01*
X184093104Y-58437805D01*
X184040337Y-58310413D01*
X183963731Y-58195763D01*
X183866229Y-58098261D01*
X183751579Y-58021655D01*
X183624187Y-57968888D01*
X183488949Y-57941987D01*
X183351061Y-57941987D01*
X183215823Y-57968888D01*
X183088431Y-58021655D01*
X182973781Y-58098261D01*
X182876279Y-58195763D01*
X182799673Y-58310413D01*
X182746906Y-58437805D01*
X182720005Y-58573043D01*
X130340000Y-58573043D01*
X130340000Y-54033056D01*
X149160000Y-54033056D01*
X149160000Y-54170944D01*
X149186901Y-54306182D01*
X149239668Y-54433574D01*
X149316274Y-54548224D01*
X149413776Y-54645726D01*
X149528426Y-54722332D01*
X149655818Y-54775099D01*
X149791056Y-54802000D01*
X149923605Y-54802000D01*
X150669176Y-55547572D01*
X150683263Y-55564737D01*
X150700428Y-55578824D01*
X150700432Y-55578828D01*
X150751783Y-55620971D01*
X150789672Y-55641223D01*
X150829959Y-55662757D01*
X150914785Y-55688489D01*
X150980895Y-55695000D01*
X150980905Y-55695000D01*
X151002999Y-55697176D01*
X151025094Y-55695000D01*
X154146060Y-55695000D01*
X154239786Y-55788726D01*
X154354436Y-55865332D01*
X154481828Y-55918099D01*
X154617066Y-55945000D01*
X154754954Y-55945000D01*
X154890192Y-55918099D01*
X155017584Y-55865332D01*
X155132234Y-55788726D01*
X155229736Y-55691224D01*
X155306342Y-55576574D01*
X155359109Y-55449182D01*
X155386010Y-55313944D01*
X155386010Y-55176056D01*
X155359109Y-55040818D01*
X155306342Y-54913426D01*
X155229736Y-54798776D01*
X155132234Y-54701274D01*
X155017584Y-54624668D01*
X154890192Y-54571901D01*
X154754954Y-54545000D01*
X154617066Y-54545000D01*
X154481828Y-54571901D01*
X154354436Y-54624668D01*
X154239786Y-54701274D01*
X154146060Y-54795000D01*
X151189396Y-54795000D01*
X150560000Y-54165605D01*
X150560000Y-54033056D01*
X150533099Y-53897818D01*
X150480332Y-53770426D01*
X150403726Y-53655776D01*
X150306224Y-53558274D01*
X150191574Y-53481668D01*
X150064182Y-53428901D01*
X149928944Y-53402000D01*
X149791056Y-53402000D01*
X149655818Y-53428901D01*
X149528426Y-53481668D01*
X149413776Y-53558274D01*
X149316274Y-53655776D01*
X149239668Y-53770426D01*
X149186901Y-53897818D01*
X149160000Y-54033056D01*
X130340000Y-54033056D01*
X130340000Y-51893370D01*
X131274770Y-50958600D01*
X131461590Y-50958600D01*
X131693427Y-50912484D01*
X131911813Y-50822026D01*
X132108355Y-50690701D01*
X132275501Y-50523555D01*
X132406826Y-50327013D01*
X132497284Y-50108627D01*
X132543400Y-49876790D01*
X132543400Y-49640410D01*
X132497284Y-49408573D01*
X132406826Y-49190187D01*
X132275501Y-48993645D01*
X132108355Y-48826499D01*
X131911813Y-48695174D01*
X131693427Y-48604716D01*
X131461590Y-48558600D01*
X131225210Y-48558600D01*
X130993373Y-48604716D01*
X130774987Y-48695174D01*
X130578445Y-48826499D01*
X130411299Y-48993645D01*
X130279974Y-49190187D01*
X130189516Y-49408573D01*
X130143400Y-49640410D01*
X130143400Y-49827230D01*
X129002103Y-50968527D01*
X128971578Y-50993578D01*
X128917151Y-51059899D01*
X128871607Y-51115394D01*
X128797322Y-51254372D01*
X128797321Y-51254373D01*
X128751576Y-51405174D01*
X128740000Y-51522707D01*
X128736130Y-51562000D01*
X128740000Y-51601291D01*
X128740001Y-63930628D01*
X124557103Y-68113527D01*
X124526578Y-68138578D01*
X124472151Y-68204899D01*
X124426607Y-68260394D01*
X124410636Y-68290274D01*
X124352321Y-68399373D01*
X124306576Y-68550174D01*
X124298732Y-68629818D01*
X124291962Y-68698549D01*
X124245000Y-68698549D01*
X124186190Y-68704341D01*
X124129640Y-68721496D01*
X124077523Y-68749353D01*
X124031842Y-68786842D01*
X123994353Y-68832523D01*
X123966496Y-68884640D01*
X123949341Y-68941190D01*
X123943549Y-69000000D01*
X117056925Y-69000000D01*
X116896297Y-68892672D01*
X116386730Y-68681602D01*
X115845776Y-68574000D01*
X115294224Y-68574000D01*
X114753270Y-68681602D01*
X114243703Y-68892672D01*
X113785104Y-69199098D01*
X113395098Y-69589104D01*
X113088672Y-70047703D01*
X112877602Y-70557270D01*
X112770000Y-71098224D01*
X108910000Y-71098224D01*
X108910000Y-62796056D01*
X120915200Y-62796056D01*
X120915200Y-62933944D01*
X120942101Y-63069182D01*
X120994868Y-63196574D01*
X121071474Y-63311224D01*
X121168976Y-63408726D01*
X121283626Y-63485332D01*
X121411018Y-63538099D01*
X121546256Y-63565000D01*
X121684144Y-63565000D01*
X121819382Y-63538099D01*
X121946774Y-63485332D01*
X122061424Y-63408726D01*
X122158926Y-63311224D01*
X122235532Y-63196574D01*
X122288299Y-63069182D01*
X122315200Y-62933944D01*
X122315200Y-62801395D01*
X122588996Y-62527600D01*
X126393706Y-62527600D01*
X126415800Y-62529776D01*
X126437894Y-62527600D01*
X126437905Y-62527600D01*
X126504015Y-62521089D01*
X126588841Y-62495357D01*
X126667016Y-62453571D01*
X126735537Y-62397337D01*
X126749628Y-62380167D01*
X126910995Y-62218800D01*
X127043544Y-62218800D01*
X127178782Y-62191899D01*
X127306174Y-62139132D01*
X127420824Y-62062526D01*
X127518326Y-61965024D01*
X127594932Y-61850374D01*
X127647699Y-61722982D01*
X127674600Y-61587744D01*
X127674600Y-61449856D01*
X127647699Y-61314618D01*
X127594932Y-61187226D01*
X127518326Y-61072576D01*
X127420824Y-60975074D01*
X127306174Y-60898468D01*
X127178782Y-60845701D01*
X127043544Y-60818800D01*
X126905656Y-60818800D01*
X126770418Y-60845701D01*
X126643026Y-60898468D01*
X126528376Y-60975074D01*
X126430874Y-61072576D01*
X126354268Y-61187226D01*
X126301501Y-61314618D01*
X126274600Y-61449856D01*
X126274600Y-61582405D01*
X126229405Y-61627600D01*
X122424694Y-61627600D01*
X122402600Y-61625424D01*
X122380506Y-61627600D01*
X122380495Y-61627600D01*
X122314385Y-61634111D01*
X122229559Y-61659843D01*
X122151383Y-61701629D01*
X122100032Y-61743772D01*
X122100028Y-61743776D01*
X122082863Y-61757863D01*
X122068776Y-61775028D01*
X121678805Y-62165000D01*
X121546256Y-62165000D01*
X121411018Y-62191901D01*
X121283626Y-62244668D01*
X121168976Y-62321274D01*
X121071474Y-62418776D01*
X120994868Y-62533426D01*
X120942101Y-62660818D01*
X120915200Y-62796056D01*
X108910000Y-62796056D01*
X108910000Y-50585000D01*
X111878549Y-50585000D01*
X111878549Y-52285000D01*
X111884341Y-52343810D01*
X111901496Y-52400360D01*
X111929353Y-52452477D01*
X111966842Y-52498158D01*
X112012523Y-52535647D01*
X112064640Y-52563504D01*
X112121190Y-52580659D01*
X112180000Y-52586451D01*
X113880000Y-52586451D01*
X113938810Y-52580659D01*
X113995360Y-52563504D01*
X114047477Y-52535647D01*
X114093158Y-52498158D01*
X114130647Y-52452477D01*
X114158504Y-52400360D01*
X114175659Y-52343810D01*
X114181451Y-52285000D01*
X114181451Y-50585000D01*
X114175659Y-50526190D01*
X114158504Y-50469640D01*
X114130647Y-50417523D01*
X114093158Y-50371842D01*
X114047477Y-50334353D01*
X113995360Y-50306496D01*
X113938810Y-50289341D01*
X113880000Y-50283549D01*
X112180000Y-50283549D01*
X112121190Y-50289341D01*
X112064640Y-50306496D01*
X112012523Y-50334353D01*
X111966842Y-50371842D01*
X111929353Y-50417523D01*
X111901496Y-50469640D01*
X111884341Y-50526190D01*
X111878549Y-50585000D01*
X108910000Y-50585000D01*
X108910000Y-45011056D01*
X156901990Y-45011056D01*
X156901990Y-45148944D01*
X156928891Y-45284182D01*
X156981658Y-45411574D01*
X157058264Y-45526224D01*
X157155766Y-45623726D01*
X157270416Y-45700332D01*
X157397808Y-45753099D01*
X157533046Y-45780000D01*
X157665000Y-45780000D01*
X157665001Y-56138586D01*
X157592801Y-56210786D01*
X157516195Y-56325436D01*
X157463428Y-56452828D01*
X157436527Y-56588066D01*
X157436527Y-56725954D01*
X157463428Y-56861192D01*
X157516195Y-56988584D01*
X157592801Y-57103234D01*
X157690303Y-57200736D01*
X157804953Y-57277342D01*
X157932345Y-57330109D01*
X158067583Y-57357010D01*
X158205471Y-57357010D01*
X158340709Y-57330109D01*
X158468101Y-57277342D01*
X158582751Y-57200736D01*
X158680253Y-57103234D01*
X158756859Y-56988584D01*
X158809626Y-56861192D01*
X158836527Y-56725954D01*
X158836527Y-56588066D01*
X158809626Y-56452828D01*
X158756859Y-56325436D01*
X158680253Y-56210786D01*
X158582751Y-56113284D01*
X158565000Y-56101423D01*
X158565000Y-48445056D01*
X162875994Y-48445056D01*
X162875994Y-48582944D01*
X162902895Y-48718182D01*
X162955662Y-48845574D01*
X163032268Y-48960224D01*
X163125994Y-49053950D01*
X163125995Y-55915202D01*
X163111820Y-55941721D01*
X163083229Y-56035971D01*
X163073575Y-56133988D01*
X163083229Y-56232005D01*
X163111820Y-56326255D01*
X163130006Y-56360278D01*
X163130006Y-56456944D01*
X163156907Y-56592182D01*
X163209674Y-56719574D01*
X163286280Y-56834224D01*
X163383782Y-56931726D01*
X163498432Y-57008332D01*
X163625824Y-57061099D01*
X163761062Y-57088000D01*
X163898950Y-57088000D01*
X164034188Y-57061099D01*
X164161580Y-57008332D01*
X164276230Y-56931726D01*
X164373732Y-56834224D01*
X164450338Y-56719574D01*
X164503105Y-56592182D01*
X164506909Y-56573056D01*
X181545000Y-56573056D01*
X181545000Y-56710944D01*
X181571901Y-56846182D01*
X181624668Y-56973574D01*
X181701274Y-57088224D01*
X181798776Y-57185726D01*
X181913426Y-57262332D01*
X182040818Y-57315099D01*
X182176056Y-57342000D01*
X182313944Y-57342000D01*
X182449182Y-57315099D01*
X182576574Y-57262332D01*
X182691224Y-57185726D01*
X182784950Y-57092000D01*
X189678605Y-57092000D01*
X191685001Y-59098397D01*
X191685000Y-68151050D01*
X191591274Y-68244776D01*
X191514668Y-68359426D01*
X191461901Y-68486818D01*
X191435000Y-68622056D01*
X191435000Y-68759944D01*
X191461901Y-68895182D01*
X191514668Y-69022574D01*
X191591274Y-69137224D01*
X191688776Y-69234726D01*
X191803426Y-69311332D01*
X191930818Y-69364099D01*
X192066056Y-69391000D01*
X192203944Y-69391000D01*
X192339182Y-69364099D01*
X192466574Y-69311332D01*
X192581224Y-69234726D01*
X192678726Y-69137224D01*
X192755332Y-69022574D01*
X192808099Y-68895182D01*
X192835000Y-68759944D01*
X192835000Y-68622056D01*
X192808099Y-68486818D01*
X192755332Y-68359426D01*
X192678726Y-68244776D01*
X192585000Y-68151050D01*
X192585000Y-58934094D01*
X192587176Y-58912000D01*
X192585000Y-58889906D01*
X192585000Y-58889895D01*
X192578489Y-58823785D01*
X192552757Y-58738959D01*
X192516546Y-58671214D01*
X192510971Y-58660783D01*
X192468828Y-58609432D01*
X192468824Y-58609428D01*
X192454737Y-58592263D01*
X192437572Y-58578176D01*
X190198829Y-56339434D01*
X190184737Y-56322263D01*
X190116216Y-56266029D01*
X190038041Y-56224243D01*
X189953215Y-56198511D01*
X189887105Y-56192000D01*
X189887094Y-56192000D01*
X189865000Y-56189824D01*
X189842906Y-56192000D01*
X182784950Y-56192000D01*
X182691224Y-56098274D01*
X182576574Y-56021668D01*
X182449182Y-55968901D01*
X182313944Y-55942000D01*
X182176056Y-55942000D01*
X182040818Y-55968901D01*
X181913426Y-56021668D01*
X181798776Y-56098274D01*
X181701274Y-56195776D01*
X181624668Y-56310426D01*
X181571901Y-56437818D01*
X181545000Y-56573056D01*
X164506909Y-56573056D01*
X164530006Y-56456944D01*
X164530006Y-56319056D01*
X164503105Y-56183818D01*
X164450338Y-56056426D01*
X164373732Y-55941776D01*
X164276230Y-55844274D01*
X164161580Y-55767668D01*
X164034188Y-55714901D01*
X164025994Y-55713271D01*
X164025994Y-53588556D01*
X174814000Y-53588556D01*
X174814000Y-53726444D01*
X174840901Y-53861682D01*
X174893668Y-53989074D01*
X174970274Y-54103724D01*
X175067776Y-54201226D01*
X175182426Y-54277832D01*
X175309818Y-54330599D01*
X175445056Y-54357500D01*
X175577605Y-54357500D01*
X176196176Y-54976072D01*
X176210263Y-54993237D01*
X176227428Y-55007324D01*
X176227432Y-55007328D01*
X176278783Y-55049471D01*
X176320855Y-55071959D01*
X176356959Y-55091257D01*
X176441785Y-55116989D01*
X176507895Y-55123500D01*
X176507905Y-55123500D01*
X176530000Y-55125676D01*
X176552094Y-55123500D01*
X188563050Y-55123500D01*
X188656776Y-55217226D01*
X188771426Y-55293832D01*
X188898818Y-55346599D01*
X189034056Y-55373500D01*
X189171944Y-55373500D01*
X189307182Y-55346599D01*
X189434574Y-55293832D01*
X189549224Y-55217226D01*
X189646726Y-55119724D01*
X189723332Y-55005074D01*
X189776099Y-54877682D01*
X189803000Y-54742444D01*
X189803000Y-54604556D01*
X189776099Y-54469318D01*
X189723332Y-54341926D01*
X189646726Y-54227276D01*
X189549224Y-54129774D01*
X189434574Y-54053168D01*
X189307182Y-54000401D01*
X189171944Y-53973500D01*
X189034056Y-53973500D01*
X188898818Y-54000401D01*
X188771426Y-54053168D01*
X188656776Y-54129774D01*
X188563050Y-54223500D01*
X176716396Y-54223500D01*
X176214000Y-53721105D01*
X176214000Y-53588556D01*
X176187099Y-53453318D01*
X176134332Y-53325926D01*
X176057726Y-53211276D01*
X175960224Y-53113774D01*
X175845574Y-53037168D01*
X175718182Y-52984401D01*
X175582944Y-52957500D01*
X175445056Y-52957500D01*
X175309818Y-52984401D01*
X175182426Y-53037168D01*
X175067776Y-53113774D01*
X174970274Y-53211276D01*
X174893668Y-53325926D01*
X174840901Y-53453318D01*
X174814000Y-53588556D01*
X164025994Y-53588556D01*
X164025994Y-49053950D01*
X164119720Y-48960224D01*
X164196326Y-48845574D01*
X164249093Y-48718182D01*
X164275994Y-48582944D01*
X164275994Y-48445056D01*
X164249093Y-48309818D01*
X164196326Y-48182426D01*
X164119720Y-48067776D01*
X164022218Y-47970274D01*
X163907568Y-47893668D01*
X163780176Y-47840901D01*
X163644938Y-47814000D01*
X163507050Y-47814000D01*
X163371812Y-47840901D01*
X163244420Y-47893668D01*
X163129770Y-47970274D01*
X163032268Y-48067776D01*
X162955662Y-48182426D01*
X162902895Y-48309818D01*
X162875994Y-48445056D01*
X158565000Y-48445056D01*
X158565000Y-45615094D01*
X158567176Y-45593000D01*
X158565000Y-45570906D01*
X158565000Y-45570895D01*
X158558489Y-45504785D01*
X158532757Y-45419959D01*
X158490972Y-45341785D01*
X158490971Y-45341783D01*
X158448828Y-45290432D01*
X158448824Y-45290428D01*
X158434737Y-45273263D01*
X158417573Y-45259177D01*
X158301990Y-45143594D01*
X158301990Y-45011056D01*
X158275089Y-44875818D01*
X158222322Y-44748426D01*
X158145716Y-44633776D01*
X158048214Y-44536274D01*
X157933564Y-44459668D01*
X157806172Y-44406901D01*
X157670934Y-44380000D01*
X157533046Y-44380000D01*
X157397808Y-44406901D01*
X157270416Y-44459668D01*
X157155766Y-44536274D01*
X157058264Y-44633776D01*
X156981658Y-44748426D01*
X156928891Y-44875818D01*
X156901990Y-45011056D01*
X108910000Y-45011056D01*
X108910000Y-43701735D01*
X111880000Y-43701735D01*
X111880000Y-43928265D01*
X111924194Y-44150443D01*
X112010884Y-44359729D01*
X112136737Y-44548082D01*
X112296918Y-44708263D01*
X112485271Y-44834116D01*
X112694557Y-44920806D01*
X112916735Y-44965000D01*
X113143265Y-44965000D01*
X113365443Y-44920806D01*
X113574729Y-44834116D01*
X113763082Y-44708263D01*
X113923263Y-44548082D01*
X114049116Y-44359729D01*
X114135806Y-44150443D01*
X114180000Y-43928265D01*
X114180000Y-43701735D01*
X114135806Y-43479557D01*
X114049116Y-43270271D01*
X113923263Y-43081918D01*
X113830000Y-42988655D01*
X113830000Y-38939370D01*
X118949185Y-33820185D01*
X129274752Y-33820185D01*
X129319099Y-33886555D01*
X129486245Y-34053701D01*
X129682787Y-34185026D01*
X129901173Y-34275484D01*
X130133010Y-34321600D01*
X130369390Y-34321600D01*
X130601227Y-34275484D01*
X130819613Y-34185026D01*
X131016155Y-34053701D01*
X131183301Y-33886555D01*
X131314626Y-33690013D01*
X131405084Y-33471627D01*
X131451200Y-33239790D01*
X131451200Y-33003410D01*
X131405084Y-32771573D01*
X131314626Y-32553187D01*
X131183301Y-32356645D01*
X131016155Y-32189499D01*
X130819613Y-32058174D01*
X130601227Y-31967716D01*
X130369390Y-31921600D01*
X130182571Y-31921600D01*
X129053027Y-30792056D01*
X135952000Y-30792056D01*
X135952000Y-30929944D01*
X135978901Y-31065182D01*
X136031668Y-31192574D01*
X136108274Y-31307224D01*
X136202000Y-31400950D01*
X136202001Y-34994649D01*
X136108274Y-35088376D01*
X136031668Y-35203026D01*
X135978901Y-35330418D01*
X135952000Y-35465656D01*
X135952000Y-35603544D01*
X135978901Y-35738782D01*
X136031668Y-35866174D01*
X136108274Y-35980824D01*
X136205776Y-36078326D01*
X136320426Y-36154932D01*
X136447818Y-36207699D01*
X136583056Y-36234600D01*
X136720944Y-36234600D01*
X136856182Y-36207699D01*
X136983574Y-36154932D01*
X137098224Y-36078326D01*
X137195726Y-35980824D01*
X137272332Y-35866174D01*
X137325099Y-35738782D01*
X137352000Y-35603544D01*
X137352000Y-35465656D01*
X137325099Y-35330418D01*
X137272332Y-35203026D01*
X137195726Y-35088376D01*
X137102000Y-34994650D01*
X137102000Y-34983056D01*
X174052002Y-34983056D01*
X174052002Y-35120944D01*
X174078903Y-35256182D01*
X174131670Y-35383574D01*
X174208276Y-35498224D01*
X174305778Y-35595726D01*
X174420428Y-35672332D01*
X174547820Y-35725099D01*
X174683058Y-35752000D01*
X174815607Y-35752000D01*
X197670001Y-58606395D01*
X197670000Y-65523549D01*
X197270000Y-65523549D01*
X197211190Y-65529341D01*
X197154640Y-65546496D01*
X197102523Y-65574353D01*
X197056842Y-65611842D01*
X197019353Y-65657523D01*
X196991496Y-65709640D01*
X196974341Y-65766190D01*
X196968549Y-65825000D01*
X196968549Y-67525000D01*
X196974341Y-67583810D01*
X196991496Y-67640360D01*
X197019353Y-67692477D01*
X197056842Y-67738158D01*
X197102523Y-67775647D01*
X197154640Y-67803504D01*
X197211190Y-67820659D01*
X197270000Y-67826451D01*
X198970000Y-67826451D01*
X199028810Y-67820659D01*
X199085360Y-67803504D01*
X199137477Y-67775647D01*
X199183158Y-67738158D01*
X199220647Y-67692477D01*
X199248504Y-67640360D01*
X199265659Y-67583810D01*
X199271451Y-67525000D01*
X199271451Y-65825000D01*
X199265659Y-65766190D01*
X199248504Y-65709640D01*
X199220647Y-65657523D01*
X199183158Y-65611842D01*
X199137477Y-65574353D01*
X199085360Y-65546496D01*
X199028810Y-65529341D01*
X198970000Y-65523549D01*
X198570000Y-65523549D01*
X198570000Y-58442092D01*
X198572176Y-58419998D01*
X198570000Y-58397904D01*
X198570000Y-58397893D01*
X198563489Y-58331783D01*
X198537757Y-58246957D01*
X198507211Y-58189810D01*
X198495971Y-58168781D01*
X198453828Y-58117430D01*
X198453824Y-58117426D01*
X198439737Y-58100261D01*
X198422572Y-58086174D01*
X175452002Y-35115605D01*
X175452002Y-34983056D01*
X175425101Y-34847818D01*
X175372334Y-34720426D01*
X175295728Y-34605776D01*
X175198226Y-34508274D01*
X175083576Y-34431668D01*
X174956184Y-34378901D01*
X174820946Y-34352000D01*
X174683058Y-34352000D01*
X174547820Y-34378901D01*
X174420428Y-34431668D01*
X174305778Y-34508274D01*
X174208276Y-34605776D01*
X174131670Y-34720426D01*
X174078903Y-34847818D01*
X174052002Y-34983056D01*
X137102000Y-34983056D01*
X137102000Y-31427056D01*
X174814000Y-31427056D01*
X174814000Y-31564944D01*
X174840901Y-31700182D01*
X174893668Y-31827574D01*
X174970274Y-31942224D01*
X175064001Y-32035951D01*
X175064000Y-34013905D01*
X175061824Y-34036000D01*
X175064000Y-34058094D01*
X175064000Y-34058104D01*
X175070511Y-34124214D01*
X175096243Y-34209040D01*
X175138029Y-34287216D01*
X175167478Y-34323099D01*
X175194263Y-34355737D01*
X175211434Y-34369829D01*
X200210001Y-59368397D01*
X200210000Y-65616645D01*
X200115271Y-65655884D01*
X199926918Y-65781737D01*
X199766737Y-65941918D01*
X199640884Y-66130271D01*
X199554194Y-66339557D01*
X199510000Y-66561735D01*
X199510000Y-66788265D01*
X199554194Y-67010443D01*
X199640884Y-67219729D01*
X199766737Y-67408082D01*
X199926918Y-67568263D01*
X200115271Y-67694116D01*
X200324557Y-67780806D01*
X200546735Y-67825000D01*
X200773265Y-67825000D01*
X200995443Y-67780806D01*
X201204729Y-67694116D01*
X201393082Y-67568263D01*
X201553263Y-67408082D01*
X201679116Y-67219729D01*
X201765806Y-67010443D01*
X201810000Y-66788265D01*
X201810000Y-66561735D01*
X204590000Y-66561735D01*
X204590000Y-66788265D01*
X204634194Y-67010443D01*
X204720884Y-67219729D01*
X204846737Y-67408082D01*
X205006918Y-67568263D01*
X205195271Y-67694116D01*
X205404557Y-67780806D01*
X205626735Y-67825000D01*
X205853265Y-67825000D01*
X206075443Y-67780806D01*
X206284729Y-67694116D01*
X206473082Y-67568263D01*
X206633263Y-67408082D01*
X206759116Y-67219729D01*
X206845806Y-67010443D01*
X206890000Y-66788265D01*
X206890000Y-66561735D01*
X206845806Y-66339557D01*
X206759116Y-66130271D01*
X206633263Y-65941918D01*
X206473082Y-65781737D01*
X206284729Y-65655884D01*
X206075443Y-65569194D01*
X205853265Y-65525000D01*
X205626735Y-65525000D01*
X205404557Y-65569194D01*
X205195271Y-65655884D01*
X205006918Y-65781737D01*
X204846737Y-65941918D01*
X204720884Y-66130271D01*
X204634194Y-66339557D01*
X204590000Y-66561735D01*
X201810000Y-66561735D01*
X201765806Y-66339557D01*
X201679116Y-66130271D01*
X201553263Y-65941918D01*
X201393082Y-65781737D01*
X201204729Y-65655884D01*
X201110000Y-65616646D01*
X201110000Y-59204093D01*
X201112176Y-59181999D01*
X201110000Y-59159905D01*
X201110000Y-59159895D01*
X201103489Y-59093785D01*
X201077757Y-59008959D01*
X201058836Y-58973561D01*
X201035971Y-58930783D01*
X200993828Y-58879432D01*
X200993824Y-58879428D01*
X200979737Y-58862263D01*
X200962572Y-58848176D01*
X176449457Y-34335062D01*
X176524556Y-34350000D01*
X176662444Y-34350000D01*
X176797682Y-34323099D01*
X176925074Y-34270332D01*
X177039724Y-34193726D01*
X177070652Y-34162798D01*
X200741426Y-57833572D01*
X200755513Y-57850737D01*
X200772678Y-57864824D01*
X200772682Y-57864828D01*
X200824033Y-57906971D01*
X200889543Y-57941987D01*
X200902209Y-57948757D01*
X200987035Y-57974489D01*
X201053145Y-57981000D01*
X201053155Y-57981000D01*
X201075249Y-57983176D01*
X201097344Y-57981000D01*
X209146906Y-57981000D01*
X209169000Y-57983176D01*
X209191094Y-57981000D01*
X209191105Y-57981000D01*
X209257215Y-57974489D01*
X209342041Y-57948757D01*
X209420216Y-57906971D01*
X209488737Y-57850737D01*
X209502829Y-57833566D01*
X211659828Y-55676568D01*
X211754557Y-55715806D01*
X211976735Y-55760000D01*
X212203265Y-55760000D01*
X212425443Y-55715806D01*
X212634729Y-55629116D01*
X212823082Y-55503263D01*
X212983263Y-55343082D01*
X213109116Y-55154729D01*
X213195806Y-54945443D01*
X213240000Y-54723265D01*
X213240000Y-54496735D01*
X213195806Y-54274557D01*
X213109116Y-54065271D01*
X212983263Y-53876918D01*
X212823082Y-53716737D01*
X212634729Y-53590884D01*
X212425443Y-53504194D01*
X212203265Y-53460000D01*
X211976735Y-53460000D01*
X211754557Y-53504194D01*
X211545271Y-53590884D01*
X211356918Y-53716737D01*
X211196737Y-53876918D01*
X211070884Y-54065271D01*
X210984194Y-54274557D01*
X210940000Y-54496735D01*
X210940000Y-54723265D01*
X210984194Y-54945443D01*
X211023432Y-55040172D01*
X208982605Y-57081000D01*
X201261646Y-57081000D01*
X177528079Y-33347434D01*
X177513987Y-33330263D01*
X177445466Y-33274029D01*
X177367291Y-33232243D01*
X177282465Y-33206511D01*
X177216355Y-33200000D01*
X177216344Y-33200000D01*
X177194250Y-33197824D01*
X177172156Y-33200000D01*
X177133450Y-33200000D01*
X177039724Y-33106274D01*
X176925074Y-33029668D01*
X176797682Y-32976901D01*
X176662444Y-32950000D01*
X176524556Y-32950000D01*
X176389318Y-32976901D01*
X176261926Y-33029668D01*
X176147276Y-33106274D01*
X176049774Y-33203776D01*
X175973168Y-33318426D01*
X175964000Y-33340560D01*
X175964000Y-32316056D01*
X176973000Y-32316056D01*
X176973000Y-32453944D01*
X176999901Y-32589182D01*
X177052668Y-32716574D01*
X177129274Y-32831224D01*
X177226776Y-32928726D01*
X177341426Y-33005332D01*
X177468818Y-33058099D01*
X177604056Y-33085000D01*
X177736605Y-33085000D01*
X200814177Y-56162573D01*
X200828264Y-56179738D01*
X200845429Y-56193825D01*
X200845433Y-56193829D01*
X200896784Y-56235972D01*
X200950276Y-56264564D01*
X200974960Y-56277758D01*
X201059786Y-56303490D01*
X201125896Y-56310001D01*
X201125907Y-56310001D01*
X201148001Y-56312177D01*
X201170095Y-56310001D01*
X208277905Y-56310001D01*
X208299999Y-56312177D01*
X208322093Y-56310001D01*
X208322104Y-56310001D01*
X208388214Y-56303490D01*
X208473040Y-56277758D01*
X208551215Y-56235972D01*
X208619736Y-56179738D01*
X208633828Y-56162567D01*
X209119828Y-55676568D01*
X209214557Y-55715806D01*
X209436735Y-55760000D01*
X209663265Y-55760000D01*
X209885443Y-55715806D01*
X210094729Y-55629116D01*
X210283082Y-55503263D01*
X210443263Y-55343082D01*
X210569116Y-55154729D01*
X210655806Y-54945443D01*
X210700000Y-54723265D01*
X210700000Y-54496735D01*
X210655806Y-54274557D01*
X210569116Y-54065271D01*
X210443263Y-53876918D01*
X210283082Y-53716737D01*
X210094729Y-53590884D01*
X209885443Y-53504194D01*
X209663265Y-53460000D01*
X209436735Y-53460000D01*
X209214557Y-53504194D01*
X209005271Y-53590884D01*
X208816918Y-53716737D01*
X208656737Y-53876918D01*
X208530884Y-54065271D01*
X208444194Y-54274557D01*
X208400000Y-54496735D01*
X208400000Y-54723265D01*
X208444194Y-54945443D01*
X208483432Y-55040172D01*
X208161451Y-55362154D01*
X208161451Y-53760000D01*
X208155659Y-53701190D01*
X208138504Y-53644640D01*
X208110647Y-53592523D01*
X208073158Y-53546842D01*
X208027477Y-53509353D01*
X207975360Y-53481496D01*
X207918810Y-53464341D01*
X207860000Y-53458549D01*
X206160000Y-53458549D01*
X206101190Y-53464341D01*
X206044640Y-53481496D01*
X205992523Y-53509353D01*
X205946842Y-53546842D01*
X205909353Y-53592523D01*
X205881496Y-53644640D01*
X205864341Y-53701190D01*
X205858549Y-53760000D01*
X205858549Y-55410001D01*
X201334397Y-55410001D01*
X192591452Y-46667056D01*
X197293000Y-46667056D01*
X197293000Y-46804944D01*
X197319901Y-46940182D01*
X197372668Y-47067574D01*
X197449274Y-47182224D01*
X197546776Y-47279726D01*
X197661426Y-47356332D01*
X197788818Y-47409099D01*
X197924056Y-47436000D01*
X198061944Y-47436000D01*
X198197182Y-47409099D01*
X198324574Y-47356332D01*
X198439224Y-47279726D01*
X198536726Y-47182224D01*
X198613332Y-47067574D01*
X198666099Y-46940182D01*
X198693000Y-46804944D01*
X198693000Y-46672382D01*
X210106577Y-35258806D01*
X210123741Y-35244720D01*
X210137828Y-35227555D01*
X210137832Y-35227551D01*
X210179975Y-35176200D01*
X210221761Y-35098024D01*
X210235722Y-35052000D01*
X210247493Y-35013198D01*
X210254004Y-34947088D01*
X210254004Y-34947078D01*
X210256180Y-34924984D01*
X210254004Y-34902889D01*
X210254004Y-34575950D01*
X210347730Y-34482224D01*
X210424336Y-34367574D01*
X210477103Y-34240182D01*
X210504004Y-34104944D01*
X210504004Y-33967056D01*
X210477103Y-33831818D01*
X210424336Y-33704426D01*
X210347730Y-33589776D01*
X210250228Y-33492274D01*
X210135578Y-33415668D01*
X210008186Y-33362901D01*
X209872948Y-33336000D01*
X209735060Y-33336000D01*
X209599822Y-33362901D01*
X209472430Y-33415668D01*
X209357780Y-33492274D01*
X209260278Y-33589776D01*
X209183672Y-33704426D01*
X209130905Y-33831818D01*
X209104004Y-33967056D01*
X209104004Y-34104944D01*
X209130905Y-34240182D01*
X209183672Y-34367574D01*
X209260278Y-34482224D01*
X209354004Y-34575950D01*
X209354004Y-34738587D01*
X198056592Y-46036000D01*
X197924056Y-46036000D01*
X197788818Y-46062901D01*
X197661426Y-46115668D01*
X197546776Y-46192274D01*
X197449274Y-46289776D01*
X197372668Y-46404426D01*
X197319901Y-46531818D01*
X197293000Y-46667056D01*
X192591452Y-46667056D01*
X178373000Y-32448605D01*
X178373000Y-32316056D01*
X178346099Y-32180818D01*
X178293332Y-32053426D01*
X178216726Y-31938776D01*
X178119224Y-31841274D01*
X178004574Y-31764668D01*
X177877182Y-31711901D01*
X177741944Y-31685000D01*
X177604056Y-31685000D01*
X177468818Y-31711901D01*
X177341426Y-31764668D01*
X177226776Y-31841274D01*
X177129274Y-31938776D01*
X177052668Y-32053426D01*
X176999901Y-32180818D01*
X176973000Y-32316056D01*
X175964000Y-32316056D01*
X175964000Y-32035950D01*
X176057726Y-31942224D01*
X176134332Y-31827574D01*
X176187099Y-31700182D01*
X176214000Y-31564944D01*
X176214000Y-31427056D01*
X176187099Y-31291818D01*
X176134332Y-31164426D01*
X176057726Y-31049776D01*
X175960224Y-30952274D01*
X175845574Y-30875668D01*
X175718182Y-30822901D01*
X175582944Y-30796000D01*
X175445056Y-30796000D01*
X175309818Y-30822901D01*
X175182426Y-30875668D01*
X175067776Y-30952274D01*
X174970274Y-31049776D01*
X174893668Y-31164426D01*
X174840901Y-31291818D01*
X174814000Y-31427056D01*
X137102000Y-31427056D01*
X137102000Y-31400950D01*
X137195726Y-31307224D01*
X137272332Y-31192574D01*
X137325099Y-31065182D01*
X137352000Y-30929944D01*
X137352000Y-30792056D01*
X137325099Y-30656818D01*
X137272332Y-30529426D01*
X137195726Y-30414776D01*
X137098224Y-30317274D01*
X136983574Y-30240668D01*
X136856182Y-30187901D01*
X136720944Y-30161000D01*
X136583056Y-30161000D01*
X136447818Y-30187901D01*
X136320426Y-30240668D01*
X136205776Y-30317274D01*
X136108274Y-30414776D01*
X136031668Y-30529426D01*
X135978901Y-30656818D01*
X135952000Y-30792056D01*
X129053027Y-30792056D01*
X127987781Y-29726810D01*
X156915000Y-29726810D01*
X156915000Y-29963190D01*
X156961116Y-30195027D01*
X157051574Y-30413413D01*
X157182899Y-30609955D01*
X157350045Y-30777101D01*
X157546587Y-30908426D01*
X157764973Y-30998884D01*
X157996810Y-31045000D01*
X158233190Y-31045000D01*
X158465027Y-30998884D01*
X158683413Y-30908426D01*
X158879955Y-30777101D01*
X159047101Y-30609955D01*
X159178426Y-30413413D01*
X159268884Y-30195027D01*
X159315000Y-29963190D01*
X159315000Y-29776371D01*
X159793861Y-29297509D01*
X159886487Y-29248000D01*
X176925509Y-29248000D01*
X176845778Y-29301274D01*
X176748276Y-29398776D01*
X176671670Y-29513426D01*
X176618903Y-29640818D01*
X176592002Y-29776056D01*
X176592002Y-29913944D01*
X176618903Y-30049182D01*
X176671670Y-30176574D01*
X176748276Y-30291224D01*
X176845778Y-30388726D01*
X176960428Y-30465332D01*
X177087820Y-30518099D01*
X177223058Y-30545000D01*
X177355607Y-30545000D01*
X179942678Y-33132072D01*
X179956765Y-33149237D01*
X179973930Y-33163324D01*
X179973934Y-33163328D01*
X180025285Y-33205471D01*
X180075372Y-33232243D01*
X180103461Y-33247257D01*
X180188287Y-33272989D01*
X180254397Y-33279500D01*
X180254409Y-33279500D01*
X180276501Y-33281676D01*
X180298593Y-33279500D01*
X186721550Y-33279500D01*
X186815276Y-33373226D01*
X186929926Y-33449832D01*
X187057318Y-33502599D01*
X187192556Y-33529500D01*
X187330444Y-33529500D01*
X187465682Y-33502599D01*
X187593074Y-33449832D01*
X187707724Y-33373226D01*
X187805226Y-33275724D01*
X187881832Y-33161074D01*
X187934599Y-33033682D01*
X187961500Y-32898444D01*
X187961500Y-32760556D01*
X187934599Y-32625318D01*
X187881832Y-32497926D01*
X187805226Y-32383276D01*
X187707724Y-32285774D01*
X187593074Y-32209168D01*
X187465682Y-32156401D01*
X187330444Y-32129500D01*
X187192556Y-32129500D01*
X187057318Y-32156401D01*
X186929926Y-32209168D01*
X186815276Y-32285774D01*
X186721550Y-32379500D01*
X180462898Y-32379500D01*
X177992002Y-29908605D01*
X177992002Y-29776056D01*
X177965101Y-29640818D01*
X177912334Y-29513426D01*
X177835728Y-29398776D01*
X177738226Y-29301274D01*
X177658495Y-29248000D01*
X181062709Y-29248000D01*
X181102000Y-29251870D01*
X181141291Y-29248000D01*
X181141293Y-29248000D01*
X181258827Y-29236424D01*
X181409628Y-29190679D01*
X181548606Y-29116393D01*
X181670422Y-29016422D01*
X181695473Y-28985897D01*
X182303371Y-28378000D01*
X182490190Y-28378000D01*
X182722027Y-28331884D01*
X182940413Y-28241426D01*
X183136955Y-28110101D01*
X183304101Y-27942955D01*
X183435426Y-27746413D01*
X183525884Y-27528027D01*
X183572000Y-27296190D01*
X183572000Y-27059810D01*
X183525884Y-26827973D01*
X183435426Y-26609587D01*
X183304101Y-26413045D01*
X183136955Y-26245899D01*
X182940413Y-26114574D01*
X182722027Y-26024116D01*
X182490190Y-25978000D01*
X182253810Y-25978000D01*
X182021973Y-26024116D01*
X181803587Y-26114574D01*
X181607045Y-26245899D01*
X181439899Y-26413045D01*
X181308574Y-26609587D01*
X181218116Y-26827973D01*
X181172000Y-27059810D01*
X181172000Y-27246629D01*
X180770630Y-27648000D01*
X159614790Y-27648000D01*
X159575499Y-27644130D01*
X159536209Y-27648000D01*
X159536207Y-27648000D01*
X159418673Y-27659576D01*
X159267872Y-27705321D01*
X159128894Y-27779607D01*
X159007078Y-27879578D01*
X158982343Y-27909718D01*
X158881243Y-27963757D01*
X158789948Y-28038681D01*
X158183629Y-28645000D01*
X157996810Y-28645000D01*
X157764973Y-28691116D01*
X157546587Y-28781574D01*
X157350045Y-28912899D01*
X157182899Y-29080045D01*
X157051574Y-29276587D01*
X156961116Y-29494973D01*
X156915000Y-29726810D01*
X127987781Y-29726810D01*
X126018673Y-27757703D01*
X125993622Y-27727178D01*
X125871806Y-27627207D01*
X125732828Y-27552921D01*
X125582027Y-27507176D01*
X125464493Y-27495600D01*
X125464491Y-27495600D01*
X125425200Y-27491730D01*
X125385909Y-27495600D01*
X122385256Y-27495600D01*
X122253155Y-27363499D01*
X122056613Y-27232174D01*
X121838227Y-27141716D01*
X121606390Y-27095600D01*
X121370010Y-27095600D01*
X121138173Y-27141716D01*
X120919787Y-27232174D01*
X120723245Y-27363499D01*
X120556099Y-27530645D01*
X120424774Y-27727187D01*
X120334316Y-27945573D01*
X120288200Y-28177410D01*
X120288200Y-28413790D01*
X120334316Y-28645627D01*
X120424774Y-28864013D01*
X120556099Y-29060555D01*
X120723245Y-29227701D01*
X120919787Y-29359026D01*
X121138173Y-29449484D01*
X121370010Y-29495600D01*
X121606390Y-29495600D01*
X121838227Y-29449484D01*
X122056613Y-29359026D01*
X122253155Y-29227701D01*
X122385256Y-29095600D01*
X125093830Y-29095600D01*
X128218414Y-32220185D01*
X118657106Y-32220185D01*
X118617815Y-32216315D01*
X118578524Y-32220185D01*
X118578522Y-32220185D01*
X118460988Y-32231761D01*
X118310187Y-32277506D01*
X118171208Y-32351792D01*
X118129513Y-32386011D01*
X118049393Y-32451763D01*
X118024342Y-32482288D01*
X112492099Y-38014531D01*
X112461579Y-38039578D01*
X112436532Y-38070098D01*
X112436531Y-38070099D01*
X112361607Y-38161394D01*
X112287321Y-38300373D01*
X112241577Y-38451173D01*
X112226130Y-38608000D01*
X112230001Y-38647301D01*
X112230000Y-42988655D01*
X112136737Y-43081918D01*
X112010884Y-43270271D01*
X111924194Y-43479557D01*
X111880000Y-43701735D01*
X108910000Y-43701735D01*
X108910000Y-23219224D01*
X112770000Y-23219224D01*
X112770000Y-23770776D01*
X112877602Y-24311730D01*
X113088672Y-24821297D01*
X113395098Y-25279896D01*
X113785104Y-25669902D01*
X114243703Y-25976328D01*
X114753270Y-26187398D01*
X115294224Y-26295000D01*
X115845776Y-26295000D01*
X116386730Y-26187398D01*
X116896297Y-25976328D01*
X117354896Y-25669902D01*
X117744902Y-25279896D01*
X118051328Y-24821297D01*
X118262398Y-24311730D01*
X118270552Y-24270735D01*
X199510000Y-24270735D01*
X199510000Y-24497265D01*
X199554194Y-24719443D01*
X199640884Y-24928729D01*
X199766737Y-25117082D01*
X199926918Y-25277263D01*
X200115271Y-25403116D01*
X200324557Y-25489806D01*
X200546735Y-25534000D01*
X200773265Y-25534000D01*
X200995443Y-25489806D01*
X201204729Y-25403116D01*
X201393082Y-25277263D01*
X201553263Y-25117082D01*
X201679116Y-24928729D01*
X201765806Y-24719443D01*
X201810000Y-24497265D01*
X201810000Y-24270735D01*
X202050000Y-24270735D01*
X202050000Y-24497265D01*
X202094194Y-24719443D01*
X202180884Y-24928729D01*
X202306737Y-25117082D01*
X202466918Y-25277263D01*
X202655271Y-25403116D01*
X202864557Y-25489806D01*
X203086735Y-25534000D01*
X203313265Y-25534000D01*
X203535443Y-25489806D01*
X203744729Y-25403116D01*
X203933082Y-25277263D01*
X204093263Y-25117082D01*
X204219116Y-24928729D01*
X204305806Y-24719443D01*
X204350000Y-24497265D01*
X204350000Y-24270735D01*
X204305806Y-24048557D01*
X204219116Y-23839271D01*
X204093263Y-23650918D01*
X203976345Y-23534000D01*
X204588549Y-23534000D01*
X204588549Y-25234000D01*
X204594341Y-25292810D01*
X204611496Y-25349360D01*
X204639353Y-25401477D01*
X204676842Y-25447158D01*
X204722523Y-25484647D01*
X204774640Y-25512504D01*
X204831190Y-25529659D01*
X204890000Y-25535451D01*
X206590000Y-25535451D01*
X206648810Y-25529659D01*
X206705360Y-25512504D01*
X206757477Y-25484647D01*
X206803158Y-25447158D01*
X206840647Y-25401477D01*
X206868504Y-25349360D01*
X206885659Y-25292810D01*
X206891451Y-25234000D01*
X206891451Y-23534000D01*
X206885659Y-23475190D01*
X206868504Y-23418640D01*
X206840647Y-23366523D01*
X206823989Y-23346224D01*
X213100000Y-23346224D01*
X213100000Y-23897776D01*
X213207602Y-24438730D01*
X213418672Y-24948297D01*
X213725098Y-25406896D01*
X214115104Y-25796902D01*
X214573703Y-26103328D01*
X215083270Y-26314398D01*
X215624224Y-26422000D01*
X216175776Y-26422000D01*
X216716730Y-26314398D01*
X217226297Y-26103328D01*
X217684896Y-25796902D01*
X218074902Y-25406896D01*
X218381328Y-24948297D01*
X218592398Y-24438730D01*
X218700000Y-23897776D01*
X218700000Y-23346224D01*
X218592398Y-22805270D01*
X218381328Y-22295703D01*
X218074902Y-21837104D01*
X217684896Y-21447098D01*
X217226297Y-21140672D01*
X216716730Y-20929602D01*
X216175776Y-20822000D01*
X215624224Y-20822000D01*
X215083270Y-20929602D01*
X214573703Y-21140672D01*
X214115104Y-21447098D01*
X213725098Y-21837104D01*
X213418672Y-22295703D01*
X213207602Y-22805270D01*
X213100000Y-23346224D01*
X206823989Y-23346224D01*
X206803158Y-23320842D01*
X206757477Y-23283353D01*
X206705360Y-23255496D01*
X206648810Y-23238341D01*
X206590000Y-23232549D01*
X204890000Y-23232549D01*
X204831190Y-23238341D01*
X204774640Y-23255496D01*
X204722523Y-23283353D01*
X204676842Y-23320842D01*
X204639353Y-23366523D01*
X204611496Y-23418640D01*
X204594341Y-23475190D01*
X204588549Y-23534000D01*
X203976345Y-23534000D01*
X203933082Y-23490737D01*
X203744729Y-23364884D01*
X203535443Y-23278194D01*
X203313265Y-23234000D01*
X203086735Y-23234000D01*
X202864557Y-23278194D01*
X202655271Y-23364884D01*
X202466918Y-23490737D01*
X202306737Y-23650918D01*
X202180884Y-23839271D01*
X202094194Y-24048557D01*
X202050000Y-24270735D01*
X201810000Y-24270735D01*
X201765806Y-24048557D01*
X201679116Y-23839271D01*
X201553263Y-23650918D01*
X201393082Y-23490737D01*
X201204729Y-23364884D01*
X200995443Y-23278194D01*
X200773265Y-23234000D01*
X200546735Y-23234000D01*
X200324557Y-23278194D01*
X200115271Y-23364884D01*
X199926918Y-23490737D01*
X199766737Y-23650918D01*
X199640884Y-23839271D01*
X199554194Y-24048557D01*
X199510000Y-24270735D01*
X118270552Y-24270735D01*
X118370000Y-23770776D01*
X118370000Y-23219224D01*
X118262398Y-22678270D01*
X118051328Y-22168703D01*
X117758688Y-21730735D01*
X204590000Y-21730735D01*
X204590000Y-21957265D01*
X204634194Y-22179443D01*
X204720884Y-22388729D01*
X204846737Y-22577082D01*
X205006918Y-22737263D01*
X205195271Y-22863116D01*
X205404557Y-22949806D01*
X205626735Y-22994000D01*
X205853265Y-22994000D01*
X206075443Y-22949806D01*
X206284729Y-22863116D01*
X206473082Y-22737263D01*
X206633263Y-22577082D01*
X206759116Y-22388729D01*
X206845806Y-22179443D01*
X206890000Y-21957265D01*
X206890000Y-21730735D01*
X206845806Y-21508557D01*
X206759116Y-21299271D01*
X206633263Y-21110918D01*
X206473082Y-20950737D01*
X206284729Y-20824884D01*
X206075443Y-20738194D01*
X205853265Y-20694000D01*
X205626735Y-20694000D01*
X205404557Y-20738194D01*
X205195271Y-20824884D01*
X205006918Y-20950737D01*
X204846737Y-21110918D01*
X204720884Y-21299271D01*
X204634194Y-21508557D01*
X204590000Y-21730735D01*
X117758688Y-21730735D01*
X117744902Y-21710104D01*
X117354896Y-21320098D01*
X116896297Y-21013672D01*
X116386730Y-20802602D01*
X115845776Y-20695000D01*
X115294224Y-20695000D01*
X114753270Y-20802602D01*
X114243703Y-21013672D01*
X113785104Y-21320098D01*
X113395098Y-21710104D01*
X113088672Y-22168703D01*
X112877602Y-22678270D01*
X112770000Y-23219224D01*
X108910000Y-23219224D01*
X108910000Y-19121000D01*
X222560001Y-19121000D01*
X222560000Y-75875000D01*
%TA.AperFunction,Conductor*%
D20*
G36*
X222560000Y-75875000D02*
G01*
X108910000Y-75875000D01*
X108910000Y-71098224D01*
X112770000Y-71098224D01*
X112770000Y-71649776D01*
X112877602Y-72190730D01*
X113088672Y-72700297D01*
X113395098Y-73158896D01*
X113785104Y-73548902D01*
X114243703Y-73855328D01*
X114753270Y-74066398D01*
X115294224Y-74174000D01*
X115845776Y-74174000D01*
X116386730Y-74066398D01*
X116896297Y-73855328D01*
X117354896Y-73548902D01*
X117744902Y-73158896D01*
X118051328Y-72700297D01*
X118226773Y-72276735D01*
X123945000Y-72276735D01*
X123945000Y-72503265D01*
X123989194Y-72725443D01*
X124075884Y-72934729D01*
X124201737Y-73123082D01*
X124361918Y-73283263D01*
X124550271Y-73409116D01*
X124759557Y-73495806D01*
X124981735Y-73540000D01*
X125208265Y-73540000D01*
X125430443Y-73495806D01*
X125639729Y-73409116D01*
X125828082Y-73283263D01*
X125988263Y-73123082D01*
X126114116Y-72934729D01*
X126200806Y-72725443D01*
X126245000Y-72503265D01*
X126245000Y-72276735D01*
X126485000Y-72276735D01*
X126485000Y-72503265D01*
X126529194Y-72725443D01*
X126615884Y-72934729D01*
X126741737Y-73123082D01*
X126901918Y-73283263D01*
X127090271Y-73409116D01*
X127299557Y-73495806D01*
X127521735Y-73540000D01*
X127748265Y-73540000D01*
X127970443Y-73495806D01*
X128179729Y-73409116D01*
X128368082Y-73283263D01*
X128528263Y-73123082D01*
X128654116Y-72934729D01*
X128740806Y-72725443D01*
X128785000Y-72503265D01*
X128785000Y-72276735D01*
X136645000Y-72276735D01*
X136645000Y-72503265D01*
X136689194Y-72725443D01*
X136775884Y-72934729D01*
X136901737Y-73123082D01*
X137061918Y-73283263D01*
X137250271Y-73409116D01*
X137459557Y-73495806D01*
X137681735Y-73540000D01*
X137908265Y-73540000D01*
X138130443Y-73495806D01*
X138339729Y-73409116D01*
X138528082Y-73283263D01*
X138688263Y-73123082D01*
X138814116Y-72934729D01*
X138900806Y-72725443D01*
X138945000Y-72503265D01*
X138945000Y-72276735D01*
X139185000Y-72276735D01*
X139185000Y-72503265D01*
X139229194Y-72725443D01*
X139315884Y-72934729D01*
X139441737Y-73123082D01*
X139601918Y-73283263D01*
X139790271Y-73409116D01*
X139999557Y-73495806D01*
X140221735Y-73540000D01*
X140448265Y-73540000D01*
X140670443Y-73495806D01*
X140879729Y-73409116D01*
X141068082Y-73283263D01*
X141228263Y-73123082D01*
X141354116Y-72934729D01*
X141440806Y-72725443D01*
X141485000Y-72503265D01*
X141485000Y-72276735D01*
X141440806Y-72054557D01*
X141354116Y-71845271D01*
X141228263Y-71656918D01*
X141068082Y-71496737D01*
X140879729Y-71370884D01*
X140670443Y-71284194D01*
X140448265Y-71240000D01*
X140221735Y-71240000D01*
X139999557Y-71284194D01*
X139790271Y-71370884D01*
X139601918Y-71496737D01*
X139441737Y-71656918D01*
X139315884Y-71845271D01*
X139229194Y-72054557D01*
X139185000Y-72276735D01*
X138945000Y-72276735D01*
X138900806Y-72054557D01*
X138814116Y-71845271D01*
X138688263Y-71656918D01*
X138528082Y-71496737D01*
X138339729Y-71370884D01*
X138130443Y-71284194D01*
X137908265Y-71240000D01*
X137681735Y-71240000D01*
X137459557Y-71284194D01*
X137250271Y-71370884D01*
X137061918Y-71496737D01*
X136901737Y-71656918D01*
X136775884Y-71845271D01*
X136689194Y-72054557D01*
X136645000Y-72276735D01*
X128785000Y-72276735D01*
X128740806Y-72054557D01*
X128654116Y-71845271D01*
X128528263Y-71656918D01*
X128368082Y-71496737D01*
X128179729Y-71370884D01*
X127970443Y-71284194D01*
X127748265Y-71240000D01*
X127521735Y-71240000D01*
X127299557Y-71284194D01*
X127090271Y-71370884D01*
X126901918Y-71496737D01*
X126741737Y-71656918D01*
X126615884Y-71845271D01*
X126529194Y-72054557D01*
X126485000Y-72276735D01*
X126245000Y-72276735D01*
X126200806Y-72054557D01*
X126114116Y-71845271D01*
X125988263Y-71656918D01*
X125828082Y-71496737D01*
X125639729Y-71370884D01*
X125430443Y-71284194D01*
X125208265Y-71240000D01*
X124981735Y-71240000D01*
X124759557Y-71284194D01*
X124550271Y-71370884D01*
X124361918Y-71496737D01*
X124201737Y-71656918D01*
X124075884Y-71845271D01*
X123989194Y-72054557D01*
X123945000Y-72276735D01*
X118226773Y-72276735D01*
X118262398Y-72190730D01*
X118370000Y-71649776D01*
X118370000Y-71098224D01*
X118262398Y-70557270D01*
X118051328Y-70047703D01*
X117744902Y-69589104D01*
X117354896Y-69199098D01*
X117056925Y-69000000D01*
X123943549Y-69000000D01*
X123943549Y-70700000D01*
X123949341Y-70758810D01*
X123966496Y-70815360D01*
X123994353Y-70867477D01*
X124031842Y-70913158D01*
X124077523Y-70950647D01*
X124129640Y-70978504D01*
X124186190Y-70995659D01*
X124245000Y-71001451D01*
X125945000Y-71001451D01*
X126003810Y-70995659D01*
X126060360Y-70978504D01*
X126112477Y-70950647D01*
X126158158Y-70913158D01*
X126195647Y-70867477D01*
X126223504Y-70815360D01*
X126240659Y-70758810D01*
X126246451Y-70700000D01*
X126246451Y-69736735D01*
X126485000Y-69736735D01*
X126485000Y-69963265D01*
X126529194Y-70185443D01*
X126615884Y-70394729D01*
X126741737Y-70583082D01*
X126901918Y-70743263D01*
X127090271Y-70869116D01*
X127299557Y-70955806D01*
X127521735Y-71000000D01*
X127748265Y-71000000D01*
X127970443Y-70955806D01*
X128179729Y-70869116D01*
X128368082Y-70743263D01*
X128528263Y-70583082D01*
X128654116Y-70394729D01*
X128740806Y-70185443D01*
X128785000Y-69963265D01*
X128785000Y-69736735D01*
X129025000Y-69736735D01*
X129025000Y-69963265D01*
X129069194Y-70185443D01*
X129155884Y-70394729D01*
X129281737Y-70583082D01*
X129441918Y-70743263D01*
X129630271Y-70869116D01*
X129839557Y-70955806D01*
X130061735Y-71000000D01*
X130288265Y-71000000D01*
X130510443Y-70955806D01*
X130719729Y-70869116D01*
X130908082Y-70743263D01*
X131068263Y-70583082D01*
X131194116Y-70394729D01*
X131280806Y-70185443D01*
X131325000Y-69963265D01*
X131325000Y-69736735D01*
X131565000Y-69736735D01*
X131565000Y-69963265D01*
X131609194Y-70185443D01*
X131695884Y-70394729D01*
X131821737Y-70583082D01*
X131981918Y-70743263D01*
X132170271Y-70869116D01*
X132379557Y-70955806D01*
X132601735Y-71000000D01*
X132828265Y-71000000D01*
X133050443Y-70955806D01*
X133259729Y-70869116D01*
X133448082Y-70743263D01*
X133608263Y-70583082D01*
X133734116Y-70394729D01*
X133820806Y-70185443D01*
X133865000Y-69963265D01*
X133865000Y-69736735D01*
X134105000Y-69736735D01*
X134105000Y-69963265D01*
X134149194Y-70185443D01*
X134235884Y-70394729D01*
X134361737Y-70583082D01*
X134521918Y-70743263D01*
X134710271Y-70869116D01*
X134919557Y-70955806D01*
X135141735Y-71000000D01*
X135368265Y-71000000D01*
X135590443Y-70955806D01*
X135799729Y-70869116D01*
X135988082Y-70743263D01*
X136148263Y-70583082D01*
X136274116Y-70394729D01*
X136360806Y-70185443D01*
X136405000Y-69963265D01*
X136405000Y-69736735D01*
X136645000Y-69736735D01*
X136645000Y-69963265D01*
X136689194Y-70185443D01*
X136775884Y-70394729D01*
X136901737Y-70583082D01*
X137061918Y-70743263D01*
X137250271Y-70869116D01*
X137459557Y-70955806D01*
X137681735Y-71000000D01*
X137908265Y-71000000D01*
X138130443Y-70955806D01*
X138339729Y-70869116D01*
X138528082Y-70743263D01*
X138688263Y-70583082D01*
X138814116Y-70394729D01*
X138900806Y-70185443D01*
X138945000Y-69963265D01*
X138945000Y-69736735D01*
X139185000Y-69736735D01*
X139185000Y-69963265D01*
X139229194Y-70185443D01*
X139315884Y-70394729D01*
X139441737Y-70583082D01*
X139601918Y-70743263D01*
X139790271Y-70869116D01*
X139999557Y-70955806D01*
X140221735Y-71000000D01*
X140448265Y-71000000D01*
X140670443Y-70955806D01*
X140793098Y-70905000D01*
X196968549Y-70905000D01*
X196968549Y-72605000D01*
X196974341Y-72663810D01*
X196991496Y-72720360D01*
X197019353Y-72772477D01*
X197056842Y-72818158D01*
X197102523Y-72855647D01*
X197154640Y-72883504D01*
X197211190Y-72900659D01*
X197270000Y-72906451D01*
X198970000Y-72906451D01*
X199028810Y-72900659D01*
X199085360Y-72883504D01*
X199137477Y-72855647D01*
X199183158Y-72818158D01*
X199220647Y-72772477D01*
X199248504Y-72720360D01*
X199265659Y-72663810D01*
X199271451Y-72605000D01*
X199271451Y-71641735D01*
X199510000Y-71641735D01*
X199510000Y-71868265D01*
X199554194Y-72090443D01*
X199640884Y-72299729D01*
X199766737Y-72488082D01*
X199926918Y-72648263D01*
X200115271Y-72774116D01*
X200324557Y-72860806D01*
X200546735Y-72905000D01*
X200773265Y-72905000D01*
X200995443Y-72860806D01*
X201204729Y-72774116D01*
X201393082Y-72648263D01*
X201553263Y-72488082D01*
X201679116Y-72299729D01*
X201765806Y-72090443D01*
X201810000Y-71868265D01*
X201810000Y-71641735D01*
X204590000Y-71641735D01*
X204590000Y-71868265D01*
X204634194Y-72090443D01*
X204720884Y-72299729D01*
X204846737Y-72488082D01*
X205006918Y-72648263D01*
X205195271Y-72774116D01*
X205404557Y-72860806D01*
X205626735Y-72905000D01*
X205853265Y-72905000D01*
X206075443Y-72860806D01*
X206284729Y-72774116D01*
X206473082Y-72648263D01*
X206633263Y-72488082D01*
X206759116Y-72299729D01*
X206845806Y-72090443D01*
X206890000Y-71868265D01*
X206890000Y-71641735D01*
X206845806Y-71419557D01*
X206759116Y-71210271D01*
X206633263Y-71021918D01*
X206473082Y-70861737D01*
X206446872Y-70844224D01*
X213100000Y-70844224D01*
X213100000Y-71395776D01*
X213207602Y-71936730D01*
X213418672Y-72446297D01*
X213725098Y-72904896D01*
X214115104Y-73294902D01*
X214573703Y-73601328D01*
X215083270Y-73812398D01*
X215624224Y-73920000D01*
X216175776Y-73920000D01*
X216716730Y-73812398D01*
X217226297Y-73601328D01*
X217684896Y-73294902D01*
X218074902Y-72904896D01*
X218381328Y-72446297D01*
X218592398Y-71936730D01*
X218700000Y-71395776D01*
X218700000Y-70844224D01*
X218592398Y-70303270D01*
X218381328Y-69793703D01*
X218074902Y-69335104D01*
X217684896Y-68945098D01*
X217226297Y-68638672D01*
X216716730Y-68427602D01*
X216175776Y-68320000D01*
X215624224Y-68320000D01*
X215083270Y-68427602D01*
X214573703Y-68638672D01*
X214115104Y-68945098D01*
X213725098Y-69335104D01*
X213418672Y-69793703D01*
X213207602Y-70303270D01*
X213100000Y-70844224D01*
X206446872Y-70844224D01*
X206284729Y-70735884D01*
X206075443Y-70649194D01*
X205853265Y-70605000D01*
X205626735Y-70605000D01*
X205404557Y-70649194D01*
X205195271Y-70735884D01*
X205006918Y-70861737D01*
X204846737Y-71021918D01*
X204720884Y-71210271D01*
X204634194Y-71419557D01*
X204590000Y-71641735D01*
X201810000Y-71641735D01*
X201765806Y-71419557D01*
X201679116Y-71210271D01*
X201553263Y-71021918D01*
X201393082Y-70861737D01*
X201204729Y-70735884D01*
X200995443Y-70649194D01*
X200773265Y-70605000D01*
X200546735Y-70605000D01*
X200324557Y-70649194D01*
X200115271Y-70735884D01*
X199926918Y-70861737D01*
X199766737Y-71021918D01*
X199640884Y-71210271D01*
X199554194Y-71419557D01*
X199510000Y-71641735D01*
X199271451Y-71641735D01*
X199271451Y-70905000D01*
X199265659Y-70846190D01*
X199248504Y-70789640D01*
X199220647Y-70737523D01*
X199183158Y-70691842D01*
X199137477Y-70654353D01*
X199085360Y-70626496D01*
X199028810Y-70609341D01*
X198970000Y-70603549D01*
X197270000Y-70603549D01*
X197211190Y-70609341D01*
X197154640Y-70626496D01*
X197102523Y-70654353D01*
X197056842Y-70691842D01*
X197019353Y-70737523D01*
X196991496Y-70789640D01*
X196974341Y-70846190D01*
X196968549Y-70905000D01*
X140793098Y-70905000D01*
X140879729Y-70869116D01*
X141068082Y-70743263D01*
X141228263Y-70583082D01*
X141354116Y-70394729D01*
X141440806Y-70185443D01*
X141485000Y-69963265D01*
X141485000Y-69736735D01*
X141440806Y-69514557D01*
X141354116Y-69305271D01*
X141228263Y-69116918D01*
X141068082Y-68956737D01*
X140879729Y-68830884D01*
X140670443Y-68744194D01*
X140448265Y-68700000D01*
X140221735Y-68700000D01*
X139999557Y-68744194D01*
X139790271Y-68830884D01*
X139601918Y-68956737D01*
X139441737Y-69116918D01*
X139315884Y-69305271D01*
X139229194Y-69514557D01*
X139185000Y-69736735D01*
X138945000Y-69736735D01*
X138900806Y-69514557D01*
X138814116Y-69305271D01*
X138688263Y-69116918D01*
X138528082Y-68956737D01*
X138339729Y-68830884D01*
X138130443Y-68744194D01*
X137908265Y-68700000D01*
X137681735Y-68700000D01*
X137459557Y-68744194D01*
X137250271Y-68830884D01*
X137061918Y-68956737D01*
X136901737Y-69116918D01*
X136775884Y-69305271D01*
X136689194Y-69514557D01*
X136645000Y-69736735D01*
X136405000Y-69736735D01*
X136360806Y-69514557D01*
X136274116Y-69305271D01*
X136148263Y-69116918D01*
X135988082Y-68956737D01*
X135799729Y-68830884D01*
X135590443Y-68744194D01*
X135368265Y-68700000D01*
X135141735Y-68700000D01*
X134919557Y-68744194D01*
X134710271Y-68830884D01*
X134521918Y-68956737D01*
X134361737Y-69116918D01*
X134235884Y-69305271D01*
X134149194Y-69514557D01*
X134105000Y-69736735D01*
X133865000Y-69736735D01*
X133820806Y-69514557D01*
X133734116Y-69305271D01*
X133608263Y-69116918D01*
X133448082Y-68956737D01*
X133259729Y-68830884D01*
X133050443Y-68744194D01*
X132828265Y-68700000D01*
X132601735Y-68700000D01*
X132379557Y-68744194D01*
X132170271Y-68830884D01*
X131981918Y-68956737D01*
X131821737Y-69116918D01*
X131695884Y-69305271D01*
X131609194Y-69514557D01*
X131565000Y-69736735D01*
X131325000Y-69736735D01*
X131280806Y-69514557D01*
X131194116Y-69305271D01*
X131068263Y-69116918D01*
X130908082Y-68956737D01*
X130719729Y-68830884D01*
X130510443Y-68744194D01*
X130288265Y-68700000D01*
X130061735Y-68700000D01*
X129839557Y-68744194D01*
X129630271Y-68830884D01*
X129441918Y-68956737D01*
X129281737Y-69116918D01*
X129155884Y-69305271D01*
X129069194Y-69514557D01*
X129025000Y-69736735D01*
X128785000Y-69736735D01*
X128740806Y-69514557D01*
X128654116Y-69305271D01*
X128528263Y-69116918D01*
X128368082Y-68956737D01*
X128179729Y-68830884D01*
X127970443Y-68744194D01*
X127748265Y-68700000D01*
X127521735Y-68700000D01*
X127299557Y-68744194D01*
X127090271Y-68830884D01*
X126901918Y-68956737D01*
X126741737Y-69116918D01*
X126615884Y-69305271D01*
X126529194Y-69514557D01*
X126485000Y-69736735D01*
X126246451Y-69736735D01*
X126246451Y-69000000D01*
X126240659Y-68941190D01*
X126223504Y-68884640D01*
X126195647Y-68832523D01*
X126158158Y-68786842D01*
X126151770Y-68781600D01*
X130077902Y-64855469D01*
X130108422Y-64830422D01*
X130133469Y-64799902D01*
X130208393Y-64708607D01*
X130282679Y-64569628D01*
X130328424Y-64418827D01*
X130340000Y-64301293D01*
X130340000Y-64301284D01*
X130343869Y-64262001D01*
X130340000Y-64222718D01*
X130340000Y-58573043D01*
X182720005Y-58573043D01*
X182720005Y-58710931D01*
X182746906Y-58846169D01*
X182799673Y-58973561D01*
X182876279Y-59088211D01*
X182970006Y-59181938D01*
X182970005Y-66430911D01*
X182967829Y-66453005D01*
X182970005Y-66475099D01*
X182970005Y-66475109D01*
X182976516Y-66541219D01*
X182982740Y-66561735D01*
X183002248Y-66626045D01*
X183044034Y-66704221D01*
X183086177Y-66755572D01*
X183100268Y-66772742D01*
X183117439Y-66786834D01*
X185101000Y-68770396D01*
X185101000Y-68902944D01*
X185127901Y-69038182D01*
X185180668Y-69165574D01*
X185257274Y-69280224D01*
X185354776Y-69377726D01*
X185469426Y-69454332D01*
X185596818Y-69507099D01*
X185732056Y-69534000D01*
X185869944Y-69534000D01*
X186005182Y-69507099D01*
X186132574Y-69454332D01*
X186247224Y-69377726D01*
X186344726Y-69280224D01*
X186421332Y-69165574D01*
X186474099Y-69038182D01*
X186501000Y-68902944D01*
X186501000Y-68765056D01*
X186474099Y-68629818D01*
X186421332Y-68502426D01*
X186344726Y-68387776D01*
X186247224Y-68290274D01*
X186132574Y-68213668D01*
X186005182Y-68160901D01*
X185869944Y-68134000D01*
X185737396Y-68134000D01*
X183870005Y-66266610D01*
X183870005Y-59181937D01*
X183963731Y-59088211D01*
X184040337Y-58973561D01*
X184093104Y-58846169D01*
X184120005Y-58710931D01*
X184120005Y-58573043D01*
X184093104Y-58437805D01*
X184040337Y-58310413D01*
X183963731Y-58195763D01*
X183866229Y-58098261D01*
X183751579Y-58021655D01*
X183624187Y-57968888D01*
X183488949Y-57941987D01*
X183351061Y-57941987D01*
X183215823Y-57968888D01*
X183088431Y-58021655D01*
X182973781Y-58098261D01*
X182876279Y-58195763D01*
X182799673Y-58310413D01*
X182746906Y-58437805D01*
X182720005Y-58573043D01*
X130340000Y-58573043D01*
X130340000Y-54033056D01*
X149160000Y-54033056D01*
X149160000Y-54170944D01*
X149186901Y-54306182D01*
X149239668Y-54433574D01*
X149316274Y-54548224D01*
X149413776Y-54645726D01*
X149528426Y-54722332D01*
X149655818Y-54775099D01*
X149791056Y-54802000D01*
X149923605Y-54802000D01*
X150669176Y-55547572D01*
X150683263Y-55564737D01*
X150700428Y-55578824D01*
X150700432Y-55578828D01*
X150751783Y-55620971D01*
X150789672Y-55641223D01*
X150829959Y-55662757D01*
X150914785Y-55688489D01*
X150980895Y-55695000D01*
X150980905Y-55695000D01*
X151002999Y-55697176D01*
X151025094Y-55695000D01*
X154146060Y-55695000D01*
X154239786Y-55788726D01*
X154354436Y-55865332D01*
X154481828Y-55918099D01*
X154617066Y-55945000D01*
X154754954Y-55945000D01*
X154890192Y-55918099D01*
X155017584Y-55865332D01*
X155132234Y-55788726D01*
X155229736Y-55691224D01*
X155306342Y-55576574D01*
X155359109Y-55449182D01*
X155386010Y-55313944D01*
X155386010Y-55176056D01*
X155359109Y-55040818D01*
X155306342Y-54913426D01*
X155229736Y-54798776D01*
X155132234Y-54701274D01*
X155017584Y-54624668D01*
X154890192Y-54571901D01*
X154754954Y-54545000D01*
X154617066Y-54545000D01*
X154481828Y-54571901D01*
X154354436Y-54624668D01*
X154239786Y-54701274D01*
X154146060Y-54795000D01*
X151189396Y-54795000D01*
X150560000Y-54165605D01*
X150560000Y-54033056D01*
X150533099Y-53897818D01*
X150480332Y-53770426D01*
X150403726Y-53655776D01*
X150306224Y-53558274D01*
X150191574Y-53481668D01*
X150064182Y-53428901D01*
X149928944Y-53402000D01*
X149791056Y-53402000D01*
X149655818Y-53428901D01*
X149528426Y-53481668D01*
X149413776Y-53558274D01*
X149316274Y-53655776D01*
X149239668Y-53770426D01*
X149186901Y-53897818D01*
X149160000Y-54033056D01*
X130340000Y-54033056D01*
X130340000Y-51893370D01*
X131274770Y-50958600D01*
X131461590Y-50958600D01*
X131693427Y-50912484D01*
X131911813Y-50822026D01*
X132108355Y-50690701D01*
X132275501Y-50523555D01*
X132406826Y-50327013D01*
X132497284Y-50108627D01*
X132543400Y-49876790D01*
X132543400Y-49640410D01*
X132497284Y-49408573D01*
X132406826Y-49190187D01*
X132275501Y-48993645D01*
X132108355Y-48826499D01*
X131911813Y-48695174D01*
X131693427Y-48604716D01*
X131461590Y-48558600D01*
X131225210Y-48558600D01*
X130993373Y-48604716D01*
X130774987Y-48695174D01*
X130578445Y-48826499D01*
X130411299Y-48993645D01*
X130279974Y-49190187D01*
X130189516Y-49408573D01*
X130143400Y-49640410D01*
X130143400Y-49827230D01*
X129002103Y-50968527D01*
X128971578Y-50993578D01*
X128917151Y-51059899D01*
X128871607Y-51115394D01*
X128797322Y-51254372D01*
X128797321Y-51254373D01*
X128751576Y-51405174D01*
X128740000Y-51522707D01*
X128736130Y-51562000D01*
X128740000Y-51601291D01*
X128740001Y-63930628D01*
X124557103Y-68113527D01*
X124526578Y-68138578D01*
X124472151Y-68204899D01*
X124426607Y-68260394D01*
X124410636Y-68290274D01*
X124352321Y-68399373D01*
X124306576Y-68550174D01*
X124298732Y-68629818D01*
X124291962Y-68698549D01*
X124245000Y-68698549D01*
X124186190Y-68704341D01*
X124129640Y-68721496D01*
X124077523Y-68749353D01*
X124031842Y-68786842D01*
X123994353Y-68832523D01*
X123966496Y-68884640D01*
X123949341Y-68941190D01*
X123943549Y-69000000D01*
X117056925Y-69000000D01*
X116896297Y-68892672D01*
X116386730Y-68681602D01*
X115845776Y-68574000D01*
X115294224Y-68574000D01*
X114753270Y-68681602D01*
X114243703Y-68892672D01*
X113785104Y-69199098D01*
X113395098Y-69589104D01*
X113088672Y-70047703D01*
X112877602Y-70557270D01*
X112770000Y-71098224D01*
X108910000Y-71098224D01*
X108910000Y-62796056D01*
X120915200Y-62796056D01*
X120915200Y-62933944D01*
X120942101Y-63069182D01*
X120994868Y-63196574D01*
X121071474Y-63311224D01*
X121168976Y-63408726D01*
X121283626Y-63485332D01*
X121411018Y-63538099D01*
X121546256Y-63565000D01*
X121684144Y-63565000D01*
X121819382Y-63538099D01*
X121946774Y-63485332D01*
X122061424Y-63408726D01*
X122158926Y-63311224D01*
X122235532Y-63196574D01*
X122288299Y-63069182D01*
X122315200Y-62933944D01*
X122315200Y-62801395D01*
X122588996Y-62527600D01*
X126393706Y-62527600D01*
X126415800Y-62529776D01*
X126437894Y-62527600D01*
X126437905Y-62527600D01*
X126504015Y-62521089D01*
X126588841Y-62495357D01*
X126667016Y-62453571D01*
X126735537Y-62397337D01*
X126749628Y-62380167D01*
X126910995Y-62218800D01*
X127043544Y-62218800D01*
X127178782Y-62191899D01*
X127306174Y-62139132D01*
X127420824Y-62062526D01*
X127518326Y-61965024D01*
X127594932Y-61850374D01*
X127647699Y-61722982D01*
X127674600Y-61587744D01*
X127674600Y-61449856D01*
X127647699Y-61314618D01*
X127594932Y-61187226D01*
X127518326Y-61072576D01*
X127420824Y-60975074D01*
X127306174Y-60898468D01*
X127178782Y-60845701D01*
X127043544Y-60818800D01*
X126905656Y-60818800D01*
X126770418Y-60845701D01*
X126643026Y-60898468D01*
X126528376Y-60975074D01*
X126430874Y-61072576D01*
X126354268Y-61187226D01*
X126301501Y-61314618D01*
X126274600Y-61449856D01*
X126274600Y-61582405D01*
X126229405Y-61627600D01*
X122424694Y-61627600D01*
X122402600Y-61625424D01*
X122380506Y-61627600D01*
X122380495Y-61627600D01*
X122314385Y-61634111D01*
X122229559Y-61659843D01*
X122151383Y-61701629D01*
X122100032Y-61743772D01*
X122100028Y-61743776D01*
X122082863Y-61757863D01*
X122068776Y-61775028D01*
X121678805Y-62165000D01*
X121546256Y-62165000D01*
X121411018Y-62191901D01*
X121283626Y-62244668D01*
X121168976Y-62321274D01*
X121071474Y-62418776D01*
X120994868Y-62533426D01*
X120942101Y-62660818D01*
X120915200Y-62796056D01*
X108910000Y-62796056D01*
X108910000Y-50585000D01*
X111878549Y-50585000D01*
X111878549Y-52285000D01*
X111884341Y-52343810D01*
X111901496Y-52400360D01*
X111929353Y-52452477D01*
X111966842Y-52498158D01*
X112012523Y-52535647D01*
X112064640Y-52563504D01*
X112121190Y-52580659D01*
X112180000Y-52586451D01*
X113880000Y-52586451D01*
X113938810Y-52580659D01*
X113995360Y-52563504D01*
X114047477Y-52535647D01*
X114093158Y-52498158D01*
X114130647Y-52452477D01*
X114158504Y-52400360D01*
X114175659Y-52343810D01*
X114181451Y-52285000D01*
X114181451Y-50585000D01*
X114175659Y-50526190D01*
X114158504Y-50469640D01*
X114130647Y-50417523D01*
X114093158Y-50371842D01*
X114047477Y-50334353D01*
X113995360Y-50306496D01*
X113938810Y-50289341D01*
X113880000Y-50283549D01*
X112180000Y-50283549D01*
X112121190Y-50289341D01*
X112064640Y-50306496D01*
X112012523Y-50334353D01*
X111966842Y-50371842D01*
X111929353Y-50417523D01*
X111901496Y-50469640D01*
X111884341Y-50526190D01*
X111878549Y-50585000D01*
X108910000Y-50585000D01*
X108910000Y-45011056D01*
X156901990Y-45011056D01*
X156901990Y-45148944D01*
X156928891Y-45284182D01*
X156981658Y-45411574D01*
X157058264Y-45526224D01*
X157155766Y-45623726D01*
X157270416Y-45700332D01*
X157397808Y-45753099D01*
X157533046Y-45780000D01*
X157665000Y-45780000D01*
X157665001Y-56138586D01*
X157592801Y-56210786D01*
X157516195Y-56325436D01*
X157463428Y-56452828D01*
X157436527Y-56588066D01*
X157436527Y-56725954D01*
X157463428Y-56861192D01*
X157516195Y-56988584D01*
X157592801Y-57103234D01*
X157690303Y-57200736D01*
X157804953Y-57277342D01*
X157932345Y-57330109D01*
X158067583Y-57357010D01*
X158205471Y-57357010D01*
X158340709Y-57330109D01*
X158468101Y-57277342D01*
X158582751Y-57200736D01*
X158680253Y-57103234D01*
X158756859Y-56988584D01*
X158809626Y-56861192D01*
X158836527Y-56725954D01*
X158836527Y-56588066D01*
X158809626Y-56452828D01*
X158756859Y-56325436D01*
X158680253Y-56210786D01*
X158582751Y-56113284D01*
X158565000Y-56101423D01*
X158565000Y-48445056D01*
X162875994Y-48445056D01*
X162875994Y-48582944D01*
X162902895Y-48718182D01*
X162955662Y-48845574D01*
X163032268Y-48960224D01*
X163125994Y-49053950D01*
X163125995Y-55915202D01*
X163111820Y-55941721D01*
X163083229Y-56035971D01*
X163073575Y-56133988D01*
X163083229Y-56232005D01*
X163111820Y-56326255D01*
X163130006Y-56360278D01*
X163130006Y-56456944D01*
X163156907Y-56592182D01*
X163209674Y-56719574D01*
X163286280Y-56834224D01*
X163383782Y-56931726D01*
X163498432Y-57008332D01*
X163625824Y-57061099D01*
X163761062Y-57088000D01*
X163898950Y-57088000D01*
X164034188Y-57061099D01*
X164161580Y-57008332D01*
X164276230Y-56931726D01*
X164373732Y-56834224D01*
X164450338Y-56719574D01*
X164503105Y-56592182D01*
X164506909Y-56573056D01*
X181545000Y-56573056D01*
X181545000Y-56710944D01*
X181571901Y-56846182D01*
X181624668Y-56973574D01*
X181701274Y-57088224D01*
X181798776Y-57185726D01*
X181913426Y-57262332D01*
X182040818Y-57315099D01*
X182176056Y-57342000D01*
X182313944Y-57342000D01*
X182449182Y-57315099D01*
X182576574Y-57262332D01*
X182691224Y-57185726D01*
X182784950Y-57092000D01*
X189678605Y-57092000D01*
X191685001Y-59098397D01*
X191685000Y-68151050D01*
X191591274Y-68244776D01*
X191514668Y-68359426D01*
X191461901Y-68486818D01*
X191435000Y-68622056D01*
X191435000Y-68759944D01*
X191461901Y-68895182D01*
X191514668Y-69022574D01*
X191591274Y-69137224D01*
X191688776Y-69234726D01*
X191803426Y-69311332D01*
X191930818Y-69364099D01*
X192066056Y-69391000D01*
X192203944Y-69391000D01*
X192339182Y-69364099D01*
X192466574Y-69311332D01*
X192581224Y-69234726D01*
X192678726Y-69137224D01*
X192755332Y-69022574D01*
X192808099Y-68895182D01*
X192835000Y-68759944D01*
X192835000Y-68622056D01*
X192808099Y-68486818D01*
X192755332Y-68359426D01*
X192678726Y-68244776D01*
X192585000Y-68151050D01*
X192585000Y-58934094D01*
X192587176Y-58912000D01*
X192585000Y-58889906D01*
X192585000Y-58889895D01*
X192578489Y-58823785D01*
X192552757Y-58738959D01*
X192516546Y-58671214D01*
X192510971Y-58660783D01*
X192468828Y-58609432D01*
X192468824Y-58609428D01*
X192454737Y-58592263D01*
X192437572Y-58578176D01*
X190198829Y-56339434D01*
X190184737Y-56322263D01*
X190116216Y-56266029D01*
X190038041Y-56224243D01*
X189953215Y-56198511D01*
X189887105Y-56192000D01*
X189887094Y-56192000D01*
X189865000Y-56189824D01*
X189842906Y-56192000D01*
X182784950Y-56192000D01*
X182691224Y-56098274D01*
X182576574Y-56021668D01*
X182449182Y-55968901D01*
X182313944Y-55942000D01*
X182176056Y-55942000D01*
X182040818Y-55968901D01*
X181913426Y-56021668D01*
X181798776Y-56098274D01*
X181701274Y-56195776D01*
X181624668Y-56310426D01*
X181571901Y-56437818D01*
X181545000Y-56573056D01*
X164506909Y-56573056D01*
X164530006Y-56456944D01*
X164530006Y-56319056D01*
X164503105Y-56183818D01*
X164450338Y-56056426D01*
X164373732Y-55941776D01*
X164276230Y-55844274D01*
X164161580Y-55767668D01*
X164034188Y-55714901D01*
X164025994Y-55713271D01*
X164025994Y-53588556D01*
X174814000Y-53588556D01*
X174814000Y-53726444D01*
X174840901Y-53861682D01*
X174893668Y-53989074D01*
X174970274Y-54103724D01*
X175067776Y-54201226D01*
X175182426Y-54277832D01*
X175309818Y-54330599D01*
X175445056Y-54357500D01*
X175577605Y-54357500D01*
X176196176Y-54976072D01*
X176210263Y-54993237D01*
X176227428Y-55007324D01*
X176227432Y-55007328D01*
X176278783Y-55049471D01*
X176320855Y-55071959D01*
X176356959Y-55091257D01*
X176441785Y-55116989D01*
X176507895Y-55123500D01*
X176507905Y-55123500D01*
X176530000Y-55125676D01*
X176552094Y-55123500D01*
X188563050Y-55123500D01*
X188656776Y-55217226D01*
X188771426Y-55293832D01*
X188898818Y-55346599D01*
X189034056Y-55373500D01*
X189171944Y-55373500D01*
X189307182Y-55346599D01*
X189434574Y-55293832D01*
X189549224Y-55217226D01*
X189646726Y-55119724D01*
X189723332Y-55005074D01*
X189776099Y-54877682D01*
X189803000Y-54742444D01*
X189803000Y-54604556D01*
X189776099Y-54469318D01*
X189723332Y-54341926D01*
X189646726Y-54227276D01*
X189549224Y-54129774D01*
X189434574Y-54053168D01*
X189307182Y-54000401D01*
X189171944Y-53973500D01*
X189034056Y-53973500D01*
X188898818Y-54000401D01*
X188771426Y-54053168D01*
X188656776Y-54129774D01*
X188563050Y-54223500D01*
X176716396Y-54223500D01*
X176214000Y-53721105D01*
X176214000Y-53588556D01*
X176187099Y-53453318D01*
X176134332Y-53325926D01*
X176057726Y-53211276D01*
X175960224Y-53113774D01*
X175845574Y-53037168D01*
X175718182Y-52984401D01*
X175582944Y-52957500D01*
X175445056Y-52957500D01*
X175309818Y-52984401D01*
X175182426Y-53037168D01*
X175067776Y-53113774D01*
X174970274Y-53211276D01*
X174893668Y-53325926D01*
X174840901Y-53453318D01*
X174814000Y-53588556D01*
X164025994Y-53588556D01*
X164025994Y-49053950D01*
X164119720Y-48960224D01*
X164196326Y-48845574D01*
X164249093Y-48718182D01*
X164275994Y-48582944D01*
X164275994Y-48445056D01*
X164249093Y-48309818D01*
X164196326Y-48182426D01*
X164119720Y-48067776D01*
X164022218Y-47970274D01*
X163907568Y-47893668D01*
X163780176Y-47840901D01*
X163644938Y-47814000D01*
X163507050Y-47814000D01*
X163371812Y-47840901D01*
X163244420Y-47893668D01*
X163129770Y-47970274D01*
X163032268Y-48067776D01*
X162955662Y-48182426D01*
X162902895Y-48309818D01*
X162875994Y-48445056D01*
X158565000Y-48445056D01*
X158565000Y-45615094D01*
X158567176Y-45593000D01*
X158565000Y-45570906D01*
X158565000Y-45570895D01*
X158558489Y-45504785D01*
X158532757Y-45419959D01*
X158490972Y-45341785D01*
X158490971Y-45341783D01*
X158448828Y-45290432D01*
X158448824Y-45290428D01*
X158434737Y-45273263D01*
X158417573Y-45259177D01*
X158301990Y-45143594D01*
X158301990Y-45011056D01*
X158275089Y-44875818D01*
X158222322Y-44748426D01*
X158145716Y-44633776D01*
X158048214Y-44536274D01*
X157933564Y-44459668D01*
X157806172Y-44406901D01*
X157670934Y-44380000D01*
X157533046Y-44380000D01*
X157397808Y-44406901D01*
X157270416Y-44459668D01*
X157155766Y-44536274D01*
X157058264Y-44633776D01*
X156981658Y-44748426D01*
X156928891Y-44875818D01*
X156901990Y-45011056D01*
X108910000Y-45011056D01*
X108910000Y-43701735D01*
X111880000Y-43701735D01*
X111880000Y-43928265D01*
X111924194Y-44150443D01*
X112010884Y-44359729D01*
X112136737Y-44548082D01*
X112296918Y-44708263D01*
X112485271Y-44834116D01*
X112694557Y-44920806D01*
X112916735Y-44965000D01*
X113143265Y-44965000D01*
X113365443Y-44920806D01*
X113574729Y-44834116D01*
X113763082Y-44708263D01*
X113923263Y-44548082D01*
X114049116Y-44359729D01*
X114135806Y-44150443D01*
X114180000Y-43928265D01*
X114180000Y-43701735D01*
X114135806Y-43479557D01*
X114049116Y-43270271D01*
X113923263Y-43081918D01*
X113830000Y-42988655D01*
X113830000Y-38939370D01*
X118949185Y-33820185D01*
X129274752Y-33820185D01*
X129319099Y-33886555D01*
X129486245Y-34053701D01*
X129682787Y-34185026D01*
X129901173Y-34275484D01*
X130133010Y-34321600D01*
X130369390Y-34321600D01*
X130601227Y-34275484D01*
X130819613Y-34185026D01*
X131016155Y-34053701D01*
X131183301Y-33886555D01*
X131314626Y-33690013D01*
X131405084Y-33471627D01*
X131451200Y-33239790D01*
X131451200Y-33003410D01*
X131405084Y-32771573D01*
X131314626Y-32553187D01*
X131183301Y-32356645D01*
X131016155Y-32189499D01*
X130819613Y-32058174D01*
X130601227Y-31967716D01*
X130369390Y-31921600D01*
X130182571Y-31921600D01*
X129053027Y-30792056D01*
X135952000Y-30792056D01*
X135952000Y-30929944D01*
X135978901Y-31065182D01*
X136031668Y-31192574D01*
X136108274Y-31307224D01*
X136202000Y-31400950D01*
X136202001Y-34994649D01*
X136108274Y-35088376D01*
X136031668Y-35203026D01*
X135978901Y-35330418D01*
X135952000Y-35465656D01*
X135952000Y-35603544D01*
X135978901Y-35738782D01*
X136031668Y-35866174D01*
X136108274Y-35980824D01*
X136205776Y-36078326D01*
X136320426Y-36154932D01*
X136447818Y-36207699D01*
X136583056Y-36234600D01*
X136720944Y-36234600D01*
X136856182Y-36207699D01*
X136983574Y-36154932D01*
X137098224Y-36078326D01*
X137195726Y-35980824D01*
X137272332Y-35866174D01*
X137325099Y-35738782D01*
X137352000Y-35603544D01*
X137352000Y-35465656D01*
X137325099Y-35330418D01*
X137272332Y-35203026D01*
X137195726Y-35088376D01*
X137102000Y-34994650D01*
X137102000Y-34983056D01*
X174052002Y-34983056D01*
X174052002Y-35120944D01*
X174078903Y-35256182D01*
X174131670Y-35383574D01*
X174208276Y-35498224D01*
X174305778Y-35595726D01*
X174420428Y-35672332D01*
X174547820Y-35725099D01*
X174683058Y-35752000D01*
X174815607Y-35752000D01*
X197670001Y-58606395D01*
X197670000Y-65523549D01*
X197270000Y-65523549D01*
X197211190Y-65529341D01*
X197154640Y-65546496D01*
X197102523Y-65574353D01*
X197056842Y-65611842D01*
X197019353Y-65657523D01*
X196991496Y-65709640D01*
X196974341Y-65766190D01*
X196968549Y-65825000D01*
X196968549Y-67525000D01*
X196974341Y-67583810D01*
X196991496Y-67640360D01*
X197019353Y-67692477D01*
X197056842Y-67738158D01*
X197102523Y-67775647D01*
X197154640Y-67803504D01*
X197211190Y-67820659D01*
X197270000Y-67826451D01*
X198970000Y-67826451D01*
X199028810Y-67820659D01*
X199085360Y-67803504D01*
X199137477Y-67775647D01*
X199183158Y-67738158D01*
X199220647Y-67692477D01*
X199248504Y-67640360D01*
X199265659Y-67583810D01*
X199271451Y-67525000D01*
X199271451Y-65825000D01*
X199265659Y-65766190D01*
X199248504Y-65709640D01*
X199220647Y-65657523D01*
X199183158Y-65611842D01*
X199137477Y-65574353D01*
X199085360Y-65546496D01*
X199028810Y-65529341D01*
X198970000Y-65523549D01*
X198570000Y-65523549D01*
X198570000Y-58442092D01*
X198572176Y-58419998D01*
X198570000Y-58397904D01*
X198570000Y-58397893D01*
X198563489Y-58331783D01*
X198537757Y-58246957D01*
X198507211Y-58189810D01*
X198495971Y-58168781D01*
X198453828Y-58117430D01*
X198453824Y-58117426D01*
X198439737Y-58100261D01*
X198422572Y-58086174D01*
X175452002Y-35115605D01*
X175452002Y-34983056D01*
X175425101Y-34847818D01*
X175372334Y-34720426D01*
X175295728Y-34605776D01*
X175198226Y-34508274D01*
X175083576Y-34431668D01*
X174956184Y-34378901D01*
X174820946Y-34352000D01*
X174683058Y-34352000D01*
X174547820Y-34378901D01*
X174420428Y-34431668D01*
X174305778Y-34508274D01*
X174208276Y-34605776D01*
X174131670Y-34720426D01*
X174078903Y-34847818D01*
X174052002Y-34983056D01*
X137102000Y-34983056D01*
X137102000Y-31427056D01*
X174814000Y-31427056D01*
X174814000Y-31564944D01*
X174840901Y-31700182D01*
X174893668Y-31827574D01*
X174970274Y-31942224D01*
X175064001Y-32035951D01*
X175064000Y-34013905D01*
X175061824Y-34036000D01*
X175064000Y-34058094D01*
X175064000Y-34058104D01*
X175070511Y-34124214D01*
X175096243Y-34209040D01*
X175138029Y-34287216D01*
X175167478Y-34323099D01*
X175194263Y-34355737D01*
X175211434Y-34369829D01*
X200210001Y-59368397D01*
X200210000Y-65616645D01*
X200115271Y-65655884D01*
X199926918Y-65781737D01*
X199766737Y-65941918D01*
X199640884Y-66130271D01*
X199554194Y-66339557D01*
X199510000Y-66561735D01*
X199510000Y-66788265D01*
X199554194Y-67010443D01*
X199640884Y-67219729D01*
X199766737Y-67408082D01*
X199926918Y-67568263D01*
X200115271Y-67694116D01*
X200324557Y-67780806D01*
X200546735Y-67825000D01*
X200773265Y-67825000D01*
X200995443Y-67780806D01*
X201204729Y-67694116D01*
X201393082Y-67568263D01*
X201553263Y-67408082D01*
X201679116Y-67219729D01*
X201765806Y-67010443D01*
X201810000Y-66788265D01*
X201810000Y-66561735D01*
X204590000Y-66561735D01*
X204590000Y-66788265D01*
X204634194Y-67010443D01*
X204720884Y-67219729D01*
X204846737Y-67408082D01*
X205006918Y-67568263D01*
X205195271Y-67694116D01*
X205404557Y-67780806D01*
X205626735Y-67825000D01*
X205853265Y-67825000D01*
X206075443Y-67780806D01*
X206284729Y-67694116D01*
X206473082Y-67568263D01*
X206633263Y-67408082D01*
X206759116Y-67219729D01*
X206845806Y-67010443D01*
X206890000Y-66788265D01*
X206890000Y-66561735D01*
X206845806Y-66339557D01*
X206759116Y-66130271D01*
X206633263Y-65941918D01*
X206473082Y-65781737D01*
X206284729Y-65655884D01*
X206075443Y-65569194D01*
X205853265Y-65525000D01*
X205626735Y-65525000D01*
X205404557Y-65569194D01*
X205195271Y-65655884D01*
X205006918Y-65781737D01*
X204846737Y-65941918D01*
X204720884Y-66130271D01*
X204634194Y-66339557D01*
X204590000Y-66561735D01*
X201810000Y-66561735D01*
X201765806Y-66339557D01*
X201679116Y-66130271D01*
X201553263Y-65941918D01*
X201393082Y-65781737D01*
X201204729Y-65655884D01*
X201110000Y-65616646D01*
X201110000Y-59204093D01*
X201112176Y-59181999D01*
X201110000Y-59159905D01*
X201110000Y-59159895D01*
X201103489Y-59093785D01*
X201077757Y-59008959D01*
X201058836Y-58973561D01*
X201035971Y-58930783D01*
X200993828Y-58879432D01*
X200993824Y-58879428D01*
X200979737Y-58862263D01*
X200962572Y-58848176D01*
X176449457Y-34335062D01*
X176524556Y-34350000D01*
X176662444Y-34350000D01*
X176797682Y-34323099D01*
X176925074Y-34270332D01*
X177039724Y-34193726D01*
X177070652Y-34162798D01*
X200741426Y-57833572D01*
X200755513Y-57850737D01*
X200772678Y-57864824D01*
X200772682Y-57864828D01*
X200824033Y-57906971D01*
X200889543Y-57941987D01*
X200902209Y-57948757D01*
X200987035Y-57974489D01*
X201053145Y-57981000D01*
X201053155Y-57981000D01*
X201075249Y-57983176D01*
X201097344Y-57981000D01*
X209146906Y-57981000D01*
X209169000Y-57983176D01*
X209191094Y-57981000D01*
X209191105Y-57981000D01*
X209257215Y-57974489D01*
X209342041Y-57948757D01*
X209420216Y-57906971D01*
X209488737Y-57850737D01*
X209502829Y-57833566D01*
X211659828Y-55676568D01*
X211754557Y-55715806D01*
X211976735Y-55760000D01*
X212203265Y-55760000D01*
X212425443Y-55715806D01*
X212634729Y-55629116D01*
X212823082Y-55503263D01*
X212983263Y-55343082D01*
X213109116Y-55154729D01*
X213195806Y-54945443D01*
X213240000Y-54723265D01*
X213240000Y-54496735D01*
X213195806Y-54274557D01*
X213109116Y-54065271D01*
X212983263Y-53876918D01*
X212823082Y-53716737D01*
X212634729Y-53590884D01*
X212425443Y-53504194D01*
X212203265Y-53460000D01*
X211976735Y-53460000D01*
X211754557Y-53504194D01*
X211545271Y-53590884D01*
X211356918Y-53716737D01*
X211196737Y-53876918D01*
X211070884Y-54065271D01*
X210984194Y-54274557D01*
X210940000Y-54496735D01*
X210940000Y-54723265D01*
X210984194Y-54945443D01*
X211023432Y-55040172D01*
X208982605Y-57081000D01*
X201261646Y-57081000D01*
X177528079Y-33347434D01*
X177513987Y-33330263D01*
X177445466Y-33274029D01*
X177367291Y-33232243D01*
X177282465Y-33206511D01*
X177216355Y-33200000D01*
X177216344Y-33200000D01*
X177194250Y-33197824D01*
X177172156Y-33200000D01*
X177133450Y-33200000D01*
X177039724Y-33106274D01*
X176925074Y-33029668D01*
X176797682Y-32976901D01*
X176662444Y-32950000D01*
X176524556Y-32950000D01*
X176389318Y-32976901D01*
X176261926Y-33029668D01*
X176147276Y-33106274D01*
X176049774Y-33203776D01*
X175973168Y-33318426D01*
X175964000Y-33340560D01*
X175964000Y-32316056D01*
X176973000Y-32316056D01*
X176973000Y-32453944D01*
X176999901Y-32589182D01*
X177052668Y-32716574D01*
X177129274Y-32831224D01*
X177226776Y-32928726D01*
X177341426Y-33005332D01*
X177468818Y-33058099D01*
X177604056Y-33085000D01*
X177736605Y-33085000D01*
X200814177Y-56162573D01*
X200828264Y-56179738D01*
X200845429Y-56193825D01*
X200845433Y-56193829D01*
X200896784Y-56235972D01*
X200950276Y-56264564D01*
X200974960Y-56277758D01*
X201059786Y-56303490D01*
X201125896Y-56310001D01*
X201125907Y-56310001D01*
X201148001Y-56312177D01*
X201170095Y-56310001D01*
X208277905Y-56310001D01*
X208299999Y-56312177D01*
X208322093Y-56310001D01*
X208322104Y-56310001D01*
X208388214Y-56303490D01*
X208473040Y-56277758D01*
X208551215Y-56235972D01*
X208619736Y-56179738D01*
X208633828Y-56162567D01*
X209119828Y-55676568D01*
X209214557Y-55715806D01*
X209436735Y-55760000D01*
X209663265Y-55760000D01*
X209885443Y-55715806D01*
X210094729Y-55629116D01*
X210283082Y-55503263D01*
X210443263Y-55343082D01*
X210569116Y-55154729D01*
X210655806Y-54945443D01*
X210700000Y-54723265D01*
X210700000Y-54496735D01*
X210655806Y-54274557D01*
X210569116Y-54065271D01*
X210443263Y-53876918D01*
X210283082Y-53716737D01*
X210094729Y-53590884D01*
X209885443Y-53504194D01*
X209663265Y-53460000D01*
X209436735Y-53460000D01*
X209214557Y-53504194D01*
X209005271Y-53590884D01*
X208816918Y-53716737D01*
X208656737Y-53876918D01*
X208530884Y-54065271D01*
X208444194Y-54274557D01*
X208400000Y-54496735D01*
X208400000Y-54723265D01*
X208444194Y-54945443D01*
X208483432Y-55040172D01*
X208161451Y-55362154D01*
X208161451Y-53760000D01*
X208155659Y-53701190D01*
X208138504Y-53644640D01*
X208110647Y-53592523D01*
X208073158Y-53546842D01*
X208027477Y-53509353D01*
X207975360Y-53481496D01*
X207918810Y-53464341D01*
X207860000Y-53458549D01*
X206160000Y-53458549D01*
X206101190Y-53464341D01*
X206044640Y-53481496D01*
X205992523Y-53509353D01*
X205946842Y-53546842D01*
X205909353Y-53592523D01*
X205881496Y-53644640D01*
X205864341Y-53701190D01*
X205858549Y-53760000D01*
X205858549Y-55410001D01*
X201334397Y-55410001D01*
X192591452Y-46667056D01*
X197293000Y-46667056D01*
X197293000Y-46804944D01*
X197319901Y-46940182D01*
X197372668Y-47067574D01*
X197449274Y-47182224D01*
X197546776Y-47279726D01*
X197661426Y-47356332D01*
X197788818Y-47409099D01*
X197924056Y-47436000D01*
X198061944Y-47436000D01*
X198197182Y-47409099D01*
X198324574Y-47356332D01*
X198439224Y-47279726D01*
X198536726Y-47182224D01*
X198613332Y-47067574D01*
X198666099Y-46940182D01*
X198693000Y-46804944D01*
X198693000Y-46672382D01*
X210106577Y-35258806D01*
X210123741Y-35244720D01*
X210137828Y-35227555D01*
X210137832Y-35227551D01*
X210179975Y-35176200D01*
X210221761Y-35098024D01*
X210235722Y-35052000D01*
X210247493Y-35013198D01*
X210254004Y-34947088D01*
X210254004Y-34947078D01*
X210256180Y-34924984D01*
X210254004Y-34902889D01*
X210254004Y-34575950D01*
X210347730Y-34482224D01*
X210424336Y-34367574D01*
X210477103Y-34240182D01*
X210504004Y-34104944D01*
X210504004Y-33967056D01*
X210477103Y-33831818D01*
X210424336Y-33704426D01*
X210347730Y-33589776D01*
X210250228Y-33492274D01*
X210135578Y-33415668D01*
X210008186Y-33362901D01*
X209872948Y-33336000D01*
X209735060Y-33336000D01*
X209599822Y-33362901D01*
X209472430Y-33415668D01*
X209357780Y-33492274D01*
X209260278Y-33589776D01*
X209183672Y-33704426D01*
X209130905Y-33831818D01*
X209104004Y-33967056D01*
X209104004Y-34104944D01*
X209130905Y-34240182D01*
X209183672Y-34367574D01*
X209260278Y-34482224D01*
X209354004Y-34575950D01*
X209354004Y-34738587D01*
X198056592Y-46036000D01*
X197924056Y-46036000D01*
X197788818Y-46062901D01*
X197661426Y-46115668D01*
X197546776Y-46192274D01*
X197449274Y-46289776D01*
X197372668Y-46404426D01*
X197319901Y-46531818D01*
X197293000Y-46667056D01*
X192591452Y-46667056D01*
X178373000Y-32448605D01*
X178373000Y-32316056D01*
X178346099Y-32180818D01*
X178293332Y-32053426D01*
X178216726Y-31938776D01*
X178119224Y-31841274D01*
X178004574Y-31764668D01*
X177877182Y-31711901D01*
X177741944Y-31685000D01*
X177604056Y-31685000D01*
X177468818Y-31711901D01*
X177341426Y-31764668D01*
X177226776Y-31841274D01*
X177129274Y-31938776D01*
X177052668Y-32053426D01*
X176999901Y-32180818D01*
X176973000Y-32316056D01*
X175964000Y-32316056D01*
X175964000Y-32035950D01*
X176057726Y-31942224D01*
X176134332Y-31827574D01*
X176187099Y-31700182D01*
X176214000Y-31564944D01*
X176214000Y-31427056D01*
X176187099Y-31291818D01*
X176134332Y-31164426D01*
X176057726Y-31049776D01*
X175960224Y-30952274D01*
X175845574Y-30875668D01*
X175718182Y-30822901D01*
X175582944Y-30796000D01*
X175445056Y-30796000D01*
X175309818Y-30822901D01*
X175182426Y-30875668D01*
X175067776Y-30952274D01*
X174970274Y-31049776D01*
X174893668Y-31164426D01*
X174840901Y-31291818D01*
X174814000Y-31427056D01*
X137102000Y-31427056D01*
X137102000Y-31400950D01*
X137195726Y-31307224D01*
X137272332Y-31192574D01*
X137325099Y-31065182D01*
X137352000Y-30929944D01*
X137352000Y-30792056D01*
X137325099Y-30656818D01*
X137272332Y-30529426D01*
X137195726Y-30414776D01*
X137098224Y-30317274D01*
X136983574Y-30240668D01*
X136856182Y-30187901D01*
X136720944Y-30161000D01*
X136583056Y-30161000D01*
X136447818Y-30187901D01*
X136320426Y-30240668D01*
X136205776Y-30317274D01*
X136108274Y-30414776D01*
X136031668Y-30529426D01*
X135978901Y-30656818D01*
X135952000Y-30792056D01*
X129053027Y-30792056D01*
X127987781Y-29726810D01*
X156915000Y-29726810D01*
X156915000Y-29963190D01*
X156961116Y-30195027D01*
X157051574Y-30413413D01*
X157182899Y-30609955D01*
X157350045Y-30777101D01*
X157546587Y-30908426D01*
X157764973Y-30998884D01*
X157996810Y-31045000D01*
X158233190Y-31045000D01*
X158465027Y-30998884D01*
X158683413Y-30908426D01*
X158879955Y-30777101D01*
X159047101Y-30609955D01*
X159178426Y-30413413D01*
X159268884Y-30195027D01*
X159315000Y-29963190D01*
X159315000Y-29776371D01*
X159793861Y-29297509D01*
X159886487Y-29248000D01*
X176925509Y-29248000D01*
X176845778Y-29301274D01*
X176748276Y-29398776D01*
X176671670Y-29513426D01*
X176618903Y-29640818D01*
X176592002Y-29776056D01*
X176592002Y-29913944D01*
X176618903Y-30049182D01*
X176671670Y-30176574D01*
X176748276Y-30291224D01*
X176845778Y-30388726D01*
X176960428Y-30465332D01*
X177087820Y-30518099D01*
X177223058Y-30545000D01*
X177355607Y-30545000D01*
X179942678Y-33132072D01*
X179956765Y-33149237D01*
X179973930Y-33163324D01*
X179973934Y-33163328D01*
X180025285Y-33205471D01*
X180075372Y-33232243D01*
X180103461Y-33247257D01*
X180188287Y-33272989D01*
X180254397Y-33279500D01*
X180254409Y-33279500D01*
X180276501Y-33281676D01*
X180298593Y-33279500D01*
X186721550Y-33279500D01*
X186815276Y-33373226D01*
X186929926Y-33449832D01*
X187057318Y-33502599D01*
X187192556Y-33529500D01*
X187330444Y-33529500D01*
X187465682Y-33502599D01*
X187593074Y-33449832D01*
X187707724Y-33373226D01*
X187805226Y-33275724D01*
X187881832Y-33161074D01*
X187934599Y-33033682D01*
X187961500Y-32898444D01*
X187961500Y-32760556D01*
X187934599Y-32625318D01*
X187881832Y-32497926D01*
X187805226Y-32383276D01*
X187707724Y-32285774D01*
X187593074Y-32209168D01*
X187465682Y-32156401D01*
X187330444Y-32129500D01*
X187192556Y-32129500D01*
X187057318Y-32156401D01*
X186929926Y-32209168D01*
X186815276Y-32285774D01*
X186721550Y-32379500D01*
X180462898Y-32379500D01*
X177992002Y-29908605D01*
X177992002Y-29776056D01*
X177965101Y-29640818D01*
X177912334Y-29513426D01*
X177835728Y-29398776D01*
X177738226Y-29301274D01*
X177658495Y-29248000D01*
X181062709Y-29248000D01*
X181102000Y-29251870D01*
X181141291Y-29248000D01*
X181141293Y-29248000D01*
X181258827Y-29236424D01*
X181409628Y-29190679D01*
X181548606Y-29116393D01*
X181670422Y-29016422D01*
X181695473Y-28985897D01*
X182303371Y-28378000D01*
X182490190Y-28378000D01*
X182722027Y-28331884D01*
X182940413Y-28241426D01*
X183136955Y-28110101D01*
X183304101Y-27942955D01*
X183435426Y-27746413D01*
X183525884Y-27528027D01*
X183572000Y-27296190D01*
X183572000Y-27059810D01*
X183525884Y-26827973D01*
X183435426Y-26609587D01*
X183304101Y-26413045D01*
X183136955Y-26245899D01*
X182940413Y-26114574D01*
X182722027Y-26024116D01*
X182490190Y-25978000D01*
X182253810Y-25978000D01*
X182021973Y-26024116D01*
X181803587Y-26114574D01*
X181607045Y-26245899D01*
X181439899Y-26413045D01*
X181308574Y-26609587D01*
X181218116Y-26827973D01*
X181172000Y-27059810D01*
X181172000Y-27246629D01*
X180770630Y-27648000D01*
X159614790Y-27648000D01*
X159575499Y-27644130D01*
X159536209Y-27648000D01*
X159536207Y-27648000D01*
X159418673Y-27659576D01*
X159267872Y-27705321D01*
X159128894Y-27779607D01*
X159007078Y-27879578D01*
X158982343Y-27909718D01*
X158881243Y-27963757D01*
X158789948Y-28038681D01*
X158183629Y-28645000D01*
X157996810Y-28645000D01*
X157764973Y-28691116D01*
X157546587Y-28781574D01*
X157350045Y-28912899D01*
X157182899Y-29080045D01*
X157051574Y-29276587D01*
X156961116Y-29494973D01*
X156915000Y-29726810D01*
X127987781Y-29726810D01*
X126018673Y-27757703D01*
X125993622Y-27727178D01*
X125871806Y-27627207D01*
X125732828Y-27552921D01*
X125582027Y-27507176D01*
X125464493Y-27495600D01*
X125464491Y-27495600D01*
X125425200Y-27491730D01*
X125385909Y-27495600D01*
X122385256Y-27495600D01*
X122253155Y-27363499D01*
X122056613Y-27232174D01*
X121838227Y-27141716D01*
X121606390Y-27095600D01*
X121370010Y-27095600D01*
X121138173Y-27141716D01*
X120919787Y-27232174D01*
X120723245Y-27363499D01*
X120556099Y-27530645D01*
X120424774Y-27727187D01*
X120334316Y-27945573D01*
X120288200Y-28177410D01*
X120288200Y-28413790D01*
X120334316Y-28645627D01*
X120424774Y-28864013D01*
X120556099Y-29060555D01*
X120723245Y-29227701D01*
X120919787Y-29359026D01*
X121138173Y-29449484D01*
X121370010Y-29495600D01*
X121606390Y-29495600D01*
X121838227Y-29449484D01*
X122056613Y-29359026D01*
X122253155Y-29227701D01*
X122385256Y-29095600D01*
X125093830Y-29095600D01*
X128218414Y-32220185D01*
X118657106Y-32220185D01*
X118617815Y-32216315D01*
X118578524Y-32220185D01*
X118578522Y-32220185D01*
X118460988Y-32231761D01*
X118310187Y-32277506D01*
X118171208Y-32351792D01*
X118129513Y-32386011D01*
X118049393Y-32451763D01*
X118024342Y-32482288D01*
X112492099Y-38014531D01*
X112461579Y-38039578D01*
X112436532Y-38070098D01*
X112436531Y-38070099D01*
X112361607Y-38161394D01*
X112287321Y-38300373D01*
X112241577Y-38451173D01*
X112226130Y-38608000D01*
X112230001Y-38647301D01*
X112230000Y-42988655D01*
X112136737Y-43081918D01*
X112010884Y-43270271D01*
X111924194Y-43479557D01*
X111880000Y-43701735D01*
X108910000Y-43701735D01*
X108910000Y-23219224D01*
X112770000Y-23219224D01*
X112770000Y-23770776D01*
X112877602Y-24311730D01*
X113088672Y-24821297D01*
X113395098Y-25279896D01*
X113785104Y-25669902D01*
X114243703Y-25976328D01*
X114753270Y-26187398D01*
X115294224Y-26295000D01*
X115845776Y-26295000D01*
X116386730Y-26187398D01*
X116896297Y-25976328D01*
X117354896Y-25669902D01*
X117744902Y-25279896D01*
X118051328Y-24821297D01*
X118262398Y-24311730D01*
X118270552Y-24270735D01*
X199510000Y-24270735D01*
X199510000Y-24497265D01*
X199554194Y-24719443D01*
X199640884Y-24928729D01*
X199766737Y-25117082D01*
X199926918Y-25277263D01*
X200115271Y-25403116D01*
X200324557Y-25489806D01*
X200546735Y-25534000D01*
X200773265Y-25534000D01*
X200995443Y-25489806D01*
X201204729Y-25403116D01*
X201393082Y-25277263D01*
X201553263Y-25117082D01*
X201679116Y-24928729D01*
X201765806Y-24719443D01*
X201810000Y-24497265D01*
X201810000Y-24270735D01*
X202050000Y-24270735D01*
X202050000Y-24497265D01*
X202094194Y-24719443D01*
X202180884Y-24928729D01*
X202306737Y-25117082D01*
X202466918Y-25277263D01*
X202655271Y-25403116D01*
X202864557Y-25489806D01*
X203086735Y-25534000D01*
X203313265Y-25534000D01*
X203535443Y-25489806D01*
X203744729Y-25403116D01*
X203933082Y-25277263D01*
X204093263Y-25117082D01*
X204219116Y-24928729D01*
X204305806Y-24719443D01*
X204350000Y-24497265D01*
X204350000Y-24270735D01*
X204305806Y-24048557D01*
X204219116Y-23839271D01*
X204093263Y-23650918D01*
X203976345Y-23534000D01*
X204588549Y-23534000D01*
X204588549Y-25234000D01*
X204594341Y-25292810D01*
X204611496Y-25349360D01*
X204639353Y-25401477D01*
X204676842Y-25447158D01*
X204722523Y-25484647D01*
X204774640Y-25512504D01*
X204831190Y-25529659D01*
X204890000Y-25535451D01*
X206590000Y-25535451D01*
X206648810Y-25529659D01*
X206705360Y-25512504D01*
X206757477Y-25484647D01*
X206803158Y-25447158D01*
X206840647Y-25401477D01*
X206868504Y-25349360D01*
X206885659Y-25292810D01*
X206891451Y-25234000D01*
X206891451Y-23534000D01*
X206885659Y-23475190D01*
X206868504Y-23418640D01*
X206840647Y-23366523D01*
X206823989Y-23346224D01*
X213100000Y-23346224D01*
X213100000Y-23897776D01*
X213207602Y-24438730D01*
X213418672Y-24948297D01*
X213725098Y-25406896D01*
X214115104Y-25796902D01*
X214573703Y-26103328D01*
X215083270Y-26314398D01*
X215624224Y-26422000D01*
X216175776Y-26422000D01*
X216716730Y-26314398D01*
X217226297Y-26103328D01*
X217684896Y-25796902D01*
X218074902Y-25406896D01*
X218381328Y-24948297D01*
X218592398Y-24438730D01*
X218700000Y-23897776D01*
X218700000Y-23346224D01*
X218592398Y-22805270D01*
X218381328Y-22295703D01*
X218074902Y-21837104D01*
X217684896Y-21447098D01*
X217226297Y-21140672D01*
X216716730Y-20929602D01*
X216175776Y-20822000D01*
X215624224Y-20822000D01*
X215083270Y-20929602D01*
X214573703Y-21140672D01*
X214115104Y-21447098D01*
X213725098Y-21837104D01*
X213418672Y-22295703D01*
X213207602Y-22805270D01*
X213100000Y-23346224D01*
X206823989Y-23346224D01*
X206803158Y-23320842D01*
X206757477Y-23283353D01*
X206705360Y-23255496D01*
X206648810Y-23238341D01*
X206590000Y-23232549D01*
X204890000Y-23232549D01*
X204831190Y-23238341D01*
X204774640Y-23255496D01*
X204722523Y-23283353D01*
X204676842Y-23320842D01*
X204639353Y-23366523D01*
X204611496Y-23418640D01*
X204594341Y-23475190D01*
X204588549Y-23534000D01*
X203976345Y-23534000D01*
X203933082Y-23490737D01*
X203744729Y-23364884D01*
X203535443Y-23278194D01*
X203313265Y-23234000D01*
X203086735Y-23234000D01*
X202864557Y-23278194D01*
X202655271Y-23364884D01*
X202466918Y-23490737D01*
X202306737Y-23650918D01*
X202180884Y-23839271D01*
X202094194Y-24048557D01*
X202050000Y-24270735D01*
X201810000Y-24270735D01*
X201765806Y-24048557D01*
X201679116Y-23839271D01*
X201553263Y-23650918D01*
X201393082Y-23490737D01*
X201204729Y-23364884D01*
X200995443Y-23278194D01*
X200773265Y-23234000D01*
X200546735Y-23234000D01*
X200324557Y-23278194D01*
X200115271Y-23364884D01*
X199926918Y-23490737D01*
X199766737Y-23650918D01*
X199640884Y-23839271D01*
X199554194Y-24048557D01*
X199510000Y-24270735D01*
X118270552Y-24270735D01*
X118370000Y-23770776D01*
X118370000Y-23219224D01*
X118262398Y-22678270D01*
X118051328Y-22168703D01*
X117758688Y-21730735D01*
X204590000Y-21730735D01*
X204590000Y-21957265D01*
X204634194Y-22179443D01*
X204720884Y-22388729D01*
X204846737Y-22577082D01*
X205006918Y-22737263D01*
X205195271Y-22863116D01*
X205404557Y-22949806D01*
X205626735Y-22994000D01*
X205853265Y-22994000D01*
X206075443Y-22949806D01*
X206284729Y-22863116D01*
X206473082Y-22737263D01*
X206633263Y-22577082D01*
X206759116Y-22388729D01*
X206845806Y-22179443D01*
X206890000Y-21957265D01*
X206890000Y-21730735D01*
X206845806Y-21508557D01*
X206759116Y-21299271D01*
X206633263Y-21110918D01*
X206473082Y-20950737D01*
X206284729Y-20824884D01*
X206075443Y-20738194D01*
X205853265Y-20694000D01*
X205626735Y-20694000D01*
X205404557Y-20738194D01*
X205195271Y-20824884D01*
X205006918Y-20950737D01*
X204846737Y-21110918D01*
X204720884Y-21299271D01*
X204634194Y-21508557D01*
X204590000Y-21730735D01*
X117758688Y-21730735D01*
X117744902Y-21710104D01*
X117354896Y-21320098D01*
X116896297Y-21013672D01*
X116386730Y-20802602D01*
X115845776Y-20695000D01*
X115294224Y-20695000D01*
X114753270Y-20802602D01*
X114243703Y-21013672D01*
X113785104Y-21320098D01*
X113395098Y-21710104D01*
X113088672Y-22168703D01*
X112877602Y-22678270D01*
X112770000Y-23219224D01*
X108910000Y-23219224D01*
X108910000Y-19121000D01*
X222560001Y-19121000D01*
X222560000Y-75875000D01*
G37*
%TD.AperFunction*%
%TD*%
M02*
