%TF.GenerationSoftware,KiCad,Pcbnew,(5.1.9)-1*%
%TF.CreationDate,2021-07-21T07:35:28-05:00*%
%TF.ProjectId,SE_placa,53455f70-6c61-4636-912e-6b696361645f,A*%
%TF.SameCoordinates,Original*%
%TF.FileFunction,Soldermask,Top*%
%TF.FilePolarity,Negative*%
%FSLAX46Y46*%
G04 Gerber Fmt 4.6, Leading zero omitted, Abs format (unit mm)*
G04 Created by KiCad (PCBNEW (5.1.9)-1) date 2021-07-21 07:35:28*
%MOMM*%
%LPD*%
G01*
G04 APERTURE LIST*
%ADD10O,1.700000X1.700000*%
%ADD11R,1.700000X1.700000*%
%ADD12R,2.000000X1.000000*%
%ADD13R,4.000000X4.000000*%
%ADD14R,1.450000X0.930000*%
%ADD15R,1.300000X1.900000*%
%ADD16R,1.000000X2.800000*%
%ADD17R,1.000000X0.800000*%
%ADD18R,1.000000X1.200000*%
%ADD19R,0.700000X1.200000*%
%ADD20R,1.500000X1.500000*%
%ADD21R,1.050000X1.100000*%
%ADD22R,1.100000X2.250000*%
%ADD23R,0.900000X0.800000*%
%ADD24R,0.700000X1.300000*%
%ADD25R,5.700000X1.600000*%
%ADD26C,5.000000*%
%ADD27R,0.800000X0.300000*%
%ADD28R,1.800000X3.400000*%
G04 APERTURE END LIST*
D10*
%TO.C,J3*%
X140335000Y-72390000D03*
X140335000Y-69850000D03*
X137795000Y-72390000D03*
X137795000Y-69850000D03*
X135255000Y-72390000D03*
X135255000Y-69850000D03*
X132715000Y-72390000D03*
X132715000Y-69850000D03*
X130175000Y-72390000D03*
X130175000Y-69850000D03*
X127635000Y-72390000D03*
X127635000Y-69850000D03*
X125095000Y-72390000D03*
D11*
X125095000Y-69850000D03*
%TD*%
D12*
%TO.C,U2*%
X207390000Y-29830000D03*
X207390000Y-31830000D03*
X207390000Y-33830000D03*
X207390000Y-35830000D03*
X207390000Y-37830000D03*
X207390000Y-39830000D03*
X207390000Y-41830000D03*
X207390000Y-43830000D03*
X191390000Y-43830000D03*
X191390000Y-41830000D03*
X191390000Y-39830000D03*
X191390000Y-37830000D03*
X191390000Y-35830000D03*
X191390000Y-33830000D03*
X191390000Y-31830000D03*
X191390000Y-29830000D03*
%TD*%
%TO.C,R10*%
G36*
G01*
X184020000Y-52127999D02*
X184020000Y-53028001D01*
G75*
G02*
X183770001Y-53278000I-249999J0D01*
G01*
X183069999Y-53278000D01*
G75*
G02*
X182820000Y-53028001I0J249999D01*
G01*
X182820000Y-52127999D01*
G75*
G02*
X183069999Y-51878000I249999J0D01*
G01*
X183770001Y-51878000D01*
G75*
G02*
X184020000Y-52127999I0J-249999D01*
G01*
G37*
G36*
G01*
X186020000Y-52127999D02*
X186020000Y-53028001D01*
G75*
G02*
X185770001Y-53278000I-249999J0D01*
G01*
X185069999Y-53278000D01*
G75*
G02*
X184820000Y-53028001I0J249999D01*
G01*
X184820000Y-52127999D01*
G75*
G02*
X185069999Y-51878000I249999J0D01*
G01*
X185770001Y-51878000D01*
G75*
G02*
X186020000Y-52127999I0J-249999D01*
G01*
G37*
%TD*%
D13*
%TO.C,U1*%
X162450000Y-36360000D03*
D14*
X172640000Y-28570000D03*
X172640000Y-29840000D03*
X172640000Y-31110000D03*
X172640000Y-32380000D03*
X172640000Y-33650000D03*
X172640000Y-34920000D03*
X172640000Y-36190000D03*
X172640000Y-37460000D03*
X172640000Y-38730000D03*
X172640000Y-40000000D03*
X172640000Y-41270000D03*
X172640000Y-42540000D03*
X172640000Y-43810000D03*
X172640000Y-45080000D03*
X172640000Y-46350000D03*
X172640000Y-47620000D03*
X172640000Y-48890000D03*
X172640000Y-50160000D03*
X172640000Y-51430000D03*
X155020000Y-51430000D03*
X155020000Y-50160000D03*
X155020000Y-48890000D03*
X155020000Y-47620000D03*
X155020000Y-46350000D03*
X155020000Y-45080000D03*
X155020000Y-43810000D03*
X155020000Y-42540000D03*
X155020000Y-41270000D03*
X155020000Y-40000000D03*
X155020000Y-38730000D03*
X155020000Y-37460000D03*
X155020000Y-36190000D03*
X155020000Y-34920000D03*
X155020000Y-33650000D03*
X155020000Y-32380000D03*
X155020000Y-31110000D03*
X155020000Y-29840000D03*
X155020000Y-28570000D03*
%TD*%
D15*
%TO.C,J2*%
X170505000Y-74685000D03*
D16*
X157005000Y-74235000D03*
D17*
X157005000Y-70085000D03*
D18*
X157005000Y-63885000D03*
X168155000Y-59585000D03*
D19*
X160005000Y-59585000D03*
X161105000Y-59585000D03*
X162205000Y-59585000D03*
X163305000Y-59585000D03*
X164405000Y-59585000D03*
X165505000Y-59585000D03*
X166605000Y-59585000D03*
X158905000Y-59585000D03*
X157955000Y-59585000D03*
%TD*%
%TO.C,R11*%
G36*
G01*
X150260000Y-29025001D02*
X150260000Y-28124999D01*
G75*
G02*
X150509999Y-27875000I249999J0D01*
G01*
X151210001Y-27875000D01*
G75*
G02*
X151460000Y-28124999I0J-249999D01*
G01*
X151460000Y-29025001D01*
G75*
G02*
X151210001Y-29275000I-249999J0D01*
G01*
X150509999Y-29275000D01*
G75*
G02*
X150260000Y-29025001I0J249999D01*
G01*
G37*
G36*
G01*
X148260000Y-29025001D02*
X148260000Y-28124999D01*
G75*
G02*
X148509999Y-27875000I249999J0D01*
G01*
X149210001Y-27875000D01*
G75*
G02*
X149460000Y-28124999I0J-249999D01*
G01*
X149460000Y-29025001D01*
G75*
G02*
X149210001Y-29275000I-249999J0D01*
G01*
X148509999Y-29275000D01*
G75*
G02*
X148260000Y-29025001I0J249999D01*
G01*
G37*
%TD*%
%TO.C,R18*%
G36*
G01*
X191386000Y-21647999D02*
X191386000Y-22548001D01*
G75*
G02*
X191136001Y-22798000I-249999J0D01*
G01*
X190435999Y-22798000D01*
G75*
G02*
X190186000Y-22548001I0J249999D01*
G01*
X190186000Y-21647999D01*
G75*
G02*
X190435999Y-21398000I249999J0D01*
G01*
X191136001Y-21398000D01*
G75*
G02*
X191386000Y-21647999I0J-249999D01*
G01*
G37*
G36*
G01*
X193386000Y-21647999D02*
X193386000Y-22548001D01*
G75*
G02*
X193136001Y-22798000I-249999J0D01*
G01*
X192435999Y-22798000D01*
G75*
G02*
X192186000Y-22548001I0J249999D01*
G01*
X192186000Y-21647999D01*
G75*
G02*
X192435999Y-21398000I249999J0D01*
G01*
X193136001Y-21398000D01*
G75*
G02*
X193386000Y-21647999I0J-249999D01*
G01*
G37*
%TD*%
D20*
%TO.C,SW2*%
X141986000Y-23278000D03*
X141986000Y-31078000D03*
%TD*%
D21*
%TO.C,J7*%
X213155000Y-42190000D03*
D22*
X214630000Y-40640000D03*
X211680000Y-40640000D03*
%TD*%
D10*
%TO.C,J6*%
X200660000Y-21844000D03*
X200660000Y-24384000D03*
X203200000Y-21844000D03*
X203200000Y-24384000D03*
X205740000Y-21844000D03*
D11*
X205740000Y-24384000D03*
%TD*%
%TO.C,C7*%
G36*
G01*
X213556000Y-36289000D02*
X213556000Y-35339000D01*
G75*
G02*
X213806000Y-35089000I250000J0D01*
G01*
X214481000Y-35089000D01*
G75*
G02*
X214731000Y-35339000I0J-250000D01*
G01*
X214731000Y-36289000D01*
G75*
G02*
X214481000Y-36539000I-250000J0D01*
G01*
X213806000Y-36539000D01*
G75*
G02*
X213556000Y-36289000I0J250000D01*
G01*
G37*
G36*
G01*
X211481000Y-36289000D02*
X211481000Y-35339000D01*
G75*
G02*
X211731000Y-35089000I250000J0D01*
G01*
X212406000Y-35089000D01*
G75*
G02*
X212656000Y-35339000I0J-250000D01*
G01*
X212656000Y-36289000D01*
G75*
G02*
X212406000Y-36539000I-250000J0D01*
G01*
X211731000Y-36539000D01*
G75*
G02*
X211481000Y-36289000I0J250000D01*
G01*
G37*
%TD*%
%TO.C,R19*%
G36*
G01*
X118294999Y-57201000D02*
X119195001Y-57201000D01*
G75*
G02*
X119445000Y-57450999I0J-249999D01*
G01*
X119445000Y-58151001D01*
G75*
G02*
X119195001Y-58401000I-249999J0D01*
G01*
X118294999Y-58401000D01*
G75*
G02*
X118045000Y-58151001I0J249999D01*
G01*
X118045000Y-57450999D01*
G75*
G02*
X118294999Y-57201000I249999J0D01*
G01*
G37*
G36*
G01*
X118294999Y-59201000D02*
X119195001Y-59201000D01*
G75*
G02*
X119445000Y-59450999I0J-249999D01*
G01*
X119445000Y-60151001D01*
G75*
G02*
X119195001Y-60401000I-249999J0D01*
G01*
X118294999Y-60401000D01*
G75*
G02*
X118045000Y-60151001I0J249999D01*
G01*
X118045000Y-59450999D01*
G75*
G02*
X118294999Y-59201000I249999J0D01*
G01*
G37*
%TD*%
%TO.C,C10*%
G36*
G01*
X119093000Y-39471000D02*
X118143000Y-39471000D01*
G75*
G02*
X117893000Y-39221000I0J250000D01*
G01*
X117893000Y-38546000D01*
G75*
G02*
X118143000Y-38296000I250000J0D01*
G01*
X119093000Y-38296000D01*
G75*
G02*
X119343000Y-38546000I0J-250000D01*
G01*
X119343000Y-39221000D01*
G75*
G02*
X119093000Y-39471000I-250000J0D01*
G01*
G37*
G36*
G01*
X119093000Y-37396000D02*
X118143000Y-37396000D01*
G75*
G02*
X117893000Y-37146000I0J250000D01*
G01*
X117893000Y-36471000D01*
G75*
G02*
X118143000Y-36221000I250000J0D01*
G01*
X119093000Y-36221000D01*
G75*
G02*
X119343000Y-36471000I0J-250000D01*
G01*
X119343000Y-37146000D01*
G75*
G02*
X119093000Y-37396000I-250000J0D01*
G01*
G37*
%TD*%
%TO.C,R8*%
G36*
G01*
X141094000Y-38411999D02*
X141094000Y-39312001D01*
G75*
G02*
X140844001Y-39562000I-249999J0D01*
G01*
X140143999Y-39562000D01*
G75*
G02*
X139894000Y-39312001I0J249999D01*
G01*
X139894000Y-38411999D01*
G75*
G02*
X140143999Y-38162000I249999J0D01*
G01*
X140844001Y-38162000D01*
G75*
G02*
X141094000Y-38411999I0J-249999D01*
G01*
G37*
G36*
G01*
X143094000Y-38411999D02*
X143094000Y-39312001D01*
G75*
G02*
X142844001Y-39562000I-249999J0D01*
G01*
X142143999Y-39562000D01*
G75*
G02*
X141894000Y-39312001I0J249999D01*
G01*
X141894000Y-38411999D01*
G75*
G02*
X142143999Y-38162000I249999J0D01*
G01*
X142844001Y-38162000D01*
G75*
G02*
X143094000Y-38411999I0J-249999D01*
G01*
G37*
%TD*%
%TO.C,R16*%
G36*
G01*
X178940000Y-52127999D02*
X178940000Y-53028001D01*
G75*
G02*
X178690001Y-53278000I-249999J0D01*
G01*
X177989999Y-53278000D01*
G75*
G02*
X177740000Y-53028001I0J249999D01*
G01*
X177740000Y-52127999D01*
G75*
G02*
X177989999Y-51878000I249999J0D01*
G01*
X178690001Y-51878000D01*
G75*
G02*
X178940000Y-52127999I0J-249999D01*
G01*
G37*
G36*
G01*
X180940000Y-52127999D02*
X180940000Y-53028001D01*
G75*
G02*
X180690001Y-53278000I-249999J0D01*
G01*
X179989999Y-53278000D01*
G75*
G02*
X179740000Y-53028001I0J249999D01*
G01*
X179740000Y-52127999D01*
G75*
G02*
X179989999Y-51878000I249999J0D01*
G01*
X180690001Y-51878000D01*
G75*
G02*
X180940000Y-52127999I0J-249999D01*
G01*
G37*
%TD*%
%TO.C,R17*%
G36*
G01*
X184550000Y-44138001D02*
X184550000Y-43237999D01*
G75*
G02*
X184799999Y-42988000I249999J0D01*
G01*
X185500001Y-42988000D01*
G75*
G02*
X185750000Y-43237999I0J-249999D01*
G01*
X185750000Y-44138001D01*
G75*
G02*
X185500001Y-44388000I-249999J0D01*
G01*
X184799999Y-44388000D01*
G75*
G02*
X184550000Y-44138001I0J249999D01*
G01*
G37*
G36*
G01*
X182550000Y-44138001D02*
X182550000Y-43237999D01*
G75*
G02*
X182799999Y-42988000I249999J0D01*
G01*
X183500001Y-42988000D01*
G75*
G02*
X183750000Y-43237999I0J-249999D01*
G01*
X183750000Y-44138001D01*
G75*
G02*
X183500001Y-44388000I-249999J0D01*
G01*
X182799999Y-44388000D01*
G75*
G02*
X182550000Y-44138001I0J249999D01*
G01*
G37*
%TD*%
%TO.C,R14*%
G36*
G01*
X183750000Y-39046999D02*
X183750000Y-39947001D01*
G75*
G02*
X183500001Y-40197000I-249999J0D01*
G01*
X182799999Y-40197000D01*
G75*
G02*
X182550000Y-39947001I0J249999D01*
G01*
X182550000Y-39046999D01*
G75*
G02*
X182799999Y-38797000I249999J0D01*
G01*
X183500001Y-38797000D01*
G75*
G02*
X183750000Y-39046999I0J-249999D01*
G01*
G37*
G36*
G01*
X185750000Y-39046999D02*
X185750000Y-39947001D01*
G75*
G02*
X185500001Y-40197000I-249999J0D01*
G01*
X184799999Y-40197000D01*
G75*
G02*
X184550000Y-39947001I0J249999D01*
G01*
X184550000Y-39046999D01*
G75*
G02*
X184799999Y-38797000I249999J0D01*
G01*
X185500001Y-38797000D01*
G75*
G02*
X185750000Y-39046999I0J-249999D01*
G01*
G37*
%TD*%
%TO.C,R15*%
G36*
G01*
X149507500Y-24378499D02*
X149507500Y-25278501D01*
G75*
G02*
X149257501Y-25528500I-249999J0D01*
G01*
X148557499Y-25528500D01*
G75*
G02*
X148307500Y-25278501I0J249999D01*
G01*
X148307500Y-24378499D01*
G75*
G02*
X148557499Y-24128500I249999J0D01*
G01*
X149257501Y-24128500D01*
G75*
G02*
X149507500Y-24378499I0J-249999D01*
G01*
G37*
G36*
G01*
X151507500Y-24378499D02*
X151507500Y-25278501D01*
G75*
G02*
X151257501Y-25528500I-249999J0D01*
G01*
X150557499Y-25528500D01*
G75*
G02*
X150307500Y-25278501I0J249999D01*
G01*
X150307500Y-24378499D01*
G75*
G02*
X150557499Y-24128500I249999J0D01*
G01*
X151257501Y-24128500D01*
G75*
G02*
X151507500Y-24378499I0J-249999D01*
G01*
G37*
%TD*%
%TO.C,R9*%
G36*
G01*
X179740000Y-57092001D02*
X179740000Y-56191999D01*
G75*
G02*
X179989999Y-55942000I249999J0D01*
G01*
X180690001Y-55942000D01*
G75*
G02*
X180940000Y-56191999I0J-249999D01*
G01*
X180940000Y-57092001D01*
G75*
G02*
X180690001Y-57342000I-249999J0D01*
G01*
X179989999Y-57342000D01*
G75*
G02*
X179740000Y-57092001I0J249999D01*
G01*
G37*
G36*
G01*
X177740000Y-57092001D02*
X177740000Y-56191999D01*
G75*
G02*
X177989999Y-55942000I249999J0D01*
G01*
X178690001Y-55942000D01*
G75*
G02*
X178940000Y-56191999I0J-249999D01*
G01*
X178940000Y-57092001D01*
G75*
G02*
X178690001Y-57342000I-249999J0D01*
G01*
X177989999Y-57342000D01*
G75*
G02*
X177740000Y-57092001I0J249999D01*
G01*
G37*
%TD*%
%TO.C,R7*%
G36*
G01*
X165157999Y-55534000D02*
X166058001Y-55534000D01*
G75*
G02*
X166308000Y-55783999I0J-249999D01*
G01*
X166308000Y-56484001D01*
G75*
G02*
X166058001Y-56734000I-249999J0D01*
G01*
X165157999Y-56734000D01*
G75*
G02*
X164908000Y-56484001I0J249999D01*
G01*
X164908000Y-55783999D01*
G75*
G02*
X165157999Y-55534000I249999J0D01*
G01*
G37*
G36*
G01*
X165157999Y-53534000D02*
X166058001Y-53534000D01*
G75*
G02*
X166308000Y-53783999I0J-249999D01*
G01*
X166308000Y-54484001D01*
G75*
G02*
X166058001Y-54734000I-249999J0D01*
G01*
X165157999Y-54734000D01*
G75*
G02*
X164908000Y-54484001I0J249999D01*
G01*
X164908000Y-53783999D01*
G75*
G02*
X165157999Y-53534000I249999J0D01*
G01*
G37*
%TD*%
%TO.C,R6*%
G36*
G01*
X178250001Y-72482000D02*
X177349999Y-72482000D01*
G75*
G02*
X177100000Y-72232001I0J249999D01*
G01*
X177100000Y-71531999D01*
G75*
G02*
X177349999Y-71282000I249999J0D01*
G01*
X178250001Y-71282000D01*
G75*
G02*
X178500000Y-71531999I0J-249999D01*
G01*
X178500000Y-72232001D01*
G75*
G02*
X178250001Y-72482000I-249999J0D01*
G01*
G37*
G36*
G01*
X178250001Y-74482000D02*
X177349999Y-74482000D01*
G75*
G02*
X177100000Y-74232001I0J249999D01*
G01*
X177100000Y-73531999D01*
G75*
G02*
X177349999Y-73282000I249999J0D01*
G01*
X178250001Y-73282000D01*
G75*
G02*
X178500000Y-73531999I0J-249999D01*
G01*
X178500000Y-74232001D01*
G75*
G02*
X178250001Y-74482000I-249999J0D01*
G01*
G37*
%TD*%
%TO.C,R5*%
G36*
G01*
X181488501Y-68100500D02*
X180588499Y-68100500D01*
G75*
G02*
X180338500Y-67850501I0J249999D01*
G01*
X180338500Y-67150499D01*
G75*
G02*
X180588499Y-66900500I249999J0D01*
G01*
X181488501Y-66900500D01*
G75*
G02*
X181738500Y-67150499I0J-249999D01*
G01*
X181738500Y-67850501D01*
G75*
G02*
X181488501Y-68100500I-249999J0D01*
G01*
G37*
G36*
G01*
X181488501Y-70100500D02*
X180588499Y-70100500D01*
G75*
G02*
X180338500Y-69850501I0J249999D01*
G01*
X180338500Y-69150499D01*
G75*
G02*
X180588499Y-68900500I249999J0D01*
G01*
X181488501Y-68900500D01*
G75*
G02*
X181738500Y-69150499I0J-249999D01*
G01*
X181738500Y-69850501D01*
G75*
G02*
X181488501Y-70100500I-249999J0D01*
G01*
G37*
%TD*%
%TO.C,R4*%
G36*
G01*
X152342001Y-52416000D02*
X151441999Y-52416000D01*
G75*
G02*
X151192000Y-52166001I0J249999D01*
G01*
X151192000Y-51465999D01*
G75*
G02*
X151441999Y-51216000I249999J0D01*
G01*
X152342001Y-51216000D01*
G75*
G02*
X152592000Y-51465999I0J-249999D01*
G01*
X152592000Y-52166001D01*
G75*
G02*
X152342001Y-52416000I-249999J0D01*
G01*
G37*
G36*
G01*
X152342001Y-54416000D02*
X151441999Y-54416000D01*
G75*
G02*
X151192000Y-54166001I0J249999D01*
G01*
X151192000Y-53465999D01*
G75*
G02*
X151441999Y-53216000I249999J0D01*
G01*
X152342001Y-53216000D01*
G75*
G02*
X152592000Y-53465999I0J-249999D01*
G01*
X152592000Y-54166001D01*
G75*
G02*
X152342001Y-54416000I-249999J0D01*
G01*
G37*
%TD*%
%TO.C,R3*%
G36*
G01*
X159950999Y-55518000D02*
X160851001Y-55518000D01*
G75*
G02*
X161101000Y-55767999I0J-249999D01*
G01*
X161101000Y-56468001D01*
G75*
G02*
X160851001Y-56718000I-249999J0D01*
G01*
X159950999Y-56718000D01*
G75*
G02*
X159701000Y-56468001I0J249999D01*
G01*
X159701000Y-55767999D01*
G75*
G02*
X159950999Y-55518000I249999J0D01*
G01*
G37*
G36*
G01*
X159950999Y-53518000D02*
X160851001Y-53518000D01*
G75*
G02*
X161101000Y-53767999I0J-249999D01*
G01*
X161101000Y-54468001D01*
G75*
G02*
X160851001Y-54718000I-249999J0D01*
G01*
X159950999Y-54718000D01*
G75*
G02*
X159701000Y-54468001I0J249999D01*
G01*
X159701000Y-53767999D01*
G75*
G02*
X159950999Y-53518000I249999J0D01*
G01*
G37*
%TD*%
%TO.C,R2*%
G36*
G01*
X177349999Y-64265000D02*
X178250001Y-64265000D01*
G75*
G02*
X178500000Y-64514999I0J-249999D01*
G01*
X178500000Y-65215001D01*
G75*
G02*
X178250001Y-65465000I-249999J0D01*
G01*
X177349999Y-65465000D01*
G75*
G02*
X177100000Y-65215001I0J249999D01*
G01*
X177100000Y-64514999D01*
G75*
G02*
X177349999Y-64265000I249999J0D01*
G01*
G37*
G36*
G01*
X177349999Y-62265000D02*
X178250001Y-62265000D01*
G75*
G02*
X178500000Y-62514999I0J-249999D01*
G01*
X178500000Y-63215001D01*
G75*
G02*
X178250001Y-63465000I-249999J0D01*
G01*
X177349999Y-63465000D01*
G75*
G02*
X177100000Y-63215001I0J249999D01*
G01*
X177100000Y-62514999D01*
G75*
G02*
X177349999Y-62265000I249999J0D01*
G01*
G37*
%TD*%
%TO.C,R1*%
G36*
G01*
X153260500Y-57409501D02*
X153260500Y-56509499D01*
G75*
G02*
X153510499Y-56259500I249999J0D01*
G01*
X154210501Y-56259500D01*
G75*
G02*
X154460500Y-56509499I0J-249999D01*
G01*
X154460500Y-57409501D01*
G75*
G02*
X154210501Y-57659500I-249999J0D01*
G01*
X153510499Y-57659500D01*
G75*
G02*
X153260500Y-57409501I0J249999D01*
G01*
G37*
G36*
G01*
X151260500Y-57409501D02*
X151260500Y-56509499D01*
G75*
G02*
X151510499Y-56259500I249999J0D01*
G01*
X152210501Y-56259500D01*
G75*
G02*
X152460500Y-56509499I0J-249999D01*
G01*
X152460500Y-57409501D01*
G75*
G02*
X152210501Y-57659500I-249999J0D01*
G01*
X151510499Y-57659500D01*
G75*
G02*
X151260500Y-57409501I0J249999D01*
G01*
G37*
%TD*%
D23*
%TO.C,Q2*%
X192135000Y-73025000D03*
X190135000Y-73975000D03*
X190135000Y-72075000D03*
%TD*%
%TO.C,Q1*%
X185785000Y-73025000D03*
X183785000Y-73975000D03*
X183785000Y-72075000D03*
%TD*%
%TO.C,L3*%
G36*
G01*
X212583500Y-31490499D02*
X212583500Y-32390501D01*
G75*
G02*
X212333501Y-32640500I-249999J0D01*
G01*
X211683499Y-32640500D01*
G75*
G02*
X211433500Y-32390501I0J249999D01*
G01*
X211433500Y-31490499D01*
G75*
G02*
X211683499Y-31240500I249999J0D01*
G01*
X212333501Y-31240500D01*
G75*
G02*
X212583500Y-31490499I0J-249999D01*
G01*
G37*
G36*
G01*
X214633500Y-31490499D02*
X214633500Y-32390501D01*
G75*
G02*
X214383501Y-32640500I-249999J0D01*
G01*
X213733499Y-32640500D01*
G75*
G02*
X213483500Y-32390501I0J249999D01*
G01*
X213483500Y-31490499D01*
G75*
G02*
X213733499Y-31240500I249999J0D01*
G01*
X214383501Y-31240500D01*
G75*
G02*
X214633500Y-31490499I0J-249999D01*
G01*
G37*
%TD*%
%TO.C,L2*%
G36*
G01*
X151949999Y-64830000D02*
X152850001Y-64830000D01*
G75*
G02*
X153100000Y-65079999I0J-249999D01*
G01*
X153100000Y-65730001D01*
G75*
G02*
X152850001Y-65980000I-249999J0D01*
G01*
X151949999Y-65980000D01*
G75*
G02*
X151700000Y-65730001I0J249999D01*
G01*
X151700000Y-65079999D01*
G75*
G02*
X151949999Y-64830000I249999J0D01*
G01*
G37*
G36*
G01*
X151949999Y-62780000D02*
X152850001Y-62780000D01*
G75*
G02*
X153100000Y-63029999I0J-249999D01*
G01*
X153100000Y-63680001D01*
G75*
G02*
X152850001Y-63930000I-249999J0D01*
G01*
X151949999Y-63930000D01*
G75*
G02*
X151700000Y-63680001I0J249999D01*
G01*
X151700000Y-63029999D01*
G75*
G02*
X151949999Y-62780000I249999J0D01*
G01*
G37*
%TD*%
D10*
%TO.C,J4*%
X205740000Y-66675000D03*
X203200000Y-66675000D03*
X200660000Y-66675000D03*
D11*
X198120000Y-66675000D03*
%TD*%
D10*
%TO.C,J8*%
X214630000Y-54610000D03*
X212090000Y-54610000D03*
X209550000Y-54610000D03*
D11*
X207010000Y-54610000D03*
%TD*%
%TO.C,D5*%
G36*
G01*
X192220000Y-25850001D02*
X192220000Y-24949999D01*
G75*
G02*
X192469999Y-24700000I249999J0D01*
G01*
X193120001Y-24700000D01*
G75*
G02*
X193370000Y-24949999I0J-249999D01*
G01*
X193370000Y-25850001D01*
G75*
G02*
X193120001Y-26100000I-249999J0D01*
G01*
X192469999Y-26100000D01*
G75*
G02*
X192220000Y-25850001I0J249999D01*
G01*
G37*
G36*
G01*
X190170000Y-25850001D02*
X190170000Y-24949999D01*
G75*
G02*
X190419999Y-24700000I249999J0D01*
G01*
X191070001Y-24700000D01*
G75*
G02*
X191320000Y-24949999I0J-249999D01*
G01*
X191320000Y-25850001D01*
G75*
G02*
X191070001Y-26100000I-249999J0D01*
G01*
X190419999Y-26100000D01*
G75*
G02*
X190170000Y-25850001I0J249999D01*
G01*
G37*
%TD*%
%TO.C,D4*%
G36*
G01*
X179901000Y-48837001D02*
X179901000Y-47936999D01*
G75*
G02*
X180150999Y-47687000I249999J0D01*
G01*
X180801001Y-47687000D01*
G75*
G02*
X181051000Y-47936999I0J-249999D01*
G01*
X181051000Y-48837001D01*
G75*
G02*
X180801001Y-49087000I-249999J0D01*
G01*
X180150999Y-49087000D01*
G75*
G02*
X179901000Y-48837001I0J249999D01*
G01*
G37*
G36*
G01*
X177851000Y-48837001D02*
X177851000Y-47936999D01*
G75*
G02*
X178100999Y-47687000I249999J0D01*
G01*
X178751001Y-47687000D01*
G75*
G02*
X179001000Y-47936999I0J-249999D01*
G01*
X179001000Y-48837001D01*
G75*
G02*
X178751001Y-49087000I-249999J0D01*
G01*
X178100999Y-49087000D01*
G75*
G02*
X177851000Y-48837001I0J249999D01*
G01*
G37*
%TD*%
%TO.C,D3*%
G36*
G01*
X183700000Y-47936999D02*
X183700000Y-48837001D01*
G75*
G02*
X183450001Y-49087000I-249999J0D01*
G01*
X182799999Y-49087000D01*
G75*
G02*
X182550000Y-48837001I0J249999D01*
G01*
X182550000Y-47936999D01*
G75*
G02*
X182799999Y-47687000I249999J0D01*
G01*
X183450001Y-47687000D01*
G75*
G02*
X183700000Y-47936999I0J-249999D01*
G01*
G37*
G36*
G01*
X185750000Y-47936999D02*
X185750000Y-48837001D01*
G75*
G02*
X185500001Y-49087000I-249999J0D01*
G01*
X184849999Y-49087000D01*
G75*
G02*
X184600000Y-48837001I0J249999D01*
G01*
X184600000Y-47936999D01*
G75*
G02*
X184849999Y-47687000I249999J0D01*
G01*
X185500001Y-47687000D01*
G75*
G02*
X185750000Y-47936999I0J-249999D01*
G01*
G37*
%TD*%
%TO.C,D1*%
G36*
G01*
X184591000Y-36518001D02*
X184591000Y-35617999D01*
G75*
G02*
X184840999Y-35368000I249999J0D01*
G01*
X185491001Y-35368000D01*
G75*
G02*
X185741000Y-35617999I0J-249999D01*
G01*
X185741000Y-36518001D01*
G75*
G02*
X185491001Y-36768000I-249999J0D01*
G01*
X184840999Y-36768000D01*
G75*
G02*
X184591000Y-36518001I0J249999D01*
G01*
G37*
G36*
G01*
X182541000Y-36518001D02*
X182541000Y-35617999D01*
G75*
G02*
X182790999Y-35368000I249999J0D01*
G01*
X183441001Y-35368000D01*
G75*
G02*
X183691000Y-35617999I0J-249999D01*
G01*
X183691000Y-36518001D01*
G75*
G02*
X183441001Y-36768000I-249999J0D01*
G01*
X182790999Y-36768000D01*
G75*
G02*
X182541000Y-36518001I0J249999D01*
G01*
G37*
%TD*%
%TO.C,D2*%
G36*
G01*
X150353000Y-22245001D02*
X150353000Y-21344999D01*
G75*
G02*
X150602999Y-21095000I249999J0D01*
G01*
X151253001Y-21095000D01*
G75*
G02*
X151503000Y-21344999I0J-249999D01*
G01*
X151503000Y-22245001D01*
G75*
G02*
X151253001Y-22495000I-249999J0D01*
G01*
X150602999Y-22495000D01*
G75*
G02*
X150353000Y-22245001I0J249999D01*
G01*
G37*
G36*
G01*
X148303000Y-22245001D02*
X148303000Y-21344999D01*
G75*
G02*
X148552999Y-21095000I249999J0D01*
G01*
X149203001Y-21095000D01*
G75*
G02*
X149453000Y-21344999I0J-249999D01*
G01*
X149453000Y-22245001D01*
G75*
G02*
X149203001Y-22495000I-249999J0D01*
G01*
X148552999Y-22495000D01*
G75*
G02*
X148303000Y-22245001I0J249999D01*
G01*
G37*
%TD*%
%TO.C,C8*%
G36*
G01*
X214953000Y-49878000D02*
X214953000Y-48928000D01*
G75*
G02*
X215203000Y-48678000I250000J0D01*
G01*
X215878000Y-48678000D01*
G75*
G02*
X216128000Y-48928000I0J-250000D01*
G01*
X216128000Y-49878000D01*
G75*
G02*
X215878000Y-50128000I-250000J0D01*
G01*
X215203000Y-50128000D01*
G75*
G02*
X214953000Y-49878000I0J250000D01*
G01*
G37*
G36*
G01*
X212878000Y-49878000D02*
X212878000Y-48928000D01*
G75*
G02*
X213128000Y-48678000I250000J0D01*
G01*
X213803000Y-48678000D01*
G75*
G02*
X214053000Y-48928000I0J-250000D01*
G01*
X214053000Y-49878000D01*
G75*
G02*
X213803000Y-50128000I-250000J0D01*
G01*
X213128000Y-50128000D01*
G75*
G02*
X212878000Y-49878000I0J250000D01*
G01*
G37*
%TD*%
%TO.C,C6*%
G36*
G01*
X150310000Y-32225000D02*
X150310000Y-31275000D01*
G75*
G02*
X150560000Y-31025000I250000J0D01*
G01*
X151235000Y-31025000D01*
G75*
G02*
X151485000Y-31275000I0J-250000D01*
G01*
X151485000Y-32225000D01*
G75*
G02*
X151235000Y-32475000I-250000J0D01*
G01*
X150560000Y-32475000D01*
G75*
G02*
X150310000Y-32225000I0J250000D01*
G01*
G37*
G36*
G01*
X148235000Y-32225000D02*
X148235000Y-31275000D01*
G75*
G02*
X148485000Y-31025000I250000J0D01*
G01*
X149160000Y-31025000D01*
G75*
G02*
X149410000Y-31275000I0J-250000D01*
G01*
X149410000Y-32225000D01*
G75*
G02*
X149160000Y-32475000I-250000J0D01*
G01*
X148485000Y-32475000D01*
G75*
G02*
X148235000Y-32225000I0J250000D01*
G01*
G37*
%TD*%
%TO.C,C4*%
G36*
G01*
X141928000Y-36543000D02*
X141928000Y-35593000D01*
G75*
G02*
X142178000Y-35343000I250000J0D01*
G01*
X142853000Y-35343000D01*
G75*
G02*
X143103000Y-35593000I0J-250000D01*
G01*
X143103000Y-36543000D01*
G75*
G02*
X142853000Y-36793000I-250000J0D01*
G01*
X142178000Y-36793000D01*
G75*
G02*
X141928000Y-36543000I0J250000D01*
G01*
G37*
G36*
G01*
X139853000Y-36543000D02*
X139853000Y-35593000D01*
G75*
G02*
X140103000Y-35343000I250000J0D01*
G01*
X140778000Y-35343000D01*
G75*
G02*
X141028000Y-35593000I0J-250000D01*
G01*
X141028000Y-36543000D01*
G75*
G02*
X140778000Y-36793000I-250000J0D01*
G01*
X140103000Y-36793000D01*
G75*
G02*
X139853000Y-36543000I0J250000D01*
G01*
G37*
%TD*%
%TO.C,C5*%
G36*
G01*
X178275000Y-67897500D02*
X177325000Y-67897500D01*
G75*
G02*
X177075000Y-67647500I0J250000D01*
G01*
X177075000Y-66972500D01*
G75*
G02*
X177325000Y-66722500I250000J0D01*
G01*
X178275000Y-66722500D01*
G75*
G02*
X178525000Y-66972500I0J-250000D01*
G01*
X178525000Y-67647500D01*
G75*
G02*
X178275000Y-67897500I-250000J0D01*
G01*
G37*
G36*
G01*
X178275000Y-69972500D02*
X177325000Y-69972500D01*
G75*
G02*
X177075000Y-69722500I0J250000D01*
G01*
X177075000Y-69047500D01*
G75*
G02*
X177325000Y-68797500I250000J0D01*
G01*
X178275000Y-68797500D01*
G75*
G02*
X178525000Y-69047500I0J-250000D01*
G01*
X178525000Y-69722500D01*
G75*
G02*
X178275000Y-69972500I-250000J0D01*
G01*
G37*
%TD*%
%TO.C,C1*%
G36*
G01*
X147734000Y-64924000D02*
X148684000Y-64924000D01*
G75*
G02*
X148934000Y-65174000I0J-250000D01*
G01*
X148934000Y-65849000D01*
G75*
G02*
X148684000Y-66099000I-250000J0D01*
G01*
X147734000Y-66099000D01*
G75*
G02*
X147484000Y-65849000I0J250000D01*
G01*
X147484000Y-65174000D01*
G75*
G02*
X147734000Y-64924000I250000J0D01*
G01*
G37*
G36*
G01*
X147734000Y-62849000D02*
X148684000Y-62849000D01*
G75*
G02*
X148934000Y-63099000I0J-250000D01*
G01*
X148934000Y-63774000D01*
G75*
G02*
X148684000Y-64024000I-250000J0D01*
G01*
X147734000Y-64024000D01*
G75*
G02*
X147484000Y-63774000I0J250000D01*
G01*
X147484000Y-63099000D01*
G75*
G02*
X147734000Y-62849000I250000J0D01*
G01*
G37*
%TD*%
%TO.C,C2*%
G36*
G01*
X137635000Y-22918000D02*
X136685000Y-22918000D01*
G75*
G02*
X136435000Y-22668000I0J250000D01*
G01*
X136435000Y-21993000D01*
G75*
G02*
X136685000Y-21743000I250000J0D01*
G01*
X137635000Y-21743000D01*
G75*
G02*
X137885000Y-21993000I0J-250000D01*
G01*
X137885000Y-22668000D01*
G75*
G02*
X137635000Y-22918000I-250000J0D01*
G01*
G37*
G36*
G01*
X137635000Y-24993000D02*
X136685000Y-24993000D01*
G75*
G02*
X136435000Y-24743000I0J250000D01*
G01*
X136435000Y-24068000D01*
G75*
G02*
X136685000Y-23818000I250000J0D01*
G01*
X137635000Y-23818000D01*
G75*
G02*
X137885000Y-24068000I0J-250000D01*
G01*
X137885000Y-24743000D01*
G75*
G02*
X137635000Y-24993000I-250000J0D01*
G01*
G37*
%TD*%
%TO.C,C3*%
G36*
G01*
X134333000Y-24971500D02*
X133383000Y-24971500D01*
G75*
G02*
X133133000Y-24721500I0J250000D01*
G01*
X133133000Y-24046500D01*
G75*
G02*
X133383000Y-23796500I250000J0D01*
G01*
X134333000Y-23796500D01*
G75*
G02*
X134583000Y-24046500I0J-250000D01*
G01*
X134583000Y-24721500D01*
G75*
G02*
X134333000Y-24971500I-250000J0D01*
G01*
G37*
G36*
G01*
X134333000Y-22896500D02*
X133383000Y-22896500D01*
G75*
G02*
X133133000Y-22646500I0J250000D01*
G01*
X133133000Y-21971500D01*
G75*
G02*
X133383000Y-21721500I250000J0D01*
G01*
X134333000Y-21721500D01*
G75*
G02*
X134583000Y-21971500I0J-250000D01*
G01*
X134583000Y-22646500D01*
G75*
G02*
X134333000Y-22896500I-250000J0D01*
G01*
G37*
%TD*%
%TO.C,C9*%
G36*
G01*
X118270000Y-64289000D02*
X119220000Y-64289000D01*
G75*
G02*
X119470000Y-64539000I0J-250000D01*
G01*
X119470000Y-65214000D01*
G75*
G02*
X119220000Y-65464000I-250000J0D01*
G01*
X118270000Y-65464000D01*
G75*
G02*
X118020000Y-65214000I0J250000D01*
G01*
X118020000Y-64539000D01*
G75*
G02*
X118270000Y-64289000I250000J0D01*
G01*
G37*
G36*
G01*
X118270000Y-62214000D02*
X119220000Y-62214000D01*
G75*
G02*
X119470000Y-62464000I0J-250000D01*
G01*
X119470000Y-63139000D01*
G75*
G02*
X119220000Y-63389000I-250000J0D01*
G01*
X118270000Y-63389000D01*
G75*
G02*
X118020000Y-63139000I0J250000D01*
G01*
X118020000Y-62464000D01*
G75*
G02*
X118270000Y-62214000I250000J0D01*
G01*
G37*
%TD*%
%TO.C,C11*%
G36*
G01*
X123665000Y-37417500D02*
X122715000Y-37417500D01*
G75*
G02*
X122465000Y-37167500I0J250000D01*
G01*
X122465000Y-36492500D01*
G75*
G02*
X122715000Y-36242500I250000J0D01*
G01*
X123665000Y-36242500D01*
G75*
G02*
X123915000Y-36492500I0J-250000D01*
G01*
X123915000Y-37167500D01*
G75*
G02*
X123665000Y-37417500I-250000J0D01*
G01*
G37*
G36*
G01*
X123665000Y-39492500D02*
X122715000Y-39492500D01*
G75*
G02*
X122465000Y-39242500I0J250000D01*
G01*
X122465000Y-38567500D01*
G75*
G02*
X122715000Y-38317500I250000J0D01*
G01*
X123665000Y-38317500D01*
G75*
G02*
X123915000Y-38567500I0J-250000D01*
G01*
X123915000Y-39242500D01*
G75*
G02*
X123665000Y-39492500I-250000J0D01*
G01*
G37*
%TD*%
%TO.C,C12*%
G36*
G01*
X131957500Y-29685000D02*
X131957500Y-28735000D01*
G75*
G02*
X132207500Y-28485000I250000J0D01*
G01*
X132882500Y-28485000D01*
G75*
G02*
X133132500Y-28735000I0J-250000D01*
G01*
X133132500Y-29685000D01*
G75*
G02*
X132882500Y-29935000I-250000J0D01*
G01*
X132207500Y-29935000D01*
G75*
G02*
X131957500Y-29685000I0J250000D01*
G01*
G37*
G36*
G01*
X134032500Y-29685000D02*
X134032500Y-28735000D01*
G75*
G02*
X134282500Y-28485000I250000J0D01*
G01*
X134957500Y-28485000D01*
G75*
G02*
X135207500Y-28735000I0J-250000D01*
G01*
X135207500Y-29685000D01*
G75*
G02*
X134957500Y-29935000I-250000J0D01*
G01*
X134282500Y-29935000D01*
G75*
G02*
X134032500Y-29685000I0J250000D01*
G01*
G37*
%TD*%
%TO.C,C13*%
G36*
G01*
X129417500Y-41369000D02*
X129417500Y-40419000D01*
G75*
G02*
X129667500Y-40169000I250000J0D01*
G01*
X130342500Y-40169000D01*
G75*
G02*
X130592500Y-40419000I0J-250000D01*
G01*
X130592500Y-41369000D01*
G75*
G02*
X130342500Y-41619000I-250000J0D01*
G01*
X129667500Y-41619000D01*
G75*
G02*
X129417500Y-41369000I0J250000D01*
G01*
G37*
G36*
G01*
X131492500Y-41369000D02*
X131492500Y-40419000D01*
G75*
G02*
X131742500Y-40169000I250000J0D01*
G01*
X132417500Y-40169000D01*
G75*
G02*
X132667500Y-40419000I0J-250000D01*
G01*
X132667500Y-41369000D01*
G75*
G02*
X132417500Y-41619000I-250000J0D01*
G01*
X131742500Y-41619000D01*
G75*
G02*
X131492500Y-41369000I0J250000D01*
G01*
G37*
%TD*%
%TO.C,D6*%
G36*
G01*
X122370001Y-43120000D02*
X121469999Y-43120000D01*
G75*
G02*
X121220000Y-42870001I0J249999D01*
G01*
X121220000Y-42219999D01*
G75*
G02*
X121469999Y-41970000I249999J0D01*
G01*
X122370001Y-41970000D01*
G75*
G02*
X122620000Y-42219999I0J-249999D01*
G01*
X122620000Y-42870001D01*
G75*
G02*
X122370001Y-43120000I-249999J0D01*
G01*
G37*
G36*
G01*
X122370001Y-45170000D02*
X121469999Y-45170000D01*
G75*
G02*
X121220000Y-44920001I0J249999D01*
G01*
X121220000Y-44269999D01*
G75*
G02*
X121469999Y-44020000I249999J0D01*
G01*
X122370001Y-44020000D01*
G75*
G02*
X122620000Y-44269999I0J-249999D01*
G01*
X122620000Y-44920001D01*
G75*
G02*
X122370001Y-45170000I-249999J0D01*
G01*
G37*
%TD*%
%TO.C,D7*%
G36*
G01*
X126180001Y-45170000D02*
X125279999Y-45170000D01*
G75*
G02*
X125030000Y-44920001I0J249999D01*
G01*
X125030000Y-44269999D01*
G75*
G02*
X125279999Y-44020000I249999J0D01*
G01*
X126180001Y-44020000D01*
G75*
G02*
X126430000Y-44269999I0J-249999D01*
G01*
X126430000Y-44920001D01*
G75*
G02*
X126180001Y-45170000I-249999J0D01*
G01*
G37*
G36*
G01*
X126180001Y-43120000D02*
X125279999Y-43120000D01*
G75*
G02*
X125030000Y-42870001I0J249999D01*
G01*
X125030000Y-42219999D01*
G75*
G02*
X125279999Y-41970000I249999J0D01*
G01*
X126180001Y-41970000D01*
G75*
G02*
X126430000Y-42219999I0J-249999D01*
G01*
X126430000Y-42870001D01*
G75*
G02*
X126180001Y-43120000I-249999J0D01*
G01*
G37*
%TD*%
D24*
%TO.C,IC1*%
X124460000Y-53765000D03*
X123190000Y-53765000D03*
X125730000Y-53765000D03*
X127000000Y-53765000D03*
X124460000Y-59265000D03*
X123190000Y-59265000D03*
X125730000Y-59265000D03*
X127000000Y-59265000D03*
%TD*%
D11*
%TO.C,J1*%
X113030000Y-51435000D03*
D10*
X115570000Y-51435000D03*
%TD*%
D11*
%TO.C,J5*%
X198120000Y-71755000D03*
D10*
X200660000Y-71755000D03*
X203200000Y-71755000D03*
X205740000Y-71755000D03*
%TD*%
%TO.C,J9*%
X113030000Y-43815000D03*
D11*
X115570000Y-43815000D03*
%TD*%
%TO.C,L1*%
G36*
G01*
X134036000Y-44392001D02*
X134036000Y-43491999D01*
G75*
G02*
X134285999Y-43242000I249999J0D01*
G01*
X134936001Y-43242000D01*
G75*
G02*
X135186000Y-43491999I0J-249999D01*
G01*
X135186000Y-44392001D01*
G75*
G02*
X134936001Y-44642000I-249999J0D01*
G01*
X134285999Y-44642000D01*
G75*
G02*
X134036000Y-44392001I0J249999D01*
G01*
G37*
G36*
G01*
X136086000Y-44392001D02*
X136086000Y-43491999D01*
G75*
G02*
X136335999Y-43242000I249999J0D01*
G01*
X136986001Y-43242000D01*
G75*
G02*
X137236000Y-43491999I0J-249999D01*
G01*
X137236000Y-44392001D01*
G75*
G02*
X136986001Y-44642000I-249999J0D01*
G01*
X136335999Y-44642000D01*
G75*
G02*
X136086000Y-44392001I0J249999D01*
G01*
G37*
%TD*%
D25*
%TO.C,L4*%
X115570000Y-33020000D03*
X115570000Y-28320000D03*
%TD*%
%TO.C,R12*%
G36*
G01*
X205410000Y-59378001D02*
X205410000Y-58477999D01*
G75*
G02*
X205659999Y-58228000I249999J0D01*
G01*
X206360001Y-58228000D01*
G75*
G02*
X206610000Y-58477999I0J-249999D01*
G01*
X206610000Y-59378001D01*
G75*
G02*
X206360001Y-59628000I-249999J0D01*
G01*
X205659999Y-59628000D01*
G75*
G02*
X205410000Y-59378001I0J249999D01*
G01*
G37*
G36*
G01*
X207410000Y-59378001D02*
X207410000Y-58477999D01*
G75*
G02*
X207659999Y-58228000I249999J0D01*
G01*
X208360001Y-58228000D01*
G75*
G02*
X208610000Y-58477999I0J-249999D01*
G01*
X208610000Y-59378001D01*
G75*
G02*
X208360001Y-59628000I-249999J0D01*
G01*
X207659999Y-59628000D01*
G75*
G02*
X207410000Y-59378001I0J249999D01*
G01*
G37*
%TD*%
%TO.C,R13*%
G36*
G01*
X207394000Y-62934001D02*
X207394000Y-62033999D01*
G75*
G02*
X207643999Y-61784000I249999J0D01*
G01*
X208344001Y-61784000D01*
G75*
G02*
X208594000Y-62033999I0J-249999D01*
G01*
X208594000Y-62934001D01*
G75*
G02*
X208344001Y-63184000I-249999J0D01*
G01*
X207643999Y-63184000D01*
G75*
G02*
X207394000Y-62934001I0J249999D01*
G01*
G37*
G36*
G01*
X205394000Y-62934001D02*
X205394000Y-62033999D01*
G75*
G02*
X205643999Y-61784000I249999J0D01*
G01*
X206344001Y-61784000D01*
G75*
G02*
X206594000Y-62033999I0J-249999D01*
G01*
X206594000Y-62934001D01*
G75*
G02*
X206344001Y-63184000I-249999J0D01*
G01*
X205643999Y-63184000D01*
G75*
G02*
X205394000Y-62934001I0J249999D01*
G01*
G37*
%TD*%
%TO.C,R20*%
G36*
G01*
X122370001Y-48130000D02*
X121469999Y-48130000D01*
G75*
G02*
X121220000Y-47880001I0J249999D01*
G01*
X121220000Y-47179999D01*
G75*
G02*
X121469999Y-46930000I249999J0D01*
G01*
X122370001Y-46930000D01*
G75*
G02*
X122620000Y-47179999I0J-249999D01*
G01*
X122620000Y-47880001D01*
G75*
G02*
X122370001Y-48130000I-249999J0D01*
G01*
G37*
G36*
G01*
X122370001Y-50130000D02*
X121469999Y-50130000D01*
G75*
G02*
X121220000Y-49880001I0J249999D01*
G01*
X121220000Y-49179999D01*
G75*
G02*
X121469999Y-48930000I249999J0D01*
G01*
X122370001Y-48930000D01*
G75*
G02*
X122620000Y-49179999I0J-249999D01*
G01*
X122620000Y-49880001D01*
G75*
G02*
X122370001Y-50130000I-249999J0D01*
G01*
G37*
%TD*%
%TO.C,R21*%
G36*
G01*
X126180001Y-50130000D02*
X125279999Y-50130000D01*
G75*
G02*
X125030000Y-49880001I0J249999D01*
G01*
X125030000Y-49179999D01*
G75*
G02*
X125279999Y-48930000I249999J0D01*
G01*
X126180001Y-48930000D01*
G75*
G02*
X126430000Y-49179999I0J-249999D01*
G01*
X126430000Y-49880001D01*
G75*
G02*
X126180001Y-50130000I-249999J0D01*
G01*
G37*
G36*
G01*
X126180001Y-48130000D02*
X125279999Y-48130000D01*
G75*
G02*
X125030000Y-47880001I0J249999D01*
G01*
X125030000Y-47179999D01*
G75*
G02*
X125279999Y-46930000I249999J0D01*
G01*
X126180001Y-46930000D01*
G75*
G02*
X126430000Y-47179999I0J-249999D01*
G01*
X126430000Y-47880001D01*
G75*
G02*
X126180001Y-48130000I-249999J0D01*
G01*
G37*
%TD*%
%TO.C,R22*%
G36*
G01*
X124009999Y-64265000D02*
X124910001Y-64265000D01*
G75*
G02*
X125160000Y-64514999I0J-249999D01*
G01*
X125160000Y-65215001D01*
G75*
G02*
X124910001Y-65465000I-249999J0D01*
G01*
X124009999Y-65465000D01*
G75*
G02*
X123760000Y-65215001I0J249999D01*
G01*
X123760000Y-64514999D01*
G75*
G02*
X124009999Y-64265000I249999J0D01*
G01*
G37*
G36*
G01*
X124009999Y-62265000D02*
X124910001Y-62265000D01*
G75*
G02*
X125160000Y-62514999I0J-249999D01*
G01*
X125160000Y-63215001D01*
G75*
G02*
X124910001Y-63465000I-249999J0D01*
G01*
X124009999Y-63465000D01*
G75*
G02*
X123760000Y-63215001I0J249999D01*
G01*
X123760000Y-62514999D01*
G75*
G02*
X124009999Y-62265000I249999J0D01*
G01*
G37*
%TD*%
%TO.C,R23*%
G36*
G01*
X135220000Y-32569999D02*
X135220000Y-33470001D01*
G75*
G02*
X134970001Y-33720000I-249999J0D01*
G01*
X134269999Y-33720000D01*
G75*
G02*
X134020000Y-33470001I0J249999D01*
G01*
X134020000Y-32569999D01*
G75*
G02*
X134269999Y-32320000I249999J0D01*
G01*
X134970001Y-32320000D01*
G75*
G02*
X135220000Y-32569999I0J-249999D01*
G01*
G37*
G36*
G01*
X133220000Y-32569999D02*
X133220000Y-33470001D01*
G75*
G02*
X132970001Y-33720000I-249999J0D01*
G01*
X132269999Y-33720000D01*
G75*
G02*
X132020000Y-33470001I0J249999D01*
G01*
X132020000Y-32569999D01*
G75*
G02*
X132269999Y-32320000I249999J0D01*
G01*
X132970001Y-32320000D01*
G75*
G02*
X133220000Y-32569999I0J-249999D01*
G01*
G37*
%TD*%
%TO.C,R24*%
G36*
G01*
X134020000Y-41344001D02*
X134020000Y-40443999D01*
G75*
G02*
X134269999Y-40194000I249999J0D01*
G01*
X134970001Y-40194000D01*
G75*
G02*
X135220000Y-40443999I0J-249999D01*
G01*
X135220000Y-41344001D01*
G75*
G02*
X134970001Y-41594000I-249999J0D01*
G01*
X134269999Y-41594000D01*
G75*
G02*
X134020000Y-41344001I0J249999D01*
G01*
G37*
G36*
G01*
X136020000Y-41344001D02*
X136020000Y-40443999D01*
G75*
G02*
X136269999Y-40194000I249999J0D01*
G01*
X136970001Y-40194000D01*
G75*
G02*
X137220000Y-40443999I0J-249999D01*
G01*
X137220000Y-41344001D01*
G75*
G02*
X136970001Y-41594000I-249999J0D01*
G01*
X136269999Y-41594000D01*
G75*
G02*
X136020000Y-41344001I0J249999D01*
G01*
G37*
%TD*%
%TO.C,R25*%
G36*
G01*
X133220000Y-36506999D02*
X133220000Y-37407001D01*
G75*
G02*
X132970001Y-37657000I-249999J0D01*
G01*
X132269999Y-37657000D01*
G75*
G02*
X132020000Y-37407001I0J249999D01*
G01*
X132020000Y-36506999D01*
G75*
G02*
X132269999Y-36257000I249999J0D01*
G01*
X132970001Y-36257000D01*
G75*
G02*
X133220000Y-36506999I0J-249999D01*
G01*
G37*
G36*
G01*
X135220000Y-36506999D02*
X135220000Y-37407001D01*
G75*
G02*
X134970001Y-37657000I-249999J0D01*
G01*
X134269999Y-37657000D01*
G75*
G02*
X134020000Y-37407001I0J249999D01*
G01*
X134020000Y-36506999D01*
G75*
G02*
X134269999Y-36257000I249999J0D01*
G01*
X134970001Y-36257000D01*
G75*
G02*
X135220000Y-36506999I0J-249999D01*
G01*
G37*
%TD*%
D20*
%TO.C,SW1*%
X184314000Y-61976000D03*
X192114000Y-61976000D03*
%TD*%
D26*
%TO.C,H1*%
X115570000Y-23495000D03*
%TD*%
%TO.C,H2*%
X215900000Y-23622000D03*
%TD*%
%TO.C,H3*%
X115570000Y-71374000D03*
%TD*%
%TO.C,H4*%
X215900000Y-71120000D03*
%TD*%
D27*
%TO.C,U3*%
X123976000Y-31008000D03*
X123976000Y-31508000D03*
X123976000Y-32008000D03*
X123976000Y-32508000D03*
X123976000Y-33008000D03*
X123976000Y-33508000D03*
X126976000Y-33508000D03*
X126976000Y-33008000D03*
X126976000Y-32508000D03*
X126976000Y-32008000D03*
X126976000Y-31508000D03*
X126976000Y-31008000D03*
D28*
X125476000Y-32258000D03*
%TD*%
M02*
